<svg width="512" height="512" viewBox="0 0 512 512" fill="none" xmlns="http://www.w3.org/2000/svg">
<path fill-rule="evenodd" clip-rule="evenodd" d="M348.734 278.616L258.224 459.504H313.25L325.579 435.124H418.107L430.502 459.504H486.558L396.562 278.616H348.734ZM379.463 358.983C380.406 360.878 381.391 362.859 382.419 364.926L398.769 397.087H344.814L361.078 364.926C362.963 361.136 364.678 357.518 366.22 354.072C367.935 350.626 369.477 347.267 370.849 343.994C371.228 343.089 371.594 342.19 371.947 341.299C372.177 341.932 372.411 342.571 372.648 343.218C373.849 346.491 375.219 349.937 376.763 353.555C377.619 355.278 378.52 357.087 379.463 358.983Z" fill="black"/>
<path fill-rule="evenodd" clip-rule="evenodd" d="M53.6134 459.504V278.616H157.506C174.65 278.616 188.708 280.941 199.68 285.594C210.824 290.074 219.053 296.792 224.368 305.75C229.854 314.535 232.596 325.303 232.596 338.051C232.596 350.281 229.511 361.136 223.339 370.61C217.167 379.913 208.681 387.235 197.88 392.574L194.314 394.315L243.397 459.504H180.393L136.316 400.697L105.56 400.586V459.504H53.6134ZM154.42 361.825H105.56V322.547H153.648C157.934 322.547 161.878 323.237 165.478 324.613C169.078 325.993 171.907 328.145 173.964 331.073C176.193 333.829 177.307 337.534 177.307 342.186C177.307 346.663 176.193 350.368 173.964 353.296C171.907 356.224 169.164 358.38 165.735 359.756C162.306 361.136 158.534 361.825 154.42 361.825Z" fill="black"/>
<path fill-rule="evenodd" clip-rule="evenodd" d="M281.947 250.445V69.5574H387.72C404.151 69.5574 418.016 71.3661 429.311 74.9839C440.608 78.6017 449.165 83.6839 454.984 90.2303C460.805 96.7767 463.715 104.443 463.715 113.229C463.715 123.738 460.805 132.61 454.984 139.845C449.702 145.22 440.752 150.235 436.937 152.07C441.683 153.666 446.244 155.707 450.621 158.192C457.296 161.81 462.687 166.634 466.795 172.663C471.075 178.521 473.213 185.842 473.213 194.628C473.213 205.998 470.732 215.301 465.767 222.537C460.805 229.772 454.301 235.457 446.256 239.592C438.384 243.554 429.824 246.397 420.582 248.119C411.512 249.67 402.781 250.445 394.395 250.445H281.947ZM395.423 206.515H333.293V176.281H394.138C397.219 176.281 400.728 176.712 404.665 177.573C408.602 178.262 412.026 179.64 414.935 181.708C417.844 183.775 419.298 186.962 419.298 191.269C419.298 194.887 418.187 197.815 415.96 200.055C413.907 202.295 411.084 203.931 407.489 204.965C403.894 205.998 399.872 206.515 395.423 206.515ZM384.896 138.812H333.293V113.487H384.383C391.572 113.487 397.562 114.435 402.355 116.33C407.146 118.053 409.542 121.154 409.542 125.633C409.542 128.733 408.517 131.232 406.461 133.126C404.58 135.021 401.756 136.486 397.99 137.52C394.395 138.381 390.03 138.812 384.896 138.812Z" fill="black"/>
<path d="M143.574 251.928C126.035 251.928 110.043 249.624 95.5992 245.018C81.1551 240.241 68.6885 233.673 58.1993 225.312C47.7102 216.782 39.6285 206.887 33.954 195.626C28.2795 184.195 25.4423 171.826 25.4423 158.519C25.4423 145.211 28.2795 132.927 33.954 121.667C39.8003 110.236 47.9681 100.34 58.4572 91.9804C68.9464 83.4498 81.3269 76.8815 95.5992 72.275C110.043 67.498 125.949 65.1093 143.316 65.1093C160.683 65.1093 176.503 67.498 190.775 72.275C205.219 76.8815 217.685 83.4498 228.174 91.9804C238.664 100.34 246.745 110.236 252.42 121.667C258.266 132.927 261.189 145.126 261.189 158.263C261.189 171.741 258.266 184.195 252.42 195.626C246.745 206.887 238.664 216.782 228.174 225.312C217.685 233.673 205.219 240.241 190.775 245.018C176.503 249.624 160.769 251.928 143.574 251.928ZM143.316 200.745C152.257 200.745 160.425 199.721 167.819 197.674C175.385 195.456 181.833 192.47 187.164 188.717C192.666 184.793 196.879 180.271 199.802 175.153C202.897 170.035 204.445 164.49 204.445 158.519C204.445 152.547 202.897 147.002 199.802 141.884C196.879 136.766 192.666 132.33 187.164 128.576C181.833 124.653 175.385 121.667 167.819 119.619C160.425 117.401 152.257 116.292 143.316 116.292C134.374 116.292 126.121 117.401 118.555 119.619C111.161 121.667 104.713 124.653 99.2099 128.576C93.7075 132.33 89.4947 136.766 86.5715 141.884C83.6483 147.002 82.1868 152.547 82.1868 158.519C82.1868 164.49 83.6483 170.035 86.5715 175.153C89.4947 180.271 93.7075 184.793 99.2099 188.717C104.713 192.47 111.161 195.456 118.555 197.674C126.121 199.721 134.374 200.745 143.316 200.745Z" fill="black"/>
</svg>
