<!-- ! This file is automatically generated, please don't edit it directly. -->

<svg
	width="24"
	height="24"
	viewBox="0 0 24 24"
	fill="none"
	xmlns="http://www.w3.org/2000/svg"
>
	<g class="oi-brand-threads">
		<path
			class="oi-fill"
			d="M16.7865 11.2682C16.7003 11.2269 16.6128 11.1872 16.5242 11.1491C16.3698 8.30431 14.8153 6.67564 12.2052 6.65897C12.1933 6.6589 12.1816 6.6589 12.1698 6.6589C10.6086 6.6589 9.31013 7.3253 8.51096 8.53793L9.94646 9.52266C10.5435 8.61686 11.4804 8.42376 12.1705 8.42376C12.1784 8.42376 12.1864 8.42376 12.1943 8.42384C13.0537 8.42932 13.7023 8.67919 14.122 9.16649C14.4275 9.52125 14.6317 10.0115 14.7329 10.6302C13.9709 10.5007 13.1469 10.4609 12.2659 10.5114C9.78432 10.6543 8.18895 12.1016 8.2961 14.1127C8.35047 15.1329 8.85868 16.0105 9.72705 16.5838C10.4613 17.0684 11.4069 17.3055 12.3896 17.2518C13.6875 17.1806 14.7056 16.6855 15.4159 15.78C15.9554 15.0925 16.2965 14.2014 16.4472 13.0787C17.0657 13.4519 17.5241 13.9431 17.7773 14.5336C18.2077 15.5374 18.2328 17.1869 16.8869 18.5316C15.7077 19.7097 14.2902 20.2194 12.148 20.2351C9.77177 20.2175 7.97462 19.4554 6.80617 17.97C5.712 16.5791 5.14654 14.5701 5.12544 11.9987C5.14654 9.42733 5.712 7.4183 6.80617 6.0274C7.97462 4.54202 9.77174 3.77996 12.148 3.7623C14.5415 3.78009 16.37 4.54583 17.5832 6.03837C18.178 6.7703 18.6265 7.69075 18.9222 8.76396L20.6044 8.31515C20.246 6.99414 19.6821 5.85582 18.9147 4.91177C17.3594 2.99826 15.0847 2.01777 12.1539 1.99744H12.1421C9.21726 2.0177 6.96806 3.00192 5.45705 4.92274C4.11246 6.63203 3.41889 9.01039 3.39551 11.9917V11.9987V12.0058C3.41889 14.987 4.11246 17.3655 5.45705 19.0747C6.96806 20.9955 9.21726 21.9798 12.1421 22H12.1539C14.7543 21.982 16.5872 21.3012 18.0972 19.7925C20.0728 17.8188 20.0133 15.3449 19.3621 13.8261C18.895 12.737 18.0044 11.8525 16.7865 11.2682ZM12.2967 15.4895C11.2091 15.5507 10.0791 15.0626 10.0234 14.0169C9.98211 13.2416 10.5752 12.3765 12.3635 12.2734C12.5683 12.2616 12.7692 12.2558 12.9666 12.2558C13.6162 12.2558 14.2239 12.3189 14.7763 12.4397C14.5703 15.0132 13.3616 15.431 12.2967 15.4895Z"
			fill="black"
		/>
	</g>
</svg>