<!-- ! This file is automatically generated, please don't edit it directly. -->

<svg
	width="24"
	height="24"
	viewBox="0 0 24 24"
	fill="none"
	xmlns="http://www.w3.org/2000/svg"
>
	<g class="oi-calendar-remove-fill">
		<path
			class="oi-fill"
			fill-rule="evenodd"
			clip-rule="evenodd"
			d="M8 4V6C8 6.55228 8.44771 7 9 7C9.55228 7 10 6.55229 10 6L10 4H14V6C14 6.55228 14.4477 7 15 7C15.5523 7 16 6.55229 16 6L16 4H19C20.1046 4 21 4.89543 21 6V9.00075C20.987 9.00025 20.974 9 20.9609 9H3V6C3 4.89543 3.89543 4 5 4H8ZM20.9609 11C20.974 11 20.987 10.9997 21 10.9993V19C21 20.1046 20.1046 21 19 21H5C3.89543 21 3 20.1046 3 19V11H20.9609ZM14.7071 12.2929C15.0976 12.6834 15.0976 13.3166 14.7071 13.7071L13.4142 15L14.7071 16.2929C15.0976 16.6834 15.0976 17.3166 14.7071 17.7071C14.3166 18.0976 13.6834 18.0976 13.2929 17.7071L12 16.4142L10.7071 17.7071C10.3166 18.0976 9.68342 18.0976 9.29289 17.7071C8.90237 17.3166 8.90237 16.6834 9.29289 16.2929L10.5858 15L9.29289 13.7071C8.90237 13.3166 8.90237 12.6834 9.29289 12.2929C9.68342 11.9024 10.3166 11.9024 10.7071 12.2929L12 13.5858L13.2929 12.2929C13.6834 11.9024 14.3166 11.9024 14.7071 12.2929Z"
			fill="black"
		/>
	</g>
</svg>