<!-- ! This file is automatically generated, please don't edit it directly. -->

<svg
	width="24"
	height="24"
	viewBox="0 0 24 24"
	fill="none"
	xmlns="http://www.w3.org/2000/svg"
>
	<g class="oi-chef-hat">
		<path
			class="oi-line"
			d="M9 15L8.25 12"
			stroke="black"
			stroke-width="2"
			stroke-linecap="round"
			stroke-linejoin="round"
		/>
		<path
			class="oi-line"
			d="M15 15L15.75 12"
			stroke="black"
			stroke-width="2"
			stroke-linecap="round"
			stroke-linejoin="round"
		/>
		<path
			class="oi-line"
			d="M12 15V12"
			stroke="black"
			stroke-width="2"
			stroke-linecap="round"
			stroke-linejoin="round"
		/>
		<path
			class="oi-vector"
			d="M16.2797 6.105C16.8967 5.96932 17.5354 5.96509 18.1542 6.09259C18.773 6.22008 19.358 6.47645 19.8712 6.84501C20.3843 7.21356 20.8141 7.68604 21.1326 8.2317C21.4511 8.77735 21.651 9.38395 21.7196 10.012C21.7881 10.6401 21.7236 11.2755 21.5302 11.877C21.3369 12.4785 21.0191 13.0325 20.5975 13.5031C20.1758 13.9736 19.6599 14.35 19.0831 14.608C18.5064 14.8659 17.8818 14.9995 17.25 15H6.74999C6.11821 14.9995 5.49361 14.8659 4.91686 14.608C4.34012 14.35 3.82414 13.9736 3.40252 13.5031C2.9809 13.0325 2.66308 12.4785 2.46975 11.877C2.27642 11.2755 2.21192 10.6401 2.28043 10.012C2.34894 9.38395 2.54894 8.77735 2.8674 8.2317C3.18587 7.68604 3.61566 7.21356 4.12881 6.84501C4.64197 6.47645 5.22697 6.22008 5.84577 6.09259C6.46456 5.96509 7.10326 5.96932 7.72031 6.105"
			stroke="black"
			stroke-width="2"
			stroke-linecap="round"
			stroke-linejoin="round"
		/>
		<path
			class="oi-vector"
			d="M7.5 7.5C7.5 6.30653 7.97411 5.16193 8.81802 4.31802C9.66193 3.47411 10.8065 3 12 3C13.1935 3 14.3381 3.47411 15.182 4.31802C16.0259 5.16193 16.5 6.30653 16.5 7.5"
			stroke="black"
			stroke-width="2"
			stroke-linecap="round"
			stroke-linejoin="round"
		/>
		<path
			class="oi-vector"
			d="M18.75 14.7441V19.5C18.75 19.6989 18.671 19.8897 18.5303 20.0303C18.3897 20.171 18.1989 20.25 18 20.25H6C5.80109 20.25 5.61032 20.171 5.46967 20.0303C5.32902 19.8897 5.25 19.6989 5.25 19.5V14.7441"
			stroke="black"
			stroke-width="2"
			stroke-linecap="round"
			stroke-linejoin="round"
		/>
	</g>
</svg>