<!-- ! This file is automatically generated, please don't edit it directly. -->

<svg
	width="24"
	height="24"
	viewBox="0 0 24 24"
	fill="none"
	xmlns="http://www.w3.org/2000/svg"
>
	<g class="oi-circle-question-fill">
		<path
			class="oi-fill"
			fill-rule="evenodd"
			clip-rule="evenodd"
			d="M12 22.2C17.6333 22.2 22.2 17.6334 22.2 12C22.2 6.36674 17.6333 1.80005 12 1.80005C6.36668 1.80005 1.79999 6.36674 1.79999 12C1.79999 17.6334 6.36668 22.2 12 22.2ZM10.6011 9.02853C10.3282 9.31017 10.1892 9.6821 10.1241 10.0106C10.0166 10.5523 9.49036 10.9044 8.94863 10.7969C8.4069 10.6895 8.05485 10.1632 8.1623 9.62149C8.2692 9.0825 8.52571 8.29643 9.16458 7.63695C9.83026 6.94978 10.8144 6.50006 12.1711 6.50006C13.0545 6.50006 13.9842 6.79795 14.7009 7.47667C15.4319 8.16899 15.8568 9.17734 15.8568 10.4282C15.8568 11.7152 15.3209 12.6396 14.5592 13.2349C13.9772 13.6897 13.3066 13.921 12.7396 14.0344C12.7258 14.5747 12.2835 15.0084 11.7399 15.0084C11.1876 15.0084 10.7399 14.5607 10.7399 14.0084V13.6362C10.7399 12.785 11.413 12.1998 12.1128 12.1114C12.5421 12.0572 12.9995 11.9154 13.3277 11.659C13.6113 11.4374 13.8568 11.0909 13.8568 10.4282C13.8568 9.64871 13.6046 9.19299 13.3256 8.92882C13.0323 8.65105 12.6192 8.50006 12.1711 8.50006C11.2909 8.50006 10.8471 8.77458 10.6011 9.02853ZM10.7283 17.0001C10.7283 16.4478 11.176 16.0001 11.7283 16.0001H11.7403C12.2926 16.0001 12.7403 16.4478 12.7403 17.0001C12.7403 17.5523 12.2926 18.0001 11.7403 18.0001H11.7283C11.176 18.0001 10.7283 17.5523 10.7283 17.0001Z"
			fill="black"
		/>
	</g>
</svg>