<!-- ! This file is automatically generated, please don't edit it directly. -->

<svg
	width="24"
	height="24"
	viewBox="0 0 24 24"
	fill="none"
	xmlns="http://www.w3.org/2000/svg"
>
	<g class="oi-clipboard-add">
		<path
			class="oi-box"
			d="M8 4H6C5.44772 4 5 4.44772 5 5V20C5 20.5523 5.44772 21 6 21H18C18.5523 21 19 20.5523 19 20V5C19 4.44772 18.5523 4 18 4H16"
			stroke="black"
			stroke-width="2"
			stroke-linecap="round"
		/>
		<path
			class="oi-box"
			d="M9 5V3C9 2.44772 9.44772 2 10 2H14C14.5523 2 15 2.44772 15 3V5C15 5.55228 14.5523 6 14 6H10C9.44772 6 9 5.55228 9 5Z"
			stroke="black"
			stroke-width="2"
			stroke-linecap="round"
		/>
		<path
			class="oi-line"
			d="M12 11.5V16.5"
			stroke="black"
			stroke-width="2"
			stroke-miterlimit="10"
			stroke-linecap="round"
			stroke-linejoin="round"
		/>
		<path
			class="oi-line"
			d="M14.5 14H9.5"
			stroke="black"
			stroke-width="2"
			stroke-miterlimit="10"
			stroke-linecap="round"
			stroke-linejoin="round"
		/>
	</g>
</svg>