<!-- ! This file is automatically generated, please don't edit it directly. -->

<svg
	width="24"
	height="24"
	viewBox="0 0 24 24"
	fill="none"
	xmlns="http://www.w3.org/2000/svg"
>
	<g class="oi-cloud-deploy">
		<path
			class="oi-fill"
			fill-rule="evenodd"
			clip-rule="evenodd"
			d="M11 2C7.68629 2 5 4.68629 5 8C5 8.13781 5.00466 8.27465 5.01385 8.41034C3.24073 9.1787 2 10.9436 2 13C2 15.5927 3.97334 17.7245 6.5 17.9753V15.9585C5.08114 15.7205 4 14.4865 4 13C4 11.571 5.00015 10.3732 6.33958 10.0727C6.8783 9.95187 7.21716 9.41729 7.09656 8.87852C7.03348 8.59674 7 8.30288 7 8C7 5.79086 8.79086 4 11 4C12.9343 4 14.5499 5.37395 14.9201 7.19971C15.0161 7.67312 15.4368 8.01024 15.9198 8.00079C15.9465 8.00026 15.9732 8 16 8C18.2091 8 20 9.79086 20 12C20 13.6787 18.9659 15.1159 17.5 15.7092V17.811C20.0878 17.1449 22 14.7958 22 12C22 8.91321 19.669 6.37085 16.6713 6.03713C15.858 3.68745 13.627 2 11 2Z"
			fill="black"
		/>
		<path
			class="oi-line"
			d="M12 17V21"
			stroke="black"
			stroke-width="2"
			stroke-linecap="round"
			stroke-linejoin="round"
		/>
		<path
			class="oi-vector"
			d="M8.5 15L12 13L15.5 15V19L12 21L8.5 19V15Z"
			stroke="black"
			stroke-width="2"
			stroke-linecap="round"
			stroke-linejoin="round"
		/>
		<path
			class="oi-vector"
			d="M8.5 15L12 17L15.5 15"
			stroke="black"
			stroke-width="2"
			stroke-linecap="round"
			stroke-linejoin="round"
		/>
	</g>
</svg>