<!-- ! This file is automatically generated, please don't edit it directly. -->

<svg
	width="24"
	height="24"
	viewBox="0 0 24 24"
	fill="none"
	xmlns="http://www.w3.org/2000/svg"
>
	<g class="oi-coffee">
		<path
			class="oi-vector"
			d="M15 10H6V19C6 20.1046 6.89543 21 8 21H13C14.1046 21 15 20.1046 15 19V10Z"
			stroke="black"
			stroke-width="2"
			stroke-miterlimit="10"
			stroke-linecap="round"
			stroke-linejoin="round"
		/>
		<path
			class="oi-vector"
			d="M15 12C16.6569 12 18 13.3431 18 15C18 16.6569 16.6569 18 15 18"
			stroke="black"
			stroke-width="2"
			stroke-linecap="round"
			stroke-linejoin="round"
		/>
		<path
			class="oi-vector"
			d="M7.11979 4C7.29949 4.4 7.85016 5.00165 6.8875 5.47782C5.92484 5.95398 6.76038 6.66667 7.11979 7"
			stroke="black"
			stroke-width="2"
			stroke-linecap="round"
		/>
		<path
			class="oi-vector"
			d="M10.6198 3C10.7995 3.53333 11.3502 4.33553 10.3875 4.97042C9.42484 5.60531 10.2604 6.55556 10.6198 7"
			stroke="black"
			stroke-width="2"
			stroke-linecap="round"
		/>
		<path
			class="oi-vector"
			d="M14.1198 4C14.2995 4.4 14.8502 5.00165 13.8875 5.47782C12.9248 5.95398 13.7604 6.66667 14.1198 7"
			stroke="black"
			stroke-width="2"
			stroke-linecap="round"
		/>
	</g>
</svg>