<!-- ! This file is automatically generated, please don't edit it directly. -->

<svg
	width="24"
	height="24"
	viewBox="0 0 24 24"
	fill="none"
	xmlns="http://www.w3.org/2000/svg"
>
	<g class="oi-dashboard-one">
		<path
			class="oi-vector"
			d="M12.1362 3.5C6.72601 3.5 2.34049 7.977 2.34049 13.5C2.34049 16.115 3.17949 18.718 4.78941 20.5H19.4829C21.0923 18.718 21.9318 16.115 21.9318 13.5C21.9318 7.977 17.5463 3.5 12.1362 3.5Z"
			stroke="black"
			stroke-width="2"
			stroke-linecap="round"
			stroke-linejoin="round"
		/>
		<path
			class="oi-ellipse"
			d="M12.1362 17C13.2182 17 14.0953 16.1046 14.0953 15C14.0953 13.8954 13.2182 13 12.1362 13C11.0542 13 10.177 13.8954 10.177 15C10.177 16.1046 11.0542 17 12.1362 17Z"
			stroke="black"
			stroke-width="2"
			stroke-linecap="round"
			stroke-linejoin="round"
		/>
		<path
			class="oi-line"
			d="M18.5034 14H19.483"
			stroke="black"
			stroke-width="2"
			stroke-linecap="round"
			stroke-linejoin="round"
		/>
		<path
			class="oi-line"
			d="M17.0342 9.707L17.7267 9"
			stroke="black"
			stroke-width="2"
			stroke-linecap="round"
			stroke-linejoin="round"
		/>
		<path
			class="oi-line"
			d="M12.1362 6V7"
			stroke="black"
			stroke-width="2"
			stroke-linecap="round"
			stroke-linejoin="round"
		/>
		<path
			class="oi-line"
			d="M6.74854 9L7.44109 9.707"
			stroke="black"
			stroke-width="2"
			stroke-linecap="round"
			stroke-linejoin="round"
		/>
		<path
			class="oi-line"
			d="M4.78931 14H5.76887"
			stroke="black"
			stroke-width="2"
			stroke-linecap="round"
			stroke-linejoin="round"
		/>
		<path
			class="oi-line"
			d="M12.1362 10V13"
			stroke="black"
			stroke-width="2"
			stroke-linecap="round"
			stroke-linejoin="round"
		/>
	</g>
</svg>