<!-- ! This file is automatically generated, please don't edit it directly. -->

<svg
	width="24"
	height="24"
	viewBox="0 0 24 24"
	fill="none"
	xmlns="http://www.w3.org/2000/svg"
>
	<g class="oi-disco-ball">
		<path
			class="oi-vector"
			d="M10.5 1.5V6.75"
			stroke="black"
			stroke-width="2"
			stroke-linecap="round"
			stroke-linejoin="round"
		/>
		<path
			class="oi-vector"
			d="M10.5 21.75C14.6421 21.75 18 18.3921 18 14.25C18 10.1079 14.6421 6.75 10.5 6.75C6.35786 6.75 3 10.1079 3 14.25C3 18.3921 6.35786 21.75 10.5 21.75Z"
			stroke="black"
			stroke-width="2"
			stroke-linecap="round"
			stroke-linejoin="round"
		/>
		<path
			class="oi-vector"
			d="M13.5 14.25C13.5 19.5 10.5 21.75 10.5 21.75C10.5 21.75 7.5 19.5 7.5 14.25C7.5 9 10.5 6.75 10.5 6.75C10.5 6.75 13.5 9 13.5 14.25Z"
			stroke="black"
			stroke-width="2"
			stroke-linecap="round"
			stroke-linejoin="round"
		/>
		<path
			class="oi-vector"
			d="M3 14.25H18"
			stroke="black"
			stroke-width="2"
			stroke-linecap="round"
			stroke-linejoin="round"
		/>
		<path
			class="oi-line"
			d="M20.75 6.75V9.75"
			stroke="black"
			stroke-width="2"
			stroke-linecap="round"
			stroke-linejoin="round"
		/>
		<path
			class="oi-line"
			d="M22.25 8.25H19.25"
			stroke="black"
			stroke-width="2"
			stroke-linecap="round"
			stroke-linejoin="round"
		/>
		<path
			class="oi-line"
			d="M16.25 1.5V6"
			stroke="black"
			stroke-width="2"
			stroke-linecap="round"
			stroke-linejoin="round"
		/>
		<path
			class="oi-line"
			d="M18.5 3.75H14"
			stroke="black"
			stroke-width="2"
			stroke-linecap="round"
			stroke-linejoin="round"
		/>
	</g>
</svg>