<!-- ! This file is automatically generated, please don't edit it directly. -->

<svg
	width="24"
	height="24"
	viewBox="0 0 24 24"
	fill="none"
	xmlns="http://www.w3.org/2000/svg"
>
	<g class="oi-discount">
		<path
			class="oi-vector"
			d="M10.287 4.1397C10.719 2.33885 13.2809 2.33885 13.713 4.1397C13.9923 5.30368 15.3262 5.85619 16.3467 5.23061C17.9256 4.26273 19.7372 6.07427 18.7693 7.65318C18.1437 8.67371 18.6962 10.0076 19.8602 10.2869C21.661 10.7189 21.661 13.2808 19.8602 13.7129C18.6962 13.9922 18.1437 15.3261 18.7693 16.3466C19.7372 17.9255 17.9256 19.737 16.3467 18.7692C15.3262 18.1436 13.9923 18.6961 13.713 19.8601C13.2809 21.6609 10.719 21.6609 10.287 19.8601C10.0077 18.6961 8.67382 18.1436 7.65329 18.7692C6.07438 19.737 4.26284 17.9255 5.23072 16.3466C5.8563 15.3261 5.30378 13.9922 4.13981 13.7129C2.33896 13.2808 2.33896 10.7189 4.13981 10.2869C5.30378 10.0076 5.8563 8.67371 5.23072 7.65318C4.26284 6.07427 6.07438 4.26273 7.65329 5.23061C8.67382 5.85619 10.0077 5.30368 10.287 4.1397Z"
			stroke="black"
			stroke-width="2"
		/>
		<path
			class="oi-mini-dot"
			d="M10.005 9.99512L10.005 10.0051"
			stroke="black"
			stroke-width="2"
			stroke-linecap="round"
			stroke-linejoin="round"
		/>
		<path
			class="oi-mini-dot"
			d="M14.005 13.9951L14.005 14.0051"
			stroke="black"
			stroke-width="2"
			stroke-linecap="round"
			stroke-linejoin="round"
		/>
		<path
			class="oi-line"
			d="M14.005 9.99512L10.005 13.9951"
			stroke="black"
			stroke-width="2"
			stroke-linecap="round"
			stroke-linejoin="round"
		/>
	</g>
</svg>