<svg
	width="24"
	height="24"
	viewBox="0 0 24 24"
	fill="none"
	xmlns="http://www.w3.org/2000/svg"
>
	<g class="oi-email-fill">
		<path
			class="oi-fill"
			fill-rule="evenodd"
			clip-rule="evenodd"
			d="M2 6C2 4.89543 2.89543 4 4 4H20C21.1046 4 22 4.89543 22 6V18C22 19.1046 21.1046 20 20 20H4C2.89543 20 2 19.1046 2 18V6ZM4.6585 5.24742C4.24287 4.88374 3.61111 4.92586 3.24742 5.3415C2.88374 5.75713 2.92586 6.38889 3.3415 6.75258L11.3415 13.7526C11.7185 14.0825 12.2815 14.0825 12.6585 13.7526L20.6585 6.75258C21.0741 6.38889 21.1163 5.75713 20.7526 5.3415C20.3889 4.92586 19.7571 4.88374 19.3415 5.24742L12 11.6712L4.6585 5.24742Z"
			fill="black"
		/>
	</g>
</svg>