<svg
	width="24"
	height="24"
	viewBox="0 0 24 24"
	fill="none"
	xmlns="http://www.w3.org/2000/svg"
>
	<g class="oi-eye-fill">
		<path
			class="oi-fill"
			fill-rule="evenodd"
			clip-rule="evenodd"
			d="M12 5C15.9031 5 19.7362 7.23635 21.8944 11.5528C22.0352 11.8343 22.0352 12.1657 21.8944 12.4472C19.7362 16.7637 15.9031 19 12 19C8.09687 19 4.26379 16.7637 2.10557 12.4472C1.96481 12.1657 1.96481 11.8343 2.10557 11.5528C4.26379 7.23635 8.09687 5 12 5ZM15 12C15 13.6569 13.6569 15 12 15C10.3431 15 9 13.6569 9 12C9 10.3431 10.3431 9 12 9C13.6569 9 15 10.3431 15 12Z"
			fill="black"
		/>
	</g>
</svg>