<!-- ! This file is automatically generated, please don't edit it directly. -->

<svg
	width="24"
	height="24"
	viewBox="0 0 24 24"
	fill="none"
	xmlns="http://www.w3.org/2000/svg"
>
	<g class="oi-eyedropper-fill">
		<path
			class="oi-fill"
			fill-rule="evenodd"
			clip-rule="evenodd"
			d="M15.5858 11.0001L13 8.4143L7.62509 13.7892C7.09308 14.3212 6.65032 14.9355 6.31385 15.6084L4.23607 19.764L8.39162 17.6862C9.06457 17.3497 9.67887 16.907 10.2109 16.375L15.5858 11.0001ZM21.7189 5.0886C21.5583 4.43059 21.2211 3.80689 20.7071 3.29295C19.212 1.79786 16.788 1.79786 15.2929 3.29295L13 5.58584L12.7071 5.29295C12.3166 4.90243 11.6834 4.90243 11.2929 5.29295C10.9024 5.68348 10.9024 6.31664 11.2929 6.70716L11.5858 7.00006L6.21088 12.375C5.52687 13.059 4.9576 13.8488 4.52499 14.714L2.44722 18.8696C1.58766 20.5887 3.41138 22.4124 5.1305 21.5528L9.28605 19.4751C10.1513 19.0425 10.9411 18.4732 11.6251 17.7892L17 12.4143L17.2929 12.7072C17.6834 13.0977 18.3166 13.0977 18.7071 12.7072C19.0976 12.3166 19.0976 11.6835 18.7071 11.293L18.4142 11.0001L20.7071 8.70722C21.2678 8.14655 21.6182 7.45523 21.7583 6.73126C21.8635 6.1883 21.8503 5.62697 21.7189 5.0886Z"
			fill="black"
		/>
	</g>
</svg>