<svg
	width="24"
	height="24"
	viewBox="0 0 24 24"
	fill="none"
	xmlns="http://www.w3.org/2000/svg"
>
	<g class="oi-face-love">
		<path
			class="oi-ellipse"
			d="M12 22C17.5228 22 22 17.5228 22 12C22 6.47715 17.5228 2 12 2C6.47715 2 2 6.47715 2 12C2 17.5228 6.47715 22 12 22Z"
			stroke="black"
			stroke-width="2"
			stroke-linecap="round"
			stroke-linejoin="round"
		/>
		<path
			class="oi-fill"
			d="M14.8082 8.02061C15.2087 7.6281 15.85 7.61745 16.2636 7.98866C16.6772 7.61745 17.3185 7.6281 17.719 8.02061C18.1326 8.4259 18.1326 9.08443 17.719 9.48972L16.3802 10.8018C16.3154 10.8653 16.2118 10.8653 16.147 10.8018L14.8082 9.48972C14.3947 9.08443 14.3947 8.4259 14.8082 8.02061Z"
			fill="black"
		/>
		<path
			class="oi-fill"
			d="M6.78636 8.02061C7.18687 7.6281 7.82818 7.61745 8.24176 7.98866C8.65534 7.61745 9.29665 7.6281 9.69716 8.02061C10.1107 8.4259 10.1107 9.08443 9.69716 9.48972L8.35834 10.8018C8.29358 10.8653 8.18994 10.8653 8.12518 10.8018L6.78636 9.48972C6.37281 9.08443 6.37281 8.4259 6.78636 8.02061Z"
			fill="black"
		/>
		<path
			class="oi-vector"
			d="M12 18C13.0609 18 14.0783 17.5786 14.8284 16.8284C15.5786 16.0783 16 15.0609 16 14H8C8 15.0609 8.42143 16.0783 9.17157 16.8284C9.92172 17.5786 10.9391 18 12 18Z"
			stroke="black"
			stroke-width="2"
			stroke-linecap="round"
			stroke-linejoin="round"
		/>
	</g>
</svg>