<!-- ! This file is automatically generated, please don't edit it directly. -->

<svg
	width="24"
	height="24"
	viewBox="0 0 24 24"
	fill="none"
	xmlns="http://www.w3.org/2000/svg"
>
	<g class="oi-family[love,parent]">
		<circle
			class="oi-vector"
			cx="7.25"
			cy="10.25"
			r="3.25"
			stroke="black"
			stroke-width="2"
		/>
		<circle
			class="oi-vector"
			cx="17"
			cy="12.5"
			r="2.5"
			stroke="black"
			stroke-width="2"
		/>
		<path
			class="oi-fill"
			fill-rule="evenodd"
			clip-rule="evenodd"
			d="M10.0179 21H2.10002C2.56329 18.7178 4.58104 17 7 17C8.61107 17 10.0442 17.762 10.9586 18.9452C11.3351 18.3627 11.7826 17.8456 12.2863 17.4113C11.0029 15.934 9.11054 15 7 15C3.13401 15 0 18.134 0 22V23H1H9.67581C9.71191 22.3036 9.82957 21.6327 10.0179 21Z"
			fill="black"
		/>
		<path
			class="oi-vector"
			d="M12.5 22C12.5 19.5147 14.5147 17.5 17 17.5C19.4853 17.5 21.5 19.5147 21.5 22H12.5Z"
			stroke="black"
			stroke-width="2"
		/>
		<path
			class="oi-vector"
			d="M11.4882 2.45562C12.139 1.84813 13.1943 1.84813 13.8452 2.45562L14 2.60013L14.1548 2.45562C14.8057 1.84813 15.861 1.84813 16.5118 2.45562C17.1627 3.06312 17.1627 4.04806 16.5118 4.65556L14 7L11.4882 4.65556C10.8373 4.04806 10.8373 3.06312 11.4882 2.45562Z"
			stroke="black"
			stroke-width="2"
			stroke-miterlimit="10"
			stroke-linecap="round"
			stroke-linejoin="round"
		/>
	</g>
</svg>