<!-- ! This file is automatically generated, please don't edit it directly. -->

<svg
	width="24"
	height="24"
	viewBox="0 0 24 24"
	fill="none"
	xmlns="http://www.w3.org/2000/svg"
>
	<g class="oi-favorite-off[unstar,star]">
		<path
			class="oi-fill"
			fill-rule="evenodd"
			clip-rule="evenodd"
			d="M5.7815 8.6099L2.85609 9.03541C2.47946 9.0902 2.16658 9.35402 2.04897 9.71599C1.93136 10.078 2.02942 10.4753 2.30193 10.741L6.42906 14.7649L5.50065 20.4385C5.4393 20.8135 5.59573 21.1908 5.9044 21.4124C6.21306 21.6339 6.62062 21.6614 6.95624 21.4834L12 18.8071L17.0438 21.4834C17.3794 21.6614 17.787 21.6339 18.0957 21.4124C18.1915 21.3436 18.2727 21.2597 18.3372 21.1656L15.6527 18.4811L12.4687 16.7917C12.1756 16.6361 11.8244 16.6361 11.5313 16.7917L7.80004 18.7715L8.4869 14.574C8.53961 14.2519 8.43182 13.9243 8.19813 13.6965L5.14842 10.723L7.54591 10.3743L5.7815 8.6099ZM16.168 13.3396L18.8516 10.723L14.6686 10.1146C14.3448 10.0675 14.0645 9.86491 13.9181 9.57221L12 5.73607L10.8549 8.0264L9.36415 6.53569L11.1056 3.05279C11.275 2.714 11.6213 2.5 12 2.5C12.3788 2.5 12.7251 2.714 12.8945 3.05279L15.4734 8.2106L21.144 9.03541C21.5206 9.0902 21.8335 9.35402 21.9511 9.71599C22.0687 10.078 21.9706 10.4753 21.6981 10.741L17.5823 14.7539L16.168 13.3396Z"
			fill="black"
		/>
		<path
			class="oi-vector"
			d="M5 5L19 19"
			stroke="black"
			stroke-width="2"
			stroke-miterlimit="10"
			stroke-linecap="round"
			stroke-linejoin="round"
		/>
	</g>
</svg>