<svg
	width="24"
	height="24"
	viewBox="0 0 24 24"
	fill="none"
	xmlns="http://www.w3.org/2000/svg"
>
	<g class="oi-flashlight">
		<path
			class="oi-vector"
			d="M5 4V5C5 6.636 7 9 8 10L8.75 19.01C8.81775 19.8253 9.18955 20.5853 9.7916 21.1391C10.3936 21.693 11.1819 22.0003 12 22C12.8181 22.0003 13.6064 21.693 14.2084 21.1391C14.8105 20.5853 15.1822 19.8253 15.25 19.01L16 10C17 9 19 6.636 19 5V4"
			stroke="black"
			stroke-width="2"
			stroke-linecap="round"
			stroke-linejoin="round"
		/>
		<path
			class="oi-line"
			d="M12 11V13"
			stroke="black"
			stroke-width="2"
			stroke-linecap="round"
			stroke-linejoin="round"
		/>
		<path
			class="oi-vector"
			d="M12 6C15.866 6 19 5.10457 19 4C19 2.89543 15.866 2 12 2C8.13401 2 5 2.89543 5 4C5 5.10457 8.13401 6 12 6Z"
			stroke="black"
			stroke-width="2"
			stroke-linecap="round"
			stroke-linejoin="round"
		/>
	</g>
</svg>