<!-- ! This file is automatically generated, please don't edit it directly. -->

<svg
	width="24"
	height="24"
	viewBox="0 0 24 24"
	fill="none"
	xmlns="http://www.w3.org/2000/svg"
>
	<g class="oi-hand-move">
		<path
			class="oi-vector"
			d="M20 16V8.5C20 7.672 19.359 7 18.52 7C18 7 17 7.3 17 8.5V5.5C17 4.672 16.359 4 15.52 4C15.013 4 14 4.3 14 5.5V3.5C14 2.672 13.359 2 12.52 2C11.68 2 11 2.672 11 3.5V5.5C11 4.3 10.007 4 9.5 4C8.66 4 8 4.691 8 5.52V14"
			stroke="black"
			stroke-width="2"
			stroke-linecap="round"
			stroke-linejoin="round"
		/>
		<path
			class="oi-vector"
			d="M11 5.5V11"
			stroke="black"
			stroke-width="2"
			stroke-linecap="round"
			stroke-linejoin="round"
		/>
		<path
			class="oi-vector"
			d="M14 5.5V11"
			stroke="black"
			stroke-width="2"
			stroke-linecap="round"
			stroke-linejoin="round"
		/>
		<path
			class="oi-vector"
			d="M17 5.5V11"
			stroke="black"
			stroke-width="2"
			stroke-linecap="round"
			stroke-linejoin="round"
		/>
		<path
			class="oi-vector"
			d="M20 16C20 20 16.866 22 13 22C9.134 22 7.804 21 4.804 16L3.233 13.395C2.697 12.527 3.126 11.401 4.114 11.081C4.43707 10.9755 4.78477 10.9718 5.10998 11.0706C5.43518 11.1693 5.72216 11.3657 5.932 11.633L8 14.033"
			stroke="black"
			stroke-width="2"
			stroke-linecap="round"
			stroke-linejoin="round"
		/>
	</g>
</svg>