<!-- ! This file is automatically generated, please don't edit it directly. -->

<svg
	width="24"
	height="24"
	viewBox="0 0 24 24"
	fill="none"
	xmlns="http://www.w3.org/2000/svg"
>
	<g class="oi-headphones">
		<path
			class="oi-vector"
			d="M20.0614 16.7896L19.8026 17.7555C19.3738 19.3559 17.7287 20.3057 16.1283 19.8769L15.1624 19.618L16.9742 12.8566L17.9401 13.1154C19.5405 13.5442 20.4902 15.1892 20.0614 16.7896ZM20.0614 16.7896C20.0614 16.7896 21.1667 15.0001 21 12.0001C20.8334 9.00011 18.9 3.00011 12.5 3.00011L11.4585 3.00011C5.05847 3.00011 3.12513 9.00011 2.95847 12.0001C2.7918 15.0001 3.8971 16.7896 3.8971 16.7896M3.8971 16.7896L4.15592 17.7555C4.58475 19.3559 6.22976 20.3057 7.83015 19.8769L8.79608 19.618L6.98435 12.8566L6.01842 13.1154C4.41802 13.5442 3.46828 15.1892 3.8971 16.7896Z"
			stroke="black"
			stroke-width="2"
			stroke-miterlimit="10"
			stroke-linecap="round"
			stroke-linejoin="round"
		/>
	</g>
</svg>