<!-- ! This file is automatically generated, please don't edit it directly. -->

<svg
	width="24"
	height="24"
	viewBox="0 0 24 24"
	fill="none"
	xmlns="http://www.w3.org/2000/svg"
>
	<g class="oi-image-alt">
		<path
			class="oi-box"
			d="M4.00002 5C4.00002 4.44772 4.44773 4 5.00002 4H19C19.5523 4 20 4.44772 20 5V19C20 19.5523 19.5523 20 19 20H5.00002C4.44773 20 4.00002 19.5523 4.00002 19V5Z"
			stroke="black"
			stroke-width="2"
			stroke-miterlimit="10"
			stroke-linecap="round"
			stroke-linejoin="round"
		/>
		<path
			class="oi-fill"
			d="M13.4 14.6667L8.4 10L6 12.8V17C6 17.5523 6.44772 18 7 18H17C17.5523 18 18 17.5523 18 17V14.6667L16.8 12.3333L13.4 14.6667Z"
			fill="black"
		/>
		<path
			class="oi-mini-dot"
			d="M16.0671 8.14514H16.0791"
			stroke="black"
			stroke-width="2"
			stroke-linecap="round"
		/>
	</g>
</svg>