<!-- ! This file is automatically generated, please don't edit it directly. -->

<svg
	width="24"
	height="24"
	viewBox="0 0 24 24"
	fill="none"
	xmlns="http://www.w3.org/2000/svg"
>
	<g class="oi-joystick" clip-path="url(#clip0_624_29685)">
		<path
			class="oi-vector"
			d="M21.1421 13.0711L12.7124 10.2171C12.2965 10.0763 11.8457 10.0763 11.4297 10.2171L3.00001 13.0711M21.1421 13.0711L12.7124 15.925C12.2965 16.0658 11.8457 16.0658 11.4297 15.925L3.00001 13.0711M21.1421 13.0711L21.1421 18.3539C21.1421 18.7826 20.8689 19.1636 20.4628 19.3011L12.7124 21.925C12.2965 22.0658 11.8457 22.0658 11.4297 21.925L3.67933 19.3011C3.27327 19.1636 3.00001 18.7826 3.00001 18.3539L3.00001 13.0711"
			stroke="black"
			stroke-width="2"
			stroke-linejoin="round"
		/>
		<circle
			class="oi-ellipse"
			cx="12"
			cy="5"
			r="3"
			stroke="black"
			stroke-width="2"
		/>
		<path
			class="oi-line"
			d="M12.0711 12.5V8"
			stroke="black"
			stroke-width="2"
			stroke-linecap="round"
		/>
	</g>
	<defs>
		<clipPath class="clip0_624_29685">
			<rect width="24" height="24" fill="white" />
		</clipPath>
	</defs>
</svg>