<svg
	width="24"
	height="24"
	viewBox="0 0 24 24"
	fill="none"
	xmlns="http://www.w3.org/2000/svg"
>
	<g class="oi-layers-fill">
		<path
			class="oi-box"
			d="M21 12L12 17L3 12"
			stroke="black"
			stroke-width="2"
			stroke-miterlimit="10"
			stroke-linecap="round"
			stroke-linejoin="round"
		/>
		<path
			class="oi-box"
			d="M21 16L12 21L3 16"
			stroke="black"
			stroke-width="2"
			stroke-miterlimit="10"
			stroke-linecap="round"
			stroke-linejoin="round"
		/>
		<path
			class="oi-fill"
			d="M12.4856 2.12584C12.1836 1.95805 11.8164 1.95805 11.5144 2.12584L2.51436 7.12584C2.19689 7.30221 2 7.63683 2 8C2 8.36317 2.19689 8.69779 2.51436 8.87416L11.5144 13.8742C11.8164 14.0419 12.1836 14.0419 12.4856 13.8742L21.4856 8.87416C21.8031 8.69779 22 8.36317 22 8C22 7.63683 21.8031 7.30221 21.4856 7.12584L12.4856 2.12584Z"
			fill="black"
		/>
	</g>
</svg>