<!-- ! This file is automatically generated, please don't edit it directly. -->

<svg
	width="24"
	height="24"
	viewBox="0 0 24 24"
	fill="none"
	xmlns="http://www.w3.org/2000/svg"
>
	<g class="oi-machine-learning-fill">
		<path
			class="oi-fill"
			fill-rule="evenodd"
			clip-rule="evenodd"
			d="M6 8C4.89543 8 4 8.89543 4 10V18C4 19.1046 4.89543 20 6 20H14C15.1046 20 16 19.1046 16 18V10C16 8.89543 15.1046 8 14 8H6ZM9 12C8.44772 12 8 12.4477 8 13V15C8 15.5523 8.44772 16 9 16H11C11.5523 16 12 15.5523 12 15V13C12 12.4477 11.5523 12 11 12H9Z"
			fill="black"
		/>
		<path
			class="oi-fill"
			fill-rule="evenodd"
			clip-rule="evenodd"
			d="M12.3334 17.6666C12.8857 17.6666 13.3334 18.1143 13.3334 18.6666V21C13.3334 21.5522 12.8857 22 12.3334 22C11.7811 22 11.3334 21.5522 11.3334 21V18.6666C11.3334 18.1143 11.7811 17.6666 12.3334 17.6666Z"
			fill="black"
		/>
		<path
			class="oi-fill"
			fill-rule="evenodd"
			clip-rule="evenodd"
			d="M7.66663 17.6666C8.21891 17.6666 8.66663 18.1143 8.66663 18.6666V21C8.66663 21.5522 8.21891 22 7.66663 22C7.11434 22 6.66663 21.5522 6.66663 21V18.6666C6.66663 18.1143 7.11434 17.6666 7.66663 17.6666Z"
			fill="black"
		/>
		<path
			class="oi-fill"
			fill-rule="evenodd"
			clip-rule="evenodd"
			d="M6.33337 16.3334C6.33337 16.8857 5.88566 17.3334 5.33337 17.3334H3.00004C2.44776 17.3334 2.00004 16.8857 2.00004 16.3334C2.00004 15.7811 2.44776 15.3334 3.00004 15.3334H5.33337C5.88566 15.3334 6.33337 15.7811 6.33337 16.3334Z"
			fill="black"
		/>
		<path
			class="oi-fill"
			fill-rule="evenodd"
			clip-rule="evenodd"
			d="M18 16.3334C18 16.8857 17.5523 17.3334 17 17.3334H14.6667C14.1144 17.3334 13.6667 16.8857 13.6667 16.3334C13.6667 15.7811 14.1144 15.3334 14.6667 15.3334H17C17.5523 15.3334 18 15.7811 18 16.3334Z"
			fill="black"
		/>
		<path
			class="oi-fill"
			fill-rule="evenodd"
			clip-rule="evenodd"
			d="M6.33337 11.6666C6.33337 12.2189 5.88566 12.6666 5.33337 12.6666H3.00004C2.44776 12.6666 2.00004 12.2189 2.00004 11.6666C2.00004 11.1143 2.44776 10.6666 3.00004 10.6666H5.33337C5.88566 10.6666 6.33337 11.1143 6.33337 11.6666Z"
			fill="black"
		/>
		<path
			class="oi-fill"
			fill-rule="evenodd"
			clip-rule="evenodd"
			d="M18 11.6666C18 12.2189 17.5523 12.6666 17 12.6666H14.6667C14.1144 12.6666 13.6667 12.2189 13.6667 11.6666C13.6667 11.1143 14.1144 10.6666 14.6667 10.6666H17C17.5523 10.6666 18 11.1143 18 11.6666Z"
			fill="black"
		/>
		<path
			class="oi-fill"
			fill-rule="evenodd"
			clip-rule="evenodd"
			d="M7.66663 6C8.21891 6 8.66663 6.44772 8.66663 7V9.33333C8.66663 9.88562 8.21891 10.3333 7.66663 10.3333C7.11434 10.3333 6.66663 9.88562 6.66663 9.33333V7C6.66663 6.44772 7.11434 6 7.66663 6Z"
			fill="black"
		/>
		<path
			class="oi-fill"
			fill-rule="evenodd"
			clip-rule="evenodd"
			d="M12.3334 6C12.8857 6 13.3334 6.44772 13.3334 7V9.33333C13.3334 9.88562 12.8857 10.3333 12.3334 10.3333C11.7811 10.3333 11.3334 9.88562 11.3334 9.33333V7C11.3334 6.44772 11.7811 6 12.3334 6Z"
			fill="black"
		/>
		<path
			class="oi-fill_10"
			d="M18.5948 3.02589L19 1L19.4052 3.02589C19.5635 3.81762 20.1824 4.43648 20.9741 4.59482L23 5L20.9741 5.40518C20.1824 5.56352 19.5635 6.18239 19.4052 6.97411L19 9L18.5948 6.97411C18.4365 6.18239 17.8176 5.56352 17.0259 5.40518L15 5L17.0259 4.59482C17.8176 4.43648 18.4365 3.81761 18.5948 3.02589Z"
			fill="black"
		/>
	</g>
</svg>