<!-- ! This file is automatically generated, please don't edit it directly. -->

<svg
	width="24"
	height="24"
	viewBox="0 0 24 24"
	fill="none"
	xmlns="http://www.w3.org/2000/svg"
>
	<g class="oi-markets" clip-path="url(#clip0_664_161707)">
		<path
			class="oi-fill"
			d="M10.1428 8.30604C8.98231 7.0513 11.2262 4.00589 12.5 2.00002L17 3.5C17.7075 7.12765 11.5934 9.87447 10.1428 8.30604Z"
			fill="black"
		/>
		<path
			class="oi-fill"
			d="M12.4527 18.2848C12.7868 18.9242 12.7382 20.0676 11.9591 21.1163C7.18064 25.0981 -0.311907 13.5015 2.50002 8.50022C3.50927 7.3004 4.87502 6.41255 6.52158 7.13375C8.01405 7.78737 6.59707 8.9023 7.24594 10.2183C7.89448 11.5338 10.6355 10.4516 11.0901 12.2209C11.5442 13.9902 8.49255 14.951 8.79744 16.1892C9.10209 17.4283 11.9509 17.3253 12.4527 18.2848Z"
			fill="black"
		/>
		<path
			class="oi-vector"
			d="M12 22C6.477 22 2 17.523 2 12C2 6.477 6.477 2 12 2C14.9868 2 17.6677 3.30932 19.5 5.38532"
			stroke="black"
			stroke-width="2"
		/>
		<path
			class="oi-line"
			d="M18 9V21"
			stroke="black"
			stroke-width="2"
			stroke-linecap="round"
			stroke-linejoin="round"
		/>
		<path
			class="oi-vector"
			d="M20.7599 11.7949C18.4869 10.5754 15.8219 10.6447 15.2207 12.8078C15 14.1225 16.4752 14.5561 18.2662 14.9782C21.0368 15.6311 21.1618 16.4539 20.9144 17.4379C20.5877 18.7379 18.1338 19.8564 15 18.0787"
			stroke="black"
			stroke-width="2"
			stroke-linecap="round"
		/>
	</g>
	<defs>
		<clipPath class="clip0_664_161707">
			<rect width="24" height="24" fill="white" />
		</clipPath>
	</defs>
</svg>