<!-- ! This file is automatically generated, please don't edit it directly. -->

<svg
	width="24"
	height="24"
	viewBox="0 0 24 24"
	fill="none"
	xmlns="http://www.w3.org/2000/svg"
>
	<g class="oi-medal">
		<path
			class="oi-fill"
			fill-rule="evenodd"
			clip-rule="evenodd"
			d="M8.49318 3.25L10.7366 8.7899L10.9305 8.31122L8.88087 3.25H8.49318ZM11.8155 11.4541L12.0093 11.9328L12.2032 11.4541L12.0093 10.9754L11.8155 11.4541ZM8.83097 13.4957C9.67346 12.8007 10.7463 12.3844 11.9146 12.3844C13.2251 12.3844 14.4155 12.9082 15.2954 13.7617L14.9362 12.8747L14.3609 11.4541L17.6577 3.31302C18.0571 2.32688 17.3313 1.25 16.2674 1.25H14.8008C14.1898 1.25 13.6399 1.62063 13.4105 2.18698L12.0093 5.64704L10.6082 2.18698C10.3788 1.62063 9.82885 1.25 9.21783 1.25H7.75126C6.68733 1.25 5.96159 2.32688 6.36093 3.31302L9.65773 11.4541L9.08245 12.8747L8.83097 13.4957ZM15.1378 3.25L13.0882 8.31122L13.2821 8.7899L15.5255 3.25H15.1378Z"
			fill="black"
		/>
		<path
			class="oi-vector"
			d="M11.5547 15.3479C11.7044 14.8873 12.3561 14.8873 12.5058 15.3479L12.7038 15.9573C12.7708 16.1634 12.9627 16.3028 13.1793 16.3028H13.8201C14.3045 16.3028 14.5059 16.9226 14.114 17.2073L13.5956 17.584C13.4204 17.7113 13.347 17.937 13.414 18.143L13.612 18.7524C13.7617 19.2131 13.2344 19.5962 12.8426 19.3115L12.3242 18.9348C12.1489 18.8075 11.9116 18.8075 11.7364 18.9348L11.218 19.3115C10.8261 19.5962 10.2989 19.2131 10.4486 18.7524L10.6466 18.143C10.7135 17.937 10.6402 17.7113 10.4649 17.584L9.94652 17.2073C9.55467 16.9226 9.75606 16.3028 10.2404 16.3028H10.8812C11.0978 16.3028 11.2898 16.1634 11.3567 15.9573L11.5547 15.3479Z"
			stroke="black"
			stroke-width="2"
		/>
		<ellipse
			class="oi-ellipse"
			cx="11.9145"
			cy="17.3844"
			rx="4.90524"
			ry="5"
			stroke="black"
			stroke-width="2"
		/>
	</g>
</svg>