<!-- ! This file is automatically generated, please don't edit it directly. -->

<svg
	width="24"
	height="24"
	viewBox="0 0 24 24"
	fill="none"
	xmlns="http://www.w3.org/2000/svg"
>
	<g class="oi-mention[at]">
		<path
			class="oi-vector"
			d="M15.231 12.0001C15.0023 14.608 13.1922 16.091 11.1376 16.091C9.08299 16.091 7.71546 14.2593 7.91315 12.0001C8.11083 9.74088 9.79953 7.90918 11.8541 7.90918C13.9087 7.90918 15.4282 9.75009 15.231 12.0001Z"
			stroke="black"
			stroke-width="2"
			stroke-linecap="round"
			stroke-linejoin="round"
		/>
		<path
			class="oi-vector"
			d="M15.2196 20.2585C13.7682 20.8722 12.8169 21 11.1907 21C6.2511 21 2.60233 16.9705 3.0348 12C3.46726 7.02955 7.8275 3 12.7671 3C18.3312 3 21.39 6.66801 20.96 11.5771C20.6394 15.242 18.3119 16.298 17.0932 16.0807C15.9468 15.8761 15.0005 14.8319 15.1754 12.8335L15.6063 7.91165"
			stroke="black"
			stroke-width="2"
			stroke-linecap="round"
			stroke-linejoin="round"
		/>
	</g>
</svg>