<!-- ! This file is automatically generated, please don't edit it directly. -->

<svg
	width="24"
	height="24"
	viewBox="0 0 24 24"
	fill="none"
	xmlns="http://www.w3.org/2000/svg"
>
	<g class="oi-orders">
		<path
			class="oi-fill"
			fill-rule="evenodd"
			clip-rule="evenodd"
			d="M8 2C6.89543 2 6 2.89543 6 4V6H8V4H20V18H17V20H20C21.1046 20 22 19.1046 22 18V4C22 2.89543 21.1046 2 20 2H8Z"
			fill="black"
		/>
		<path
			class="oi-box"
			d="M3 7C3 6.44772 3.44772 6 4 6H16C16.5523 6 17 6.44772 17 7V21C17 21.5523 16.5523 22 16 22H4C3.44772 22 3 21.5523 3 21V7Z"
			stroke="black"
			stroke-width="2"
			stroke-miterlimit="10"
			stroke-linecap="round"
			stroke-linejoin="round"
		/>
		<path
			class="oi-line"
			d="M13 12L7 12"
			stroke="black"
			stroke-width="2"
			stroke-miterlimit="10"
			stroke-linecap="round"
			stroke-linejoin="round"
		/>
		<path
			class="oi-line"
			d="M13 18L7 18"
			stroke="black"
			stroke-width="2"
			stroke-miterlimit="10"
			stroke-linecap="round"
			stroke-linejoin="round"
		/>
		<path
			class="oi-line"
			d="M10 15L10 9"
			stroke="black"
			stroke-width="2"
			stroke-miterlimit="10"
			stroke-linecap="round"
			stroke-linejoin="round"
		/>
	</g>
</svg>