<!-- ! This file is automatically generated, please don't edit it directly. -->

<svg
	width="24"
	height="24"
	viewBox="0 0 24 24"
	fill="none"
	xmlns="http://www.w3.org/2000/svg"
>
	<g class="oi-pig">
		<path
			class="oi-vector"
			d="M3.43163 10.0138C2.68891 9.78329 1.33665 8.90227 1.86936 7.22218M22.2518 10.0893V14.4348L20.1066 15.3149C19.5199 16.2133 18.1704 18.0211 17.4663 18.0651L17.7964 20.5404H13.6159L13.0109 19.5503C12.0208 19.642 9.89753 19.6493 9.32547 18.9452L8.6104 20.5404H4.31996L4.98002 16.91C2.51025 13.6783 3.02114 10.966 3.5853 10.0138C6.12592 4.76864 11.8491 4.70376 14.3932 5.32696C15.7864 3.29856 18.7826 3.32076 20.1066 3.58541L18.6764 7.44902C18.8965 7.53703 19.7216 8.84251 20.1066 9.48425L22.2518 10.0893Z"
			stroke="black"
			stroke-width="2"
			stroke-miterlimit="10"
			stroke-linecap="round"
			stroke-linejoin="round"
		/>
		<path
			class="oi-mini-dot"
			d="M16.6758 9.95245H16.6679"
			stroke="black"
			stroke-width="2"
			stroke-linecap="round"
			stroke-linejoin="round"
		/>
	</g>
</svg>