<!-- ! This file is automatically generated, please don't edit it directly. -->

<svg
	width="24"
	height="24"
	viewBox="0 0 24 24"
	fill="none"
	xmlns="http://www.w3.org/2000/svg"
>
	<g class="oi-pin-alt-2-fill">
		<path
			class="oi-vector"
			d="M8 15L3 21L9 16L8 15Z"
			stroke="black"
			stroke-width="2"
			stroke-miterlimit="10"
			stroke-linecap="round"
			stroke-linejoin="round"
		/>
		<path
			class="oi-fill"
			fill-rule="evenodd"
			clip-rule="evenodd"
			d="M14.2929 3.29289C14.6834 2.90237 15.3166 2.90237 15.7071 3.29289L20.7071 8.29289C21.0977 8.68342 21.0977 9.31658 20.7071 9.70711L15.4142 15L9.00001 8.5858L14.2929 3.29289ZM6.97166 9.38587L3.80391 10.0194C3.44228 10.0917 3.1498 10.3572 3.04293 10.7102C2.93606 11.0632 3.03214 11.4463 3.29292 11.7071L12.2929 20.7071C12.5537 20.9679 12.9368 21.064 13.2898 20.9571C13.6428 20.8502 13.9083 20.5577 13.9806 20.1961L14.6142 17.0284L6.97166 9.38587Z"
			fill="black"
		/>
		<path
			class="oi-line"
			d="M14 3L21 10"
			stroke="black"
			stroke-width="2"
			stroke-linecap="round"
			stroke-linejoin="round"
		/>
	</g>
</svg>