<!-- ! This file is automatically generated, please don't edit it directly. -->

<svg
	width="24"
	height="24"
	viewBox="0 0 24 24"
	fill="none"
	xmlns="http://www.w3.org/2000/svg"
>
	<g class="oi-pin-alt-2-fill">
		<path
			class="oi-vector"
			d="M8 15L3 21L9 16L8 15Z"
			stroke="black"
			stroke-width="2"
			stroke-miterlimit="10"
			stroke-linecap="round"
			stroke-linejoin="round"
		/>
		<path
			class="oi-fill"
			fill-rule="evenodd"
			clip-rule="evenodd"
			d="M14.7071 2.29289C14.3166 1.90237 13.6834 1.90237 13.2929 2.29289C12.9024 2.68342 12.9024 3.31658 13.2929 3.70711L13.5858 4.00001L9.00001 8.5858L15.4142 15L20 10.4142L20.2929 10.7071C20.6834 11.0976 21.3166 11.0976 21.7071 10.7071C22.0976 10.3166 22.0976 9.68342 21.7071 9.29289L20.7113 8.29711C20.7099 8.2957 20.7085 8.2943 20.7071 8.29289L15.7071 3.29289C15.7057 3.29146 15.7043 3.29003 15.7028 3.2886L14.7071 2.29289ZM3.80391 10.0194L6.97166 9.38587L14.6142 17.0284L13.9806 20.1961C13.9083 20.5577 13.6428 20.8502 13.2898 20.9571C12.9368 21.064 12.5537 20.9679 12.2929 20.7071L3.29292 11.7071C3.03214 11.4463 2.93606 11.0632 3.04293 10.7102C3.1498 10.3572 3.44228 10.0917 3.80391 10.0194Z"
			fill="black"
		/>
	</g>
</svg>