<!-- ! This file is automatically generated, please don't edit it directly. -->

<svg
	width="24"
	height="24"
	viewBox="0 0 24 24"
	fill="none"
	xmlns="http://www.w3.org/2000/svg"
>
	<g class="oi-previous-fill" clip-path="url(#clip0_642_11464)">
		<path
			class="oi-fill"
			fill-rule="evenodd"
			clip-rule="evenodd"
			d="M6 6C6.55228 6 7 6.44772 7 7V17C7 17.5523 6.55228 18 6 18C5.44772 18 5 17.5523 5 17V7C5 6.44772 5.44772 6 6 6Z"
			fill="black"
		/>
		<g class="oi-fill">
			<path
				d="M19 7.76615C19 6.21156 17.304 5.25134 15.971 6.05116L8.91461 10.285C7.61994 11.0618 7.61993 12.9381 8.91461 13.7149L15.971 17.9488C17.304 18.7486 19 17.7884 19 16.2338V7.76615Z"
				fill="black"
			/>
			<path
				d="M101 7.76615C101 6.21156 102.696 5.25134 104.029 6.05116L111.085 10.285C112.38 11.0618 112.38 12.9381 111.085 13.7149L104.029 17.9488C102.696 18.7486 101 17.7884 101 16.2338V7.76615Z"
				fill="black"
			/>
		</g>
	</g>
	<defs>
		<clipPath class="clip0_642_11464">
			<rect width="24" height="24" fill="white" />
		</clipPath>
	</defs>
</svg>