<!-- ! This file is automatically generated, please don't edit it directly. -->

<svg
	width="24"
	height="24"
	viewBox="0 0 24 24"
	fill="none"
	xmlns="http://www.w3.org/2000/svg"
>
	<g class="oi-prism-alt" clip-path="url(#clip0_624_30026)">
		<path
			class="oi-vector"
			d="M20.4339 8.95123C17.5978 8.27592 14.695 8.65415 12.6566 9.18936M15.0311 3.60716C12.6918 5.47415 11.134 8.07964 10.2613 10.0525M13.3916 20.9105C14.6759 18.2294 14.976 15.2471 14.9308 13.0913M3.62083 11.221C5.87326 13.0992 8.63363 14.0639 10.6911 14.5002M6.20177 18.4468C9.09384 17.8202 11.6016 16.1822 13.2288 14.8015M7.58483 4.58392C7.52995 7.30581 8.28549 10.0217 9.46167 12.436M19.6881 16.6968C18.4434 13.9388 16.317 11.799 14.6396 10.4876M9.46167 12.436C9.81377 13.1566 10.2019 13.8678 10.6911 14.5002M9.46167 12.436C9.22662 11.9549 10.0802 10.4617 10.2613 10.0525M10.6911 14.5002C11.5267 14.6774 12.3735 14.8024 13.2288 14.8015M13.2288 14.8015C13.8403 14.2826 14.4356 13.7293 14.9308 13.0913M10.2613 10.0525C11.0272 9.67471 11.8345 9.40522 12.6566 9.18936M14.9308 13.0913C14.9125 12.2167 14.8536 11.335 14.6396 10.4876M14.6396 10.4876C14.0162 10.0002 13.3644 9.53964 12.6566 9.18936"
			stroke="black"
			stroke-width="2"
			stroke-linecap="round"
		/>
		<circle
			class="oi-ellipse"
			cx="12"
			cy="12"
			r="9"
			stroke="black"
			stroke-width="2"
		/>
	</g>
	<defs>
		<clipPath class="clip0_624_30026">
			<rect width="24" height="24" fill="white" />
		</clipPath>
	</defs>
</svg>