<!-- ! This file is automatically generated, please don't edit it directly. -->

<svg
	width="24"
	height="24"
	viewBox="0 0 24 24"
	fill="none"
	xmlns="http://www.w3.org/2000/svg"
>
	<g class="oi-rabbit">
		<path
			class="oi-mini-dot"
			d="M9.5 15.25H9.512"
			stroke="black"
			stroke-width="2"
			stroke-linecap="round"
		/>
		<path
			class="oi-mini-dot"
			d="M14.5 15.25H14.512"
			stroke="black"
			stroke-width="2"
			stroke-linecap="round"
		/>
		<path
			class="oi-vector"
			d="M13.5 18.75L12 19.9978L10.5 18.75"
			stroke="black"
			stroke-width="2"
			stroke-linecap="round"
			stroke-linejoin="round"
		/>
		<path
			class="oi-vector"
			d="M13.74 9.25594C14.265 6.78656 15.6563 1.5 17.9006 1.5C20.5463 1.5 19.6134 7.59938 17.2528 12.0938"
			stroke="black"
			stroke-width="2"
			stroke-linecap="round"
			stroke-linejoin="round"
		/>
		<path
			class="oi-vector"
			d="M10.26 9.25594C9.73501 6.78656 8.34376 1.5 6.09938 1.5C3.45376 1.5 4.38657 7.59938 6.75001 12.0938"
			stroke="black"
			stroke-width="2"
			stroke-linecap="round"
			stroke-linejoin="round"
		/>
		<path
			class="oi-vector"
			d="M17.9728 14.4206C18.4309 14.7921 18.8039 15.2575 19.0668 15.7854C19.3298 16.3133 19.4764 16.8914 19.497 17.4808C19.5175 18.0702 19.4114 18.6571 19.1859 19.202C18.9603 19.7469 18.6205 20.2371 18.1895 20.6396C17.7584 21.042 17.246 21.3474 16.6869 21.535C16.1278 21.7227 15.535 21.7882 14.9484 21.7273C14.3618 21.6664 13.7951 21.4804 13.2865 21.1819C12.7779 20.8834 12.3392 20.4793 12 19.9969C11.6608 20.4793 11.2221 20.8834 10.7135 21.1819C10.2049 21.4804 9.63818 21.6664 9.05159 21.7273C8.465 21.7882 7.87217 21.7227 7.31307 21.535C6.75397 21.3474 6.24161 21.042 5.81053 20.6396C5.37946 20.2371 5.03969 19.7469 4.81414 19.202C4.58859 18.6571 4.4825 18.0702 4.50304 17.4808C4.52357 16.8914 4.67024 16.3133 4.93316 15.7854C5.19609 15.2575 5.56915 14.7921 6.02719 14.4206C6.16911 12.9349 6.8597 11.5553 7.96411 10.5514C9.06853 9.54743 10.5075 8.99115 12 8.99115C13.4925 8.99115 14.9315 9.54743 16.0359 10.5514C17.1403 11.5553 17.8309 12.9349 17.9728 14.4206Z"
			stroke="black"
			stroke-width="2"
			stroke-linecap="round"
			stroke-linejoin="round"
		/>
	</g>
</svg>