<svg
	width="24"
	height="24"
	viewBox="0 0 24 24"
	fill="none"
	xmlns="http://www.w3.org/2000/svg"
>
	<g class="oi-settings-fill">
		<path
			class="oi-fill"
			fill-rule="evenodd"
			clip-rule="evenodd"
			d="M13.899 3.28646C13.42 1.29009 10.58 1.29009 10.101 3.28646C9.79141 4.57681 8.3127 5.18931 7.18138 4.49581C5.43105 3.42285 3.42284 5.43106 4.49579 7.18139C5.18929 8.31272 4.57679 9.79143 3.28644 10.101C1.29008 10.58 1.29008 13.42 3.28644 13.899C4.57679 14.2086 5.18929 15.6873 4.49579 16.8186C3.42284 18.569 5.43105 20.5772 7.18138 19.5042C8.3127 18.8107 9.79141 19.4232 10.101 20.7136C10.58 22.7099 13.42 22.7099 13.899 20.7136C14.2086 19.4232 15.6873 18.8107 16.8186 19.5042C18.5689 20.5772 20.5772 18.569 19.5042 16.8186C18.8107 15.6873 19.4232 14.2086 20.7136 13.899C22.7099 13.42 22.7099 10.58 20.7136 10.101C19.4232 9.79143 18.8107 8.31272 19.5042 7.18139C20.5772 5.43106 18.5689 3.42285 16.8186 4.4958C15.6873 5.18931 14.2086 4.57681 13.899 3.28646ZM10.5858 10.5858C10.9609 10.2107 11.4696 10 12 10C12.5304 10 13.0391 10.2107 13.4142 10.5858C13.7893 10.9609 14 11.4696 14 12C14 12.5304 13.7893 13.0392 13.4142 13.4142C13.0391 13.7893 12.5304 14 12 14C11.4696 14 10.9609 13.7893 10.5858 13.4142C10.2107 13.0392 10 12.5304 10 12C10 11.4696 10.2107 10.9609 10.5858 10.5858ZM12 8.00001C10.9391 8.00001 9.92172 8.42144 9.17157 9.17159C8.42143 9.92173 8 10.9391 8 12C8 13.0609 8.42143 14.0783 9.17157 14.8284C9.92172 15.5786 10.9391 16 12 16C13.0609 16 14.0783 15.5786 14.8284 14.8284C15.5786 14.0783 16 13.0609 16 12C16 10.9391 15.5786 9.92173 14.8284 9.17159C14.0783 8.42144 13.0609 8.00001 12 8.00001Z"
			fill="black"
		/>
	</g>
</svg>