<!-- ! This file is automatically generated, please don't edit it directly. -->

<svg
	width="24"
	height="24"
	viewBox="0 0 24 24"
	fill="none"
	xmlns="http://www.w3.org/2000/svg"
>
	<g class="oi-short-answer">
		<path
			class="oi-box"
			d="M18 7H6C4.34315 7 3 8.34315 3 10V14C3 15.6569 4.34315 17 6 17H18C19.6569 17 21 15.6569 21 14V10C21 8.34315 19.6569 7 18 7Z"
			stroke="black"
			stroke-width="2"
			stroke-miterlimit="10"
			stroke-linecap="round"
			stroke-linejoin="round"
		/>
		<path
			class="oi-vector"
			d="M5.75732 13.8466L6.12049 12.8631M8.99965 13.8466L8.58351 12.8631M8.58351 12.8631L7.32663 9.89225C7.30571 9.8428 7.23506 9.84444 7.21646 9.89482L6.12049 12.8631M8.58351 12.8631H6.12049"
			stroke="black"
			stroke-width="1.35533"
			stroke-linecap="round"
		/>
		<path
			class="oi-vector"
			d="M11.0703 11.7342V9.83948C11.4579 9.83948 12.6495 9.83948 13.0081 9.83948C13.6772 9.83948 14.0199 10.2671 14.0199 10.8142C14.0199 11.3175 13.4813 11.6257 13.0427 11.7005C12.92 11.7214 12.8069 11.7403 12.6814 11.7342M11.0703 11.7342V13.8156H12.8605C13.3474 13.8344 14.0199 13.6063 14.0199 12.8378C14.0199 12.0693 13.3034 11.7643 12.6814 11.7342M11.0703 11.7342H12.6814"
			stroke="black"
			stroke-width="1.35533"
			stroke-linecap="round"
			stroke-linejoin="round"
		/>
	</g>
</svg>