<!-- ! This file is automatically generated, please don't edit it directly. -->

<svg
	width="24"
	height="24"
	viewBox="0 0 24 24"
	fill="none"
	xmlns="http://www.w3.org/2000/svg"
>
	<g class="oi-sidebar-fill-right">
		<path
			class="oi-fill"
			d="M13 3C11.8954 3 11 3.89543 11 5V19C11 20.1046 11.8954 21 13 21H18C19.1046 21 20 20.1046 20 19V5C20 3.89543 19.1046 3 18 3H13Z"
			fill="black"
		/>
		<path
			class="oi-box"
			d="M20 3H4C3.44772 3 3 3.44772 3 4V20C3 20.5523 3.44772 21 4 21H20C20.5523 21 21 20.5523 21 20V4C21 3.44772 20.5523 3 20 3Z"
			stroke="black"
			stroke-width="2"
			stroke-miterlimit="10"
			stroke-linecap="round"
			stroke-linejoin="round"
		/>
	</g>
</svg>