<!-- ! This file is automatically generated, please don't edit it directly. -->

<svg
	width="24"
	height="24"
	viewBox="0 0 24 24"
	fill="none"
	xmlns="http://www.w3.org/2000/svg"
>
	<g class="oi-signal">
		<path
			class="oi-ellipse"
			d="M12 14C13.1046 14 14 13.1046 14 12C14 10.8954 13.1046 10 12 10C10.8954 10 9.99999 10.8954 9.99999 12C9.99999 13.1046 10.8954 14 12 14Z"
			stroke="black"
			stroke-width="2"
			stroke-linecap="round"
			stroke-linejoin="round"
		/>
		<path
			class="oi-vector"
			d="M16.24 7.75993C16.7979 8.31717 17.2404 8.9789 17.5424 9.70729C17.8443 10.4357 17.9997 11.2164 17.9997 12.0049C17.9997 12.7934 17.8443 13.5742 17.5424 14.3026C17.2404 15.031 16.7979 15.6927 16.24 16.2499M7.75999 16.2399C7.20213 15.6827 6.75958 15.021 6.45763 14.2926C6.15569 13.5642 6.00027 12.7834 6.00027 11.9949C6.00027 11.2064 6.15569 10.4257 6.45763 9.69729C6.75958 8.9689 7.20213 8.30717 7.75999 7.74993M19.07 4.92993C20.9447 6.80521 21.9979 9.34829 21.9979 11.9999C21.9979 14.6516 20.9447 17.1947 19.07 19.0699M4.92999 19.0699C3.05528 17.1947 2.00213 14.6516 2.00213 11.9999C2.00213 9.34829 3.05528 6.80521 4.92999 4.92993"
			stroke="black"
			stroke-width="2"
			stroke-linecap="round"
			stroke-linejoin="round"
		/>
	</g>
</svg>