<!-- ! This file is automatically generated, please don't edit it directly. -->

<svg
	width="24"
	height="24"
	viewBox="0 0 24 24"
	fill="none"
	xmlns="http://www.w3.org/2000/svg"
>
	<g class="oi-strikethrough">
		<path
			class="oi-fill"
			fill-rule="evenodd"
			clip-rule="evenodd"
			d="M16.9382 5.52337C14.9444 4.38129 12.6966 3.79095 10.7344 4.0673C8.69955 4.35388 6.99968 5.58523 6.39399 7.91163L6.38154 7.95945L6.37387 8.00827C6.26012 8.73171 6.34769 9.40245 6.64486 9.99998H9.51567C9.38331 9.93475 9.25965 9.86716 9.14503 9.79666C8.77604 9.56974 8.56629 9.35038 8.45408 9.14477C8.35497 8.96317 8.29419 8.72461 8.34273 8.36578C8.73169 6.94021 9.70142 6.23252 11.0133 6.04776C12.413 5.85063 14.2121 6.2667 15.9441 7.25882C16.4234 7.53333 17.0344 7.36737 17.3089 6.88814C17.5834 6.40891 17.4175 5.79788 16.9382 5.52337ZM17.5946 14H14.9776C15.2768 14.1855 15.4707 14.3604 15.5949 14.5173C15.8669 14.8611 15.906 15.2516 15.721 16.0372C15.5659 16.6961 14.8138 17.5433 13.3536 17.871C11.9351 18.1894 9.90736 17.9794 7.51803 16.5324C7.04563 16.2463 6.43074 16.3973 6.14464 16.8697C5.85854 17.3421 6.00956 17.957 6.48196 18.2431C9.22922 19.9069 11.7809 20.2738 13.7916 19.8225C15.7605 19.3805 17.2873 18.1116 17.6678 16.4955C17.8403 15.7629 17.9631 14.8749 17.5946 14Z"
			fill="black"
		/>
		<path
			class="oi-line"
			d="M5 12H19"
			stroke="black"
			stroke-width="2"
			stroke-miterlimit="10"
			stroke-linecap="round"
			stroke-linejoin="round"
		/>
	</g>
</svg>