<svg
	width="24"
	height="24"
	viewBox="0 0 24 24"
	fill="none"
	xmlns="http://www.w3.org/2000/svg"
>
	<g class="oi-telescope">
		<path
			class="oi-vector"
			d="M7 21L13 13L21 21"
			stroke="black"
			stroke-width="2"
			stroke-linecap="round"
			stroke-linejoin="round"
		/>
		<path
			class="oi-vector"
			d="M5.228 7.30306L18.76 2.24306C18.9517 2.17152 19.1607 2.16049 19.3588 2.21146C19.5569 2.26242 19.7346 2.37292 19.868 2.52806L20.058 2.74806C21.3108 4.20059 22 6.0549 22 7.97306V8.58906C22.0001 8.79287 21.9378 8.99183 21.8217 9.15929C21.7055 9.32676 21.5409 9.45473 21.35 9.52606L7.814 14.5861L5.228 7.30306Z"
			stroke="black"
			stroke-width="2"
			stroke-linecap="round"
			stroke-linejoin="round"
		/>
		<path
			class="oi-vector"
			d="M2.66 11.371C2.48414 10.8752 2.51075 10.33 2.73405 9.85362C2.95736 9.37725 3.35938 9.00805 3.853 8.82603L5.547 8.20203L7.491 13.675L5.851 14.287C5.60232 14.3799 5.33764 14.4224 5.07237 14.412C4.80711 14.4016 4.54658 14.3384 4.30597 14.2263C4.06536 14.1141 3.84948 13.9552 3.67093 13.7587C3.49238 13.5623 3.35473 13.3322 3.266 13.082L2.66 11.371Z"
			stroke="black"
			stroke-width="2"
			stroke-linecap="round"
			stroke-linejoin="round"
		/>
		<path
			class="oi-vector"
			d="M13 13V22"
			stroke="black"
			stroke-width="2"
			stroke-linecap="round"
			stroke-linejoin="round"
		/>
	</g>
</svg>