<svg
	width="24"
	height="24"
	viewBox="0 0 24 24"
	fill="none"
	xmlns="http://www.w3.org/2000/svg"
>
	<g class="oi-temperature-fill">
		<path
			class="oi-fill"
			fill-rule="evenodd"
			clip-rule="evenodd"
			d="M12 2C10.3431 2 9 3.34315 9 5L9.05801 12.9569C7.81208 13.865 7 15.3371 7 17C7 19.7614 9.23858 22 12 22C14.7614 22 17 19.7614 17 17C17 15.3371 16.1879 13.865 14.942 12.9569L15 5.00729V5C15 3.34315 13.6569 2 12 2ZM13 7C13 6.44772 12.5523 6 12 6C11.4477 6 11 6.44772 11 7V8C11 8.55228 11.4477 9 12 9C12.5523 9 13 8.55228 13 8V7Z"
			fill="black"
		/>
	</g>
</svg>