<!-- ! This file is automatically generated, please don't edit it directly. -->

<svg
	width="24"
	height="24"
	viewBox="0 0 24 24"
	fill="none"
	xmlns="http://www.w3.org/2000/svg"
>
	<g class="oi-trademark-registered">
		<path
			class="oi-ellipse"
			d="M12 21C16.9706 21 21 16.9706 21 12C21 7.02944 16.9706 3 12 3C7.02944 3 3 7.02944 3 12C3 16.9706 7.02944 21 12 21Z"
			stroke="black"
			stroke-width="2"
			stroke-linecap="round"
			stroke-linejoin="round"
		/>
		<path
			class="oi-vector"
			d="M9 16.0882V11.8543M9 11.8543V8C9.78839 8 12.2123 8 12.9419 8C14.303 8 15 8.86997 15 9.98268C15 11.0067 13.9045 11.6336 13.0123 11.7857C12.7626 11.8282 12.1825 11.8666 11.9273 11.8543M9 11.8543H11.9273M11.9273 11.8543L14.4565 16.0882"
			stroke="black"
			stroke-width="2"
			stroke-miterlimit="2.16568"
			stroke-linecap="round"
			stroke-linejoin="round"
		/>
	</g>
</svg>