<!-- ! This file is automatically generated, please don't edit it directly. -->

<svg
	width="24"
	height="24"
	viewBox="0 0 24 24"
	fill="none"
	xmlns="http://www.w3.org/2000/svg"
>
	<g class="oi-train-alt-fill">
		<path
			class="oi-fill"
			fill-rule="evenodd"
			clip-rule="evenodd"
			d="M3 5C3 3.34315 4.34315 2 6 2H18C19.6569 2 21 3.34315 21 5V12V17C21 18.525 19.8622 19.7842 18.3892 19.975L18.7071 20.2929C19.0976 20.6834 19.0976 21.3166 18.7071 21.7071C18.3166 22.0976 17.6834 22.0976 17.2929 21.7071L15.5858 20H8.41421L6.70711 21.7071C6.31658 22.0976 5.68342 22.0976 5.29289 21.7071C4.90237 21.3166 4.90237 20.6834 5.29289 20.2929L5.6108 19.975C4.13781 19.7842 3 18.525 3 17V12V5ZM5 6V11H11L11 6H5ZM13 6L13 11H19V6H13ZM6.5 15.5C6.5 14.6716 7.17157 14 8 14H8.012C8.84043 14 9.512 14.6716 9.512 15.5C9.512 16.3284 8.84043 17 8.012 17H8C7.17157 17 6.5 16.3284 6.5 15.5ZM14.5 15.5C14.5 14.6716 15.1716 14 16 14H16.012C16.8404 14 17.512 14.6716 17.512 15.5C17.512 16.3284 16.8404 17 16.012 17H16C15.1716 17 14.5 16.3284 14.5 15.5Z"
			fill="black"
		/>
	</g>
</svg>