<!-- ! This file is automatically generated, please don't edit it directly. -->

<svg
	width="24"
	height="24"
	viewBox="0 0 24 24"
	fill="none"
	xmlns="http://www.w3.org/2000/svg"
>
	<g class="oi-train">
		<path
			class="oi-line"
			d="M6 19L5 21"
			stroke="black"
			stroke-width="2"
			stroke-linecap="round"
			stroke-linejoin="round"
		/>
		<path
			class="oi-line"
			d="M18 19L19 21"
			stroke="black"
			stroke-width="2"
			stroke-linecap="round"
			stroke-linejoin="round"
		/>
		<path
			class="oi-vector"
			d="M4.5155 8C6.13001 10.412 8.87957 12.0001 12 12.0001C15.1205 12.0001 17.8701 10.412 19.4846 8"
			stroke="black"
			stroke-width="2"
			stroke-linecap="round"
			stroke-linejoin="round"
		/>
		<path
			class="oi-box"
			d="M15.4688 3H8.53111C6.51381 3 4.81221 4.50215 4.562 6.50386L3.562 14.5039C3.26357 16.8913 5.12511 19 7.53111 19H16.4688C18.8748 19 20.7364 16.8913 20.438 14.5039L19.438 6.50386C19.1877 4.50215 17.4861 3 15.4688 3Z"
			stroke="black"
			stroke-width="2"
			stroke-miterlimit="10"
			stroke-linecap="round"
			stroke-linejoin="round"
		/>
		<path
			class="oi-medium-dot"
			d="M8 15H8.012"
			stroke="black"
			stroke-width="3"
			stroke-linecap="round"
		/>
		<path
			class="oi-medium-dot"
			d="M16 15H16.012"
			stroke="black"
			stroke-width="3"
			stroke-linecap="round"
		/>
	</g>
</svg>