<!-- ! This file is automatically generated, please don't edit it directly. -->

<svg
	width="24"
	height="24"
	viewBox="0 0 24 24"
	fill="none"
	xmlns="http://www.w3.org/2000/svg"
>
	<g class="oi-tulip">
		<path
			class="oi-vector"
			d="M12 13.5V20.5M12 20.36C12 20.36 12.0627 20.5 12.14 20.5H14.14C15.9957 20.5 17.5 18.9957 17.5 17.14C17.5 17.0627 17.4373 17 17.36 17H15.36C13.5043 17 12 20.36 12 20.36ZM12 20.36C12 20.36 11.9373 20.5 11.86 20.5H9.86C8.00432 20.5 6.5 18.9957 6.5 17.14C6.5 17.0627 6.56268 17 6.64 17H8.64C10.4957 17 12 20.36 12 20.36Z"
			stroke="black"
			stroke-width="2"
			stroke-linecap="round"
			stroke-linejoin="round"
		/>
		<path
			class="oi-vector"
			d="M12 13.5C14.7614 13.5 17 11.8211 17 9.75V3.5L12 6.09615L7 3.5V9.75C7 11.8211 9.23858 13.5 12 13.5Z"
			stroke="black"
			stroke-width="2"
		/>
	</g>
</svg>