<!-- ! This file is automatically generated, please don't edit it directly. -->

<svg
	width="24"
	height="24"
	viewBox="0 0 24 24"
	fill="none"
	xmlns="http://www.w3.org/2000/svg"
>
	<g class="oi-volume-1-fill">
		<path
			class="oi-vector"
			d="M15.5399 8.45996C16.4772 9.3976 17.0038 10.6691 17.0038 11.995C17.0038 13.3208 16.4772 14.5923 15.5399 15.53"
			stroke="black"
			stroke-width="2"
			stroke-linecap="round"
			stroke-linejoin="round"
		/>
		<path
			class="oi-fill"
			d="M11.9999 5.00001C11.9999 4.6156 11.7795 4.26523 11.4331 4.09871C11.0866 3.93219 10.6754 3.979 10.3752 4.21914L5.6491 8.00001H1.99988C1.44759 8.00001 0.999878 8.44772 0.999878 9.00001V15C0.999878 15.5523 1.44759 16 1.99988 16H5.6491L10.3752 19.7809C10.6754 20.021 11.0866 20.0678 11.4331 19.9013C11.7795 19.7348 11.9999 19.3844 11.9999 19V5.00001Z"
			fill="black"
		/>
	</g>
</svg>