<!-- ! This file is automatically generated, please don't edit it directly. -->

<svg
	width="24"
	height="24"
	viewBox="0 0 24 24"
	fill="none"
	xmlns="http://www.w3.org/2000/svg"
>
	<g class="oi-webcam-fill">
		<path
			class="oi-fill"
			fill-rule="evenodd"
			clip-rule="evenodd"
			d="M16.2087 16.4456C16.5992 16.0551 17.2324 16.0551 17.6229 16.4456L20.6229 19.4456C21.0134 19.8361 21.0134 20.4693 20.6229 20.8598C20.2324 21.2503 19.5992 21.2503 19.2087 20.8598L16.2087 17.8598C15.8181 17.4693 15.8181 16.8361 16.2087 16.4456Z"
			fill="black"
		/>
		<path
			class="oi-fill"
			fill-rule="evenodd"
			clip-rule="evenodd"
			d="M8.12288 16.4456C7.73236 16.0551 7.09919 16.0551 6.70867 16.4456L3.70867 19.4456C3.31814 19.8361 3.31814 20.4693 3.70867 20.8598C4.09919 21.2503 4.73236 21.2503 5.12288 20.8598L8.12288 17.8598C8.5134 17.4693 8.5134 16.8361 8.12288 16.4456Z"
			fill="black"
		/>
		<path
			class="oi-fill"
			fill-rule="evenodd"
			clip-rule="evenodd"
			d="M20 12C20 16.4183 16.4183 20 12 20C7.58172 20 4 16.4183 4 12C4 7.58172 7.58172 4 12 4C16.4183 4 20 7.58172 20 12ZM12 16C14.2091 16 16 14.2091 16 12C16 9.79086 14.2091 8 12 8C9.79086 8 8 9.79086 8 12C8 14.2091 9.79086 16 12 16Z"
			fill="black"
		/>
		<circle class="oi-fill" cx="12" cy="12" r="2" fill="black" />
	</g>
</svg>