<!-- ! This file is automatically generated, please don't edit it directly. -->

<svg
	width="24"
	height="24"
	viewBox="0 0 24 24"
	fill="none"
	xmlns="http://www.w3.org/2000/svg"
>
	<g class="oi-weight[lifting]">
		<path
			class="oi-vector"
			d="M2 9.56828C2 9.11523 2.30458 8.71878 2.74234 8.60204L3.74234 8.33538C4.37718 8.16608 5 8.64458 5 9.30161V14.6984C5 15.3554 4.37718 15.8339 3.74234 15.6646L2.74234 15.398C2.30458 15.2812 2 14.8848 2 14.4317V9.56828Z"
			stroke="black"
			stroke-width="2"
			stroke-linecap="round"
			stroke-linejoin="round"
		/>
		<path
			class="oi-vector"
			d="M22 9.56828C22 9.11523 21.6954 8.71878 21.2577 8.60204L20.2577 8.33538C19.6228 8.16608 19 8.64458 19 9.30161V14.6984C19 15.3554 19.6228 15.8339 20.2577 15.6646L21.2577 15.398C21.6954 15.2812 22 14.8848 22 14.4317V9.56828Z"
			stroke="black"
			stroke-width="2"
			stroke-linecap="round"
			stroke-linejoin="round"
		/>
		<rect
			class="oi-box"
			x="5"
			y="5"
			width="3"
			height="14"
			rx="1"
			stroke="black"
			stroke-width="2"
			stroke-linecap="round"
			stroke-linejoin="round"
		/>
		<rect
			class="oi-box"
			x="16"
			y="5"
			width="3"
			height="14"
			rx="1"
			stroke="black"
			stroke-width="2"
			stroke-linecap="round"
			stroke-linejoin="round"
		/>
		<path
			class="oi-line"
			d="M15.8823 12L8.38232 12"
			stroke="black"
			stroke-width="2"
			stroke-linecap="round"
		/>
	</g>
</svg>