<svg fill="none" height="24" viewBox="0 0 24 24" width="24" xmlns="http://www.w3.org/2000/svg"><path clip-rule="evenodd" d="m15.5421 2h-2.6002-1.3707-2.60025c-1.05222 0-2.06193.41618-2.80685 1.15792-.74502.74183-1.1641 1.7486-1.1641 2.79899v.68535h.06c.14042.79568.52318 1.5352 1.1041 2.11364.17707.17632.36911.33424.57312.47254-.20401.13831-.39605.29623-.57312.47254-.74502.74182-1.1641 1.74862-1.1641 2.79902v.6853h.06c.14042.7957.52318 1.5352 1.1041 2.1137.17707.1763.36911.3342.57312.4725-.20401.1383-.39605.2962-.57312.4726-.74502.7418-1.1641 1.7486-1.1641 2.7989v.6854h.06c.14042.7957.52318 1.5352 1.1041 2.1136.74492.7418 1.75463 1.158 2.80684 1.158 1.05226 0 2.06196-.4162 2.80686-1.158.745-.7418 1.1641-1.7486 1.1641-2.799v-2.5861-.9663c.7197.6214 1.6423.9663 2.6002.9663 1.0522 0 2.0619-.4162 2.8069-1.1579.745-.7419 1.1641-1.7486 1.1641-2.799s-.4191-2.0572-1.1641-2.79901c-.1771-.17632-.3692-.33424-.5732-.47255.204-.1383.3961-.29622.5732-.47254.745-.74184 1.1641-1.74861 1.1641-2.79899 0-1.05039-.4191-2.05716-1.1641-2.79899-.745-.74174-1.7547-1.15792-2.8069-1.15792zm-2.6002 10.5109c.0029.6811.2758 1.3341.7605 1.8168.4874.4853 1.1491.7585 1.8397.7585s1.3523-.2732 1.8397-.7585c.4873-.4853.7606-1.1428.7606-1.8277 0-.685-.2733-1.3425-.7606-1.8277-.4847-.4826-1.1416-.75543-1.828-.7585l-.0117.00002h-.0151c-.6851.00394-1.3407.27668-1.8246.75848-.4847.4826-.7576 1.1357-.7605 1.8167zm-1.3707-3.96783v-5.17237h-2.60025c-.69058 0-1.35228.27319-1.83969.75852-.48732.48524-.76056 1.14273-.76056 1.82769 0 .68495.27324 1.34245.76056 1.82768.48466.48259 1.14163.75543 1.82797.7585.00391-.00001.00781-.00002.01171-.00002zm-2.61216 7.91383h.0119 2.60026v2.5861c0 .685-.2733 1.3425-.7606 1.8277-.4874.4854-1.14908.7586-1.83966.7586-.69057 0-1.35227-.2732-1.83968-.7586-.48732-.4852-.76056-1.1427-.76056-1.8277 0-.6849.27324-1.3424.76056-1.8276.48461-.4826 1.14151-.7554 1.82778-.7585zm2.61216-1.3708h-2.60026c-.00396 0-.00793 0-.0119.0001-.68627-.0032-1.34317-.276-1.82778-.7585-.48732-.4853-.76056-1.1428-.76056-1.8277 0-.685.27324-1.3425.76056-1.8277.48466-.4826 1.14163-.75543 1.82797-.7585.00391.00001.00781.00002.01172.00002h2.60025v2.57268.0135.0134zm3.9709-11.7154h-2.6002v5.17241h2.5816l.0186-.00004.0117.00002c.6864-.00307 1.3433-.27591 1.828-.7585.4873-.48523.7606-1.14273.7606-1.82768 0-.68496-.2733-1.34245-.7606-1.82769-.4874-.48533-1.1491-.75852-1.8397-.75852z" fill="#000" fill-rule="evenodd"/></svg>