<svg fill="none" height="24" viewBox="0 0 24 24" width="24" xmlns="http://www.w3.org/2000/svg"><path d="m12 2c-5.5 0-10 4.5-10 10 0 4.3 2.8 8.1 6.8 9.5.5.1.7-.2.7-.5 0-.2 0-1 0-1.9-2.5.5-3.1-.6-3.3-1.1-.1-.3-.6-1.2-1-1.4-.3-.2-.8-.6 0-.7.8 0 1.3.7 1.5 1 .9 1.5 2.3 1.1 2.9.9.1-.6.4-1.1.6-1.3-2.2-.3-4.5-1.2-4.5-5 0-1.1.4-2 1-2.7-.1-.3-.5-1.3.1-2.7 0 0 .8-.3 2.8 1 .7-.2 1.6-.3 2.4-.3.9 0 1.7.1 2.5.3 1.9-1.3 2.8-1 2.8-1 .5 1.4.2 2.4.1 2.6.6.7 1 1.6 1 2.7 0 3.8-2.3 4.7-4.6 4.9.4.3.7.9.7 1.9v2.8c0 .3.2.6.7.5 4.1-1.4 6.8-5.2 6.8-9.5 0-5.5-4.5-10-10-10z" fill="#fff"/></svg>