<svg width="20" height="20" viewBox="0 0 20 20" fill="none" xmlns="http://www.w3.org/2000/svg">
<path d="M17.5001 13.3333V6.66663C17.4998 6.37435 17.4226 6.0873 17.2764 5.83426C17.1301 5.58122 16.9199 5.37109 16.6667 5.22496L10.8334 1.89163C10.58 1.74535 10.2926 1.66833 10.0001 1.66833C9.70752 1.66833 9.42011 1.74535 9.16674 1.89163L3.33341 5.22496C3.0803 5.37109 2.87006 5.58122 2.72379 5.83426C2.57753 6.0873 2.50038 6.37435 2.50008 6.66663V13.3333C2.50038 13.6256 2.57753 13.9126 2.72379 14.1657C2.87006 14.4187 3.0803 14.6288 3.33341 14.775L9.16674 18.1083C9.42011 18.2546 9.70752 18.3316 10.0001 18.3316C10.2926 18.3316 10.58 18.2546 10.8334 18.1083L16.6667 14.775C16.9199 14.6288 17.1301 14.4187 17.2764 14.1657C17.4226 13.9126 17.4998 13.6256 17.5001 13.3333Z" stroke="black" stroke-width="1.5" stroke-linecap="round" stroke-linejoin="round"/>
<path d="M2.72507 5.79999L10.0001 10.0083L17.2751 5.79999" stroke="black" stroke-width="1.5" stroke-linecap="round" stroke-linejoin="round"/>
<path d="M10.0001 18.4V10" stroke="black" stroke-width="1.5" stroke-linecap="round" stroke-linejoin="round"/>
</svg>
