<svg width="20" height="20" viewBox="0 0 20 20" fill="none" xmlns="http://www.w3.org/2000/svg">
<path fill-rule="evenodd" clip-rule="evenodd" d="M11.0535 5.45077C11.4884 4.63702 12.3462 4.08334 13.3333 4.08334C14.7601 4.08334 15.9167 5.23994 15.9167 6.66668C15.9167 7.47289 15.5473 8.19285 14.9687 8.6666C15.4488 8.87168 15.8826 9.16432 16.25 9.52446C16.9717 8.78797 17.4167 7.77929 17.4167 6.66668C17.4167 4.41151 15.5885 2.58334 13.3333 2.58334C11.6634 2.58334 10.2275 3.58582 9.59482 5.02182C10.1154 5.07496 10.6076 5.22392 11.0535 5.45077Z" fill="black"/>
<path d="M5.83333 16.6667C3.99238 16.6667 2.5 15.1743 2.5 13.3333C2.5 11.7441 3.61214 10.4147 5.10059 10.0808C5.03474 9.78662 5 9.4807 5 9.16667C5 6.86548 6.86548 5 9.16667 5C11.1828 5 12.8644 6.43188 13.2501 8.33415C13.2778 8.33361 13.3055 8.33333 13.3333 8.33333C15.6345 8.33333 17.5 10.1988 17.5 12.5C17.5 14.8012 15.6345 16.6667 13.3333 16.6667H5.83333Z" stroke="black" stroke-width="1.5" stroke-miterlimit="10" stroke-linecap="round" stroke-linejoin="round"/>
</svg>
