<svg width="20" height="20" viewBox="0 0 20 20" fill="none" xmlns="http://www.w3.org/2000/svg">
<path d="M13.871 4.0954H5.55178C4.78602 4.0954 4.16525 4.71617 4.16525 5.48193V13.8011C4.16525 14.5669 4.78602 15.1876 5.55178 15.1876H13.871C14.6367 15.1876 15.2575 14.5669 15.2575 13.8011V5.48193C15.2575 4.71617 14.6367 4.0954 13.871 4.0954Z" stroke="black" stroke-width="1.5" stroke-linecap="round" stroke-linejoin="round"/>
<path d="M11.791 7.56183H7.63144V11.7214H11.791V7.56183Z" stroke="black" stroke-width="1.5" stroke-linecap="round" stroke-linejoin="round"/>
<path d="M7.63144 2.01562V4.09542" stroke="black" stroke-width="1.5" stroke-linecap="round" stroke-linejoin="round"/>
<path d="M11.791 2.01562V4.09542" stroke="black" stroke-width="1.5" stroke-linecap="round" stroke-linejoin="round"/>
<path d="M7.63144 15.1877V17.2675" stroke="black" stroke-width="1.5" stroke-linecap="round" stroke-linejoin="round"/>
<path d="M11.791 15.1877V17.2675" stroke="black" stroke-width="1.5" stroke-linecap="round" stroke-linejoin="round"/>
<path d="M15.2576 7.56183H17.3374" stroke="black" stroke-width="1.5" stroke-linecap="round" stroke-linejoin="round"/>
<path d="M15.2576 11.028H17.3374" stroke="black" stroke-width="1.5" stroke-linecap="round" stroke-linejoin="round"/>
<path d="M2.08545 7.56183H4.16524" stroke="black" stroke-width="1.5" stroke-linecap="round" stroke-linejoin="round"/>
<path d="M2.08545 11.0282H4.16524" stroke="black" stroke-width="1.5" stroke-linecap="round" stroke-linejoin="round"/>
</svg>
