<svg width="20" height="20" viewBox="0 0 20 20" fill="none" xmlns="http://www.w3.org/2000/svg">
<path d="M6.66699 14.1666L10.0003 17.5L13.3337 14.1666" stroke="black" stroke-width="1.5" stroke-linecap="round" stroke-linejoin="round"/>
<path d="M10.0001 10V17.5" stroke="black" stroke-width="1.5" stroke-linecap="round" stroke-linejoin="round"/>
<path d="M17.4001 15.075C18.1246 14.5655 18.6679 13.8385 18.9512 12.9993C19.2344 12.1601 19.2429 11.2525 18.9754 10.4082C18.7079 9.56387 18.1783 8.82675 17.4635 8.30381C16.7486 7.78087 15.8858 7.49931 15.0001 7.50001H13.9501C13.6994 6.52323 13.2305 5.61604 12.5785 4.84674C11.9265 4.07743 11.1085 3.46606 10.1861 3.05863C9.26364 2.65121 8.26078 2.45836 7.25302 2.4946C6.24526 2.53084 5.25884 2.79523 4.36804 3.26786C3.47724 3.74049 2.70527 4.40905 2.11024 5.2232C1.51521 6.03735 1.11262 6.97588 0.932799 7.96813C0.752973 8.96038 0.80059 9.9805 1.07206 10.9517C1.34354 11.9229 1.8318 12.8198 2.50008 13.575" stroke="black" stroke-width="1.5" stroke-linecap="round" stroke-linejoin="round"/>
</svg>
