<svg width="20" height="20" viewBox="0 0 20 20" fill="none" xmlns="http://www.w3.org/2000/svg">
<path d="M17.4999 9.58333C17.5028 10.6832 17.2458 11.7682 16.7499 12.75C16.162 13.9265 15.258 14.916 14.1395 15.6077C13.0209 16.2995 11.7318 16.6662 10.4166 16.6667C9.3167 16.6695 8.23169 16.4126 7.24992 15.9167L2.49992 17.5L4.08326 12.75C3.58737 11.7682 3.33039 10.6832 3.33326 9.58333C3.33377 8.26813 3.70043 6.97904 4.39219 5.86046C5.08395 4.74187 6.07347 3.83797 7.24992 3.25C8.23169 2.75411 9.3167 2.49713 10.4166 2.5H10.8333C12.5702 2.59583 14.2108 3.32897 15.4409 4.55905C16.671 5.78913 17.4041 7.42971 17.4999 9.16667V9.58333Z" stroke="black" stroke-width="1.5" stroke-linecap="round" stroke-linejoin="round"/>
</svg>
