<svg width="20" height="20" viewBox="0 0 20 20" fill="none" xmlns="http://www.w3.org/2000/svg">
<path d="M10.3821 1.87256C9.82894 1.87256 9.29847 2.09229 8.90735 2.4834C8.51624 2.87452 8.29651 3.40499 8.29651 3.95811V9.51959C8.29651 10.0727 8.51624 10.6032 8.90735 10.9943C9.29847 11.3854 9.82894 11.6051 10.3821 11.6051C10.9352 11.6051 11.4657 11.3854 11.8568 10.9943C12.2479 10.6032 12.4676 10.0727 12.4676 9.51959V3.95811C12.4676 3.40499 12.2479 2.87452 11.8568 2.4834C11.4657 2.09229 10.9352 1.87256 10.3821 1.87256Z" stroke="black" stroke-width="1.5" stroke-linecap="round" stroke-linejoin="round"/>
<path d="M15.2482 8.12921V9.51958C15.2482 10.8102 14.7355 12.048 13.8229 12.9606C12.9103 13.8732 11.6725 14.3859 10.3819 14.3859C9.09129 14.3859 7.85353 13.8732 6.94093 12.9606C6.02832 12.048 5.51563 10.8102 5.51562 9.51958V8.12921" stroke="black" stroke-width="1.5" stroke-linecap="round" stroke-linejoin="round"/>
<path d="M10.382 14.3859V17.1666" stroke="black" stroke-width="1.5" stroke-linecap="round" stroke-linejoin="round"/>
<path d="M7.60117 17.1667H13.1626" stroke="black" stroke-width="1.5" stroke-linecap="round" stroke-linejoin="round"/>
</svg>
