<svg width="20" height="20" viewBox="0 0 20 20" fill="none" xmlns="http://www.w3.org/2000/svg">
<path d="M17.8666 9.20832L10.2082 16.8667C9.27005 17.8049 7.99757 18.3319 6.67075 18.3319C5.34393 18.3319 4.07145 17.8049 3.13325 16.8667C2.19505 15.9284 1.66797 14.656 1.66797 13.3292C1.66797 12.0023 2.19505 10.7299 3.13325 9.79165L10.7916 2.13332C11.4171 1.50785 12.2654 1.15646 13.1499 1.15646C14.0345 1.15646 14.8828 1.50785 15.5082 2.13332C16.1337 2.75879 16.4851 3.6071 16.4851 4.49165C16.4851 5.3762 16.1337 6.22452 15.5082 6.84998L7.84158 14.5083C7.52885 14.8211 7.10469 14.9967 6.66242 14.9967C6.22014 14.9967 5.79598 14.8211 5.48325 14.5083C5.17051 14.1956 4.99482 13.7714 4.99482 13.3292C4.99482 12.8869 5.17051 12.4627 5.48325 12.15L12.5582 5.08332" stroke="black" stroke-width="1.5" stroke-linecap="round" stroke-linejoin="round"/>
</svg>
