<svg width="20" height="20" viewBox="0 0 20 20" fill="none" xmlns="http://www.w3.org/2000/svg">
<g clip-path="url(#clip0_5_271)">
<path d="M16.667 1.66663H3.33366C2.41318 1.66663 1.66699 2.41282 1.66699 3.33329V6.66663C1.66699 7.5871 2.41318 8.33329 3.33366 8.33329H16.667C17.5875 8.33329 18.3337 7.5871 18.3337 6.66663V3.33329C18.3337 2.41282 17.5875 1.66663 16.667 1.66663Z" stroke="black" stroke-width="1.5" stroke-linecap="round" stroke-linejoin="round"/>
<path d="M16.667 11.6666H3.33366C2.41318 11.6666 1.66699 12.4128 1.66699 13.3333V16.6666C1.66699 17.5871 2.41318 18.3333 3.33366 18.3333H16.667C17.5875 18.3333 18.3337 17.5871 18.3337 16.6666V13.3333C18.3337 12.4128 17.5875 11.6666 16.667 11.6666Z" stroke="black" stroke-width="1.5" stroke-linecap="round" stroke-linejoin="round"/>
<path d="M5.00008 5H5.00842" stroke="black" stroke-width="1.5" stroke-linecap="round" stroke-linejoin="round"/>
<path d="M5.00008 15H5.00842" stroke="black" stroke-width="1.5" stroke-linecap="round" stroke-linejoin="round"/>
</g>
<defs>
<clipPath id="clip0_5_271">
<rect width="20" height="20" fill="white"/>
</clipPath>
</defs>
</svg>
