<svg width="20" height="20" viewBox="0 0 20 20" fill="none" xmlns="http://www.w3.org/2000/svg">
<g clip-path="url(#clip0_5_780)">
<path d="M10 2.5C9.07953 2.5 8.33333 3.24619 8.33333 4.16667V4.16667C8.33333 4.83446 7.52594 5.16889 7.05374 4.69669V4.69669C6.40287 4.04582 5.34759 4.04582 4.69672 4.69669C4.04585 5.34756 4.04585 6.40284 4.69672 7.05371V7.05371C5.16893 7.52592 4.83447 8.33333 4.16667 8.33333V8.33333C3.24619 8.33333 2.5 9.07952 2.5 10C2.5 10.9205 3.24619 11.6667 4.16667 11.6667V11.6667C4.83446 11.6667 5.16887 12.4741 4.69667 12.9463V12.9463C4.04579 13.5972 4.04579 14.6524 4.69667 15.3033C5.34754 15.9542 6.40281 15.9542 7.05369 15.3033V15.3033C7.5259 14.8311 8.33333 15.1655 8.33333 15.8333V15.8333C8.33333 16.7538 9.07953 17.5 10 17.5C10.9205 17.5 11.6667 16.7538 11.6667 15.8333V15.8333C11.6667 15.1655 12.4741 14.8311 12.9463 15.3033V15.3033C13.5972 15.9542 14.6524 15.9542 15.3033 15.3033C15.9542 14.6524 15.9542 13.5971 15.3033 12.9463V12.9463C14.8311 12.4741 15.1655 11.6667 15.8333 11.6667V11.6667C16.7538 11.6667 17.5 10.9205 17.5 10C17.5 9.07953 16.7538 8.33333 15.8333 8.33333V8.33333C15.1655 8.33333 14.8311 7.52593 15.3033 7.05373V7.05373C15.9541 6.40285 15.9541 5.34758 15.3033 4.6967C14.6524 4.04583 13.5971 4.04583 12.9462 4.6967V4.6967C12.474 5.1689 11.6667 4.83445 11.6667 4.16667V4.16667C11.6667 3.24619 10.9205 2.5 10 2.5Z" stroke="black" stroke-width="1.5" stroke-linecap="round" stroke-linejoin="round"/>
<path d="M12.5 10C12.5 10.663 12.2366 11.2989 11.7678 11.7678C11.2989 12.2366 10.663 12.5 10 12.5C9.33696 12.5 8.70107 12.2366 8.23223 11.7678C7.76339 11.2989 7.5 10.663 7.5 10C7.5 9.33696 7.76339 8.70107 8.23223 8.23223C8.70107 7.76339 9.33696 7.5 10 7.5C10.663 7.5 11.2989 7.76339 11.7678 8.23223C12.2366 8.70107 12.5 9.33696 12.5 10V10Z" stroke="black" stroke-width="1.5" stroke-linecap="round" stroke-linejoin="round"/>
</g>
<defs>
<clipPath id="clip0_5_780">
<rect width="20" height="20" fill="white"/>
</clipPath>
</defs>
</svg>
