<svg width="20" height="20" viewBox="0 0 20 20" fill="none" xmlns="http://www.w3.org/2000/svg">
<path d="M15.8337 13.3333C16.8455 12.5731 17.5 11.363 17.5 10C17.5 7.69881 15.6345 5.83333 13.3333 5.83333C13.3055 5.83333 13.2778 5.83361 13.2501 5.83415C12.8644 3.93188 11.1828 2.5 9.16667 2.5C6.86548 2.5 5 4.36548 5 6.66667C5 6.9807 5.03474 7.28662 5.10059 7.58079C3.61214 7.91467 2.5 9.24412 2.5 10.8333C2.5 11.8289 2.93646 12.7225 3.62848 13.3333" stroke="black" stroke-width="1.5" stroke-miterlimit="10" stroke-linecap="round" stroke-linejoin="round"/>
<path d="M7.91663 14.1667H7.92663" stroke="black" stroke-width="1.5" stroke-linecap="round"/>
<path d="M12.0836 13.3333H12.0936" stroke="black" stroke-width="1.5" stroke-linecap="round"/>
<path d="M11.25 16.6667H11.26" stroke="black" stroke-width="1.5" stroke-linecap="round"/>
<path d="M7.07336 17.5001H7.08336" stroke="black" stroke-width="1.5" stroke-linecap="round"/>
</svg>
