<svg width="20" height="20" viewBox="0 0 20 20" fill="none" xmlns="http://www.w3.org/2000/svg">
<path d="M11.6667 12.3V2.91668C11.6667 2.36414 11.4472 1.83424 11.0565 1.44354C10.6658 1.05284 10.1359 0.833344 9.58337 0.833344C9.03084 0.833344 8.50094 1.05284 8.11023 1.44354C7.71953 1.83424 7.50004 2.36414 7.50004 2.91668V12.3C6.83111 12.747 6.32364 13.3972 6.0526 14.1547C5.78156 14.9122 5.76131 15.7367 5.99484 16.5066C6.22837 17.2765 6.7033 17.9508 7.34949 18.4301C7.99568 18.9093 8.77886 19.1681 9.58337 19.1681C10.3879 19.1681 11.1711 18.9093 11.8173 18.4301C12.4634 17.9508 12.9384 17.2765 13.1719 16.5066C13.4054 15.7367 13.3852 14.9122 13.1141 14.1547C12.8431 13.3972 12.3356 12.747 11.6667 12.3Z" stroke="black" stroke-width="1.5" stroke-linecap="round" stroke-linejoin="round"/>
</svg>
