<svg width="20" height="20" viewBox="0 0 20 20" fill="none" xmlns="http://www.w3.org/2000/svg">
<path d="M12.2501 5.25C12.0974 5.40578 12.0119 5.61521 12.0119 5.83334C12.0119 6.05146 12.0974 6.2609 12.2501 6.41667L13.5834 7.75C13.7392 7.90269 13.9486 7.98822 14.1667 7.98822C14.3849 7.98822 14.5943 7.90269 14.7501 7.75L17.8917 4.60834C18.3108 5.53433 18.4376 6.56603 18.2555 7.56596C18.0733 8.56588 17.5907 9.48654 16.872 10.2052C16.1533 10.9239 15.2326 11.4065 14.2327 11.5887C13.2328 11.7709 12.2011 11.644 11.2751 11.225L5.51674 16.9833C5.18522 17.3149 4.73559 17.5011 4.26674 17.5011C3.7979 17.5011 3.34827 17.3149 3.01674 16.9833C2.68522 16.6518 2.49898 16.2022 2.49898 15.7333C2.49898 15.2645 2.68522 14.8149 3.01674 14.4833L8.77508 8.725C8.35605 7.79901 8.22917 6.76731 8.41136 5.76738C8.59355 4.76746 9.07615 3.8468 9.79485 3.1281C10.5135 2.40941 11.4342 1.92681 12.4341 1.74462C13.434 1.56243 14.4658 1.68931 15.3917 2.10834L12.2584 5.24167L12.2501 5.25Z" stroke="black" stroke-width="1.5" stroke-linecap="round" stroke-linejoin="round"/>
</svg>
