<svg width="20" height="20" viewBox="0 0 20 20" fill="none" xmlns="http://www.w3.org/2000/svg">
<path d="M10 15.2811C12.9167 15.2811 15.2811 12.9166 15.2811 9.99998C15.2811 7.0833 12.9167 4.71887 10 4.71887C7.08333 4.71887 4.7189 7.0833 4.7189 9.99998C4.7189 12.9166 7.08333 15.2811 10 15.2811Z" stroke="black" stroke-width="1.5" stroke-linecap="round" stroke-linejoin="round"/>
<path d="M10 7.73669V10L11.1317 11.1317" stroke="black" stroke-width="1.5" stroke-linecap="round" stroke-linejoin="round"/>
<path d="M13.4026 14.0363L13.1385 16.9259C13.1045 17.3021 12.9307 17.6518 12.6513 17.906C12.3719 18.1603 12.0073 18.3005 11.6296 18.2989H8.36288C7.98515 18.3005 7.62058 18.1603 7.34121 17.906C7.06184 17.6518 6.88798 17.3021 6.85399 16.9259L6.58994 14.0363M6.59748 5.96379L6.86154 3.07427C6.89541 2.69937 7.0682 2.35067 7.34597 2.09663C7.62375 1.84258 7.98645 1.70154 8.36288 1.70118H11.6447C12.0224 1.69965 12.387 1.83985 12.6664 2.09408C12.9457 2.34831 13.1196 2.69807 13.1536 3.07427L13.4176 5.96379" stroke="black" stroke-width="1.5" stroke-linecap="round" stroke-linejoin="round"/>
</svg>
