<svg
	width="24"
	height="24"
	viewBox="0 0 24 24"
	fill="none"
	xmlns="http://www.w3.org/2000/svg"
>
	<g clip-path="url(#clip0_76_5952)">
		<g filter="url(#filter0_d_76_5952)">
			<rect width="24" height="24" fill="white" />
			<circle
				opacity="0.5"
				cx="12"
				cy="12"
				r="10"
				stroke="#8C58CD"
				stroke-width="0.2"
			/>
			<rect
				opacity="0.5"
				x="4"
				y="2"
				width="16"
				height="20"
				rx="2"
				stroke="#8C58CD"
				stroke-width="0.2"
			/>
			<rect
				opacity="0.5"
				x="22"
				y="4"
				width="16"
				height="20"
				rx="2"
				transform="rotate(90 22 4)"
				stroke="#8C58CD"
				stroke-width="0.2"
			/>
		</g>
		<path
			d="M6 3.2C6 2.53726 6.53726 2 7.2 2H16.8C17.4627 2 18 2.53726 18 3.2V19.143C18 20.2064 16.7192 20.7443 15.9599 19.9999L12.8401 16.9413C12.3735 16.4838 11.6265 16.4838 11.1599 16.9413L8.04008 19.9999C7.28076 20.7444 6 20.2064 6 19.143V3.2Z"
			stroke="#2EE0CB"
			stroke-width="2"
			stroke-miterlimit="10"
			stroke-linecap="round"
			stroke-linejoin="round"
		/>
	</g>
	<defs>
		<filter
			id="filter0_d_76_5952"
			x="-4"
			y="0"
			width="32"
			height="32"
			filterUnits="userSpaceOnUse"
			color-interpolation-filters="sRGB"
		>
			<feFlood flood-opacity="0" result="BackgroundImageFix" />
			<feColorMatrix
				in="SourceAlpha"
				type="matrix"
				values="0 0 0 0 0 0 0 0 0 0 0 0 0 0 0 0 0 0 127 0"
				result="hardAlpha"
			/>
			<feOffset dy="4" />
			<feGaussianBlur stdDeviation="2" />
			<feComposite in2="hardAlpha" operator="out" />
			<feColorMatrix
				type="matrix"
				values="0 0 0 0 0 0 0 0 0 0 0 0 0 0 0 0 0 0 0.25 0"
			/>
			<feBlend
				mode="normal"
				in2="BackgroundImageFix"
				result="effect1_dropShadow_76_5952"
			/>
			<feBlend
				mode="normal"
				in="SourceGraphic"
				in2="effect1_dropShadow_76_5952"
				result="shape"
			/>
		</filter>
		<clipPath id="clip0_76_5952">
			<rect width="24" height="24" fill="white" />
		</clipPath>
	</defs>
</svg>
