<svg
	width="24"
	height="24"
	viewBox="0 0 24 24"
	fill="none"
	xmlns="http://www.w3.org/2000/svg"
>
	<g clip-path="url(#clip0_76_5639)">
		<g filter="url(#filter0_d_76_5639)">
			<rect width="24" height="24" fill="white" />
			<circle
				opacity="0.5"
				cx="12"
				cy="12"
				r="10"
				stroke="#8C58CD"
				stroke-width="0.2"
			/>
			<rect
				opacity="0.5"
				x="4"
				y="2"
				width="16"
				height="20"
				rx="2"
				stroke="#8C58CD"
				stroke-width="0.2"
			/>
			<rect
				opacity="0.5"
				x="22"
				y="4"
				width="16"
				height="20"
				rx="2"
				transform="rotate(90 22 4)"
				stroke="#8C58CD"
				stroke-width="0.2"
			/>
		</g>
		<rect
			x="8"
			y="8"
			width="13"
			height="13"
			rx="2"
			stroke="#8C58CD"
			stroke-width="2"
		/>
		<path
			d="M5.00037 16C4.46993 16 3.96123 15.7893 3.58615 15.4142C3.21108 15.0391 3.00037 14.5304 3.00037 14V5C3.00037 4.46957 3.21108 3.96086 3.58615 3.58579C3.96123 3.21071 4.46993 3 5.00037 3H14.0004C14.5308 3 15.0395 3.21071 15.4146 3.58579C15.7897 3.96086 16.0004 4.46957 16.0004 5"
			stroke="#2EE0CB"
			stroke-width="2"
			stroke-linecap="round"
			stroke-linejoin="round"
		/>
	</g>
	<defs>
		<filter
			id="filter0_d_76_5639"
			x="-4"
			y="0"
			width="32"
			height="32"
			filterUnits="userSpaceOnUse"
			color-interpolation-filters="sRGB"
		>
			<feFlood flood-opacity="0" result="BackgroundImageFix" />
			<feColorMatrix
				in="SourceAlpha"
				type="matrix"
				values="0 0 0 0 0 0 0 0 0 0 0 0 0 0 0 0 0 0 127 0"
				result="hardAlpha"
			/>
			<feOffset dy="4" />
			<feGaussianBlur stdDeviation="2" />
			<feComposite in2="hardAlpha" operator="out" />
			<feColorMatrix
				type="matrix"
				values="0 0 0 0 0 0 0 0 0 0 0 0 0 0 0 0 0 0 0.25 0"
			/>
			<feBlend
				mode="normal"
				in2="BackgroundImageFix"
				result="effect1_dropShadow_76_5639"
			/>
			<feBlend
				mode="normal"
				in="SourceGraphic"
				in2="effect1_dropShadow_76_5639"
				result="shape"
			/>
		</filter>
		<clipPath id="clip0_76_5639">
			<rect width="24" height="24" fill="white" />
		</clipPath>
	</defs>
</svg>
