<svg
	width="24"
	height="24"
	viewBox="0 0 24 24"
	fill="none"
	xmlns="http://www.w3.org/2000/svg"
>
	<g clip-path="url(#clip0_76_5406)">
		<g filter="url(#filter0_d_76_5406)">
			<rect width="24" height="24" fill="white" />
			<circle
				opacity="0.5"
				cx="12"
				cy="12"
				r="10"
				stroke="#8C58CD"
				stroke-width="0.2"
			/>
			<rect
				opacity="0.5"
				x="4"
				y="2"
				width="16"
				height="20"
				rx="2"
				stroke="#8C58CD"
				stroke-width="0.2"
			/>
			<rect
				opacity="0.5"
				x="22"
				y="4"
				width="16"
				height="20"
				rx="2"
				transform="rotate(90 22 4)"
				stroke="#8C58CD"
				stroke-width="0.2"
			/>
		</g>
		<path
			d="M7.19999 20.4001H16.8C17.4627 20.4001 18 19.8628 18 19.2001V7.69715C18 7.37889 17.8736 7.07367 17.6485 6.84863L14.7515 3.95157C14.5264 3.72653 14.2212 3.6001 13.9029 3.6001H7.19999C6.53725 3.6001 5.99999 4.13736 5.99999 4.8001V19.2001C5.99999 19.8628 6.53725 20.4001 7.19999 20.4001Z"
			stroke="#8C58CD"
			stroke-width="2"
		/>
		<path
			d="M14.4 13.2H9.59999"
			stroke="#2EE0CB"
			stroke-width="2"
			stroke-linecap="round"
		/>
		<path
			d="M14.4 16.8H9.59999"
			stroke="#2EE0CB"
			stroke-width="2"
			stroke-linecap="round"
		/>
	</g>
	<defs>
		<filter
			id="filter0_d_76_5406"
			x="-4"
			y="0"
			width="32"
			height="32"
			filterUnits="userSpaceOnUse"
			color-interpolation-filters="sRGB"
		>
			<feFlood flood-opacity="0" result="BackgroundImageFix" />
			<feColorMatrix
				in="SourceAlpha"
				type="matrix"
				values="0 0 0 0 0 0 0 0 0 0 0 0 0 0 0 0 0 0 127 0"
				result="hardAlpha"
			/>
			<feOffset dy="4" />
			<feGaussianBlur stdDeviation="2" />
			<feComposite in2="hardAlpha" operator="out" />
			<feColorMatrix
				type="matrix"
				values="0 0 0 0 0 0 0 0 0 0 0 0 0 0 0 0 0 0 0.25 0"
			/>
			<feBlend
				mode="normal"
				in2="BackgroundImageFix"
				result="effect1_dropShadow_76_5406"
			/>
			<feBlend
				mode="normal"
				in="SourceGraphic"
				in2="effect1_dropShadow_76_5406"
				result="shape"
			/>
		</filter>
		<clipPath id="clip0_76_5406">
			<rect width="24" height="24" fill="white" />
		</clipPath>
	</defs>
</svg>
