<svg
	width="24"
	height="24"
	viewBox="0 0 24 24"
	fill="none"
	xmlns="http://www.w3.org/2000/svg"
>
	<g clip-path="url(#clip0_76_5259)">
		<g filter="url(#filter0_d_76_5259)">
			<rect width="24" height="24" fill="white" />
			<circle
				opacity="0.5"
				cx="12"
				cy="12"
				r="10"
				stroke="#8C58CD"
				stroke-width="0.2"
			/>
			<rect
				opacity="0.5"
				x="4"
				y="2"
				width="16"
				height="20"
				rx="2"
				stroke="#8C58CD"
				stroke-width="0.2"
			/>
			<rect
				opacity="0.5"
				x="22"
				y="4"
				width="16"
				height="20"
				rx="2"
				transform="rotate(90 22 4)"
				stroke="#8C58CD"
				stroke-width="0.2"
			/>
		</g>
		<path
			d="M19 4H15C14.4477 4 14 4.44772 14 5V9C14 9.55228 14.4477 10 15 10H19C19.5523 10 20 9.55228 20 9V5C20 4.44772 19.5523 4 19 4Z"
			stroke="#8C58CD"
			stroke-width="2"
			stroke-miterlimit="10"
			stroke-linecap="round"
			stroke-linejoin="round"
		/>
		<path
			d="M19 14H15C14.4477 14 14 14.4477 14 15V19C14 19.5523 14.4477 20 15 20H19C19.5523 20 20 19.5523 20 19V15C20 14.4477 19.5523 14 19 14Z"
			stroke="#8C58CD"
			stroke-width="2"
			stroke-miterlimit="10"
			stroke-linecap="round"
			stroke-linejoin="round"
		/>
		<path
			d="M9 4H5C4.44772 4 4 4.44772 4 5V9C4 9.55228 4.44772 10 5 10H9C9.55228 10 10 9.55228 10 9V5C10 4.44772 9.55228 4 9 4Z"
			stroke="#8C58CD"
			stroke-width="2"
			stroke-miterlimit="10"
			stroke-linecap="round"
			stroke-linejoin="round"
		/>
		<path
			d="M9 14H5C4.44772 14 4 14.4477 4 15V19C4 19.5523 4.44772 20 5 20H9C9.55228 20 10 19.5523 10 19V15C10 14.4477 9.55228 14 9 14Z"
			stroke="#8C58CD"
			stroke-width="2"
			stroke-miterlimit="10"
			stroke-linecap="round"
			stroke-linejoin="round"
		/>
	</g>
	<defs>
		<filter
			id="filter0_d_76_5259"
			x="-4"
			y="0"
			width="32"
			height="32"
			filterUnits="userSpaceOnUse"
			color-interpolation-filters="sRGB"
		>
			<feFlood flood-opacity="0" result="BackgroundImageFix" />
			<feColorMatrix
				in="SourceAlpha"
				type="matrix"
				values="0 0 0 0 0 0 0 0 0 0 0 0 0 0 0 0 0 0 127 0"
				result="hardAlpha"
			/>
			<feOffset dy="4" />
			<feGaussianBlur stdDeviation="2" />
			<feComposite in2="hardAlpha" operator="out" />
			<feColorMatrix
				type="matrix"
				values="0 0 0 0 0 0 0 0 0 0 0 0 0 0 0 0 0 0 0.25 0"
			/>
			<feBlend
				mode="normal"
				in2="BackgroundImageFix"
				result="effect1_dropShadow_76_5259"
			/>
			<feBlend
				mode="normal"
				in="SourceGraphic"
				in2="effect1_dropShadow_76_5259"
				result="shape"
			/>
		</filter>
		<clipPath id="clip0_76_5259">
			<rect width="24" height="24" fill="white" />
		</clipPath>
	</defs>
</svg>
