<svg
	width="24"
	height="24"
	viewBox="0 0 24 24"
	fill="none"
	xmlns="http://www.w3.org/2000/svg"
>
	<g clip-path="url(#clip0_2216_589)">
		<path
			fill-rule="evenodd"
			clip-rule="evenodd"
			d="M18.3335 4.35679L17.6234 5.06687C14.3651 2.38029 9.63292 2.3815 6.37212 5.0712L5.66206 4.36114C9.31763 1.28516 14.6799 1.28334 18.3335 4.35679ZM18.8314 17.5303C21.6717 14.0868 21.5139 9.00245 18.3588 5.74578L19.0659 5.03859C22.6118 8.68674 22.7698 14.4035 19.5415 18.2403L18.8314 17.5303ZM5.83413 18.2702L5.12694 18.9774C8.94746 22.6909 15.0368 22.6888 18.8596 18.9727L18.1524 18.2655C14.7199 21.5916 9.26359 21.5929 5.83413 18.2702ZM4.44515 18.245L5.15523 17.5349C2.31826 14.0941 2.47852 9.00976 5.63687 5.75016L4.92968 5.04298C1.38136 8.69334 1.21942 14.4102 4.44515 18.245Z"
			fill="black"
		/>
	</g>
	<defs>
		<clipPath id="clip0_2216_589">
			<rect width="24" height="24" fill="white" />
		</clipPath>
	</defs>
</svg>
