<svg
	width="24"
	height="24"
	viewBox="0 0 24 24"
	fill="none"
	xmlns="http://www.w3.org/2000/svg"
>
	<path
		d="M7.85032 3V2.5C7.57418 2.5 7.35032 2.72386 7.35032 3H7.85032ZM16.1496 3H16.6496C16.6496 2.72386 16.4257 2.5 16.1496 2.5V3ZM7.85032 10.9999L8.23646 11.3176C8.31007 11.2281 8.35032 11.1158 8.35032 10.9999H7.85032ZM7.85028 11L8.23504 11.3193L8.23643 11.3176L7.85028 11ZM6.19043 15H5.69043C5.69043 15.1326 5.74311 15.2598 5.83688 15.3535C5.93064 15.4473 6.05782 15.5 6.19043 15.5V15ZM17.8094 15V15.5C18.0855 15.5 18.3094 15.2761 18.3094 15H17.8094ZM16.1495 11V10.5C15.9557 10.5 15.7794 10.612 15.697 10.7875C15.6146 10.9629 15.641 11.1702 15.7648 11.3193L16.1495 11ZM16.1496 11V11.5C16.4257 11.5 16.6496 11.2761 16.6496 11H16.1496ZM7.85032 3.5H16.1496V2.5H7.85032V3.5ZM8.35032 10.9999V3H7.35032V10.9999H8.35032ZM8.23643 11.3176L8.23646 11.3176L7.46417 10.6823L7.46414 10.6823L8.23643 11.3176ZM6.19043 15C6.69043 15 6.69043 15.0002 6.69043 15.0004C6.69043 15.0004 6.69043 15.0006 6.69043 15.0007C6.69043 15.0009 6.69043 15.0011 6.69043 15.0012C6.69043 15.0015 6.69043 15.0017 6.69043 15.0018C6.69042 15.0019 6.69043 15.0016 6.69044 15.0008C6.69046 14.9992 6.69051 14.9957 6.69066 14.9904C6.69094 14.9799 6.69156 14.9622 6.69291 14.9378C6.69561 14.8889 6.70123 14.8134 6.71289 14.7151C6.73622 14.5183 6.78364 14.2309 6.87981 13.8833C7.0721 13.1882 7.45831 12.2552 8.23503 11.3193L7.46553 10.6807C6.5824 11.7448 6.13869 12.8117 5.91601 13.6167C5.8047 14.019 5.74838 14.3567 5.71984 14.5974C5.70557 14.7178 5.69822 14.8142 5.69444 14.8825C5.69254 14.9167 5.69154 14.9439 5.69101 14.9637C5.69075 14.9735 5.6906 14.9815 5.69052 14.9876C5.69048 14.9906 5.69046 14.9932 5.69045 14.9953C5.69044 14.9963 5.69044 14.9972 5.69043 14.998C5.69043 14.9984 5.69043 14.9987 5.69043 14.9991C5.69043 14.9992 5.69043 14.9995 5.69043 14.9996C5.69043 14.9998 5.69043 15 6.19043 15ZM17.8094 14.5H6.19043V15.5H17.8094V14.5ZM15.7648 11.3193C16.5415 12.2552 16.9277 13.1882 17.12 13.8833C17.2162 14.2309 17.2636 14.5183 17.2869 14.7151C17.2986 14.8134 17.3042 14.8889 17.3069 14.9378C17.3083 14.9622 17.3089 14.9799 17.3092 14.9904C17.3093 14.9957 17.3094 14.9992 17.3094 15.0008C17.3094 15.0016 17.3094 15.0019 17.3094 15.0018C17.3094 15.0017 17.3094 15.0015 17.3094 15.0012C17.3094 15.0011 17.3094 15.0009 17.3094 15.0007C17.3094 15.0006 17.3094 15.0004 17.3094 15.0004C17.3094 15.0002 17.3094 15 17.8094 15C18.3094 15 18.3094 14.9998 18.3094 14.9996C18.3094 14.9995 18.3094 14.9992 18.3094 14.9991C18.3094 14.9987 18.3094 14.9984 18.3094 14.998C18.3094 14.9972 18.3094 14.9963 18.3094 14.9953C18.3094 14.9932 18.3093 14.9906 18.3093 14.9876C18.3092 14.9815 18.3091 14.9735 18.3088 14.9637C18.3083 14.9439 18.3073 14.9167 18.3054 14.8825C18.3016 14.8142 18.2943 14.7178 18.28 14.5974C18.2514 14.3567 18.1951 14.019 18.0838 13.6167C17.8611 12.8118 17.4174 11.7448 16.5343 10.6807L15.7648 11.3193ZM16.1496 10.5H16.1495V11.5H16.1496V10.5ZM15.6496 3V11H16.6496V3H15.6496Z"
		fill="black"
	/>
	<path
		d="M12 15V21"
		stroke="black"
		stroke-miterlimit="10"
		stroke-linecap="round"
		stroke-linejoin="round"
	/>
	<path
		d="M7 3H17"
		stroke="black"
		stroke-miterlimit="10"
		stroke-linecap="round"
		stroke-linejoin="round"
	/>
</svg>
