<svg
  width="24"
  height="24"
  viewBox="0 0 24 24"
  fill="none"
  xmlns="http://www.w3.org/2000/svg"
>
  <path
    fill-rule="evenodd"
    clip-rule="evenodd"
    d="M3.49996 5.26896L2.19449 3.72614C2.01612 3.51533 2.04241 3.19984 2.25321 3.02147C2.46401 2.8431 2.7795 2.86939 2.95788 3.08019L16.0403 18.5412C16.0648 18.5184 16.0894 18.4956 16.1139 18.4727L16.7668 19.2312C16.7401 19.256 16.7135 19.2807 16.6868 19.3053L17.7271 20.5347C17.9055 20.7455 17.8792 21.061 17.6684 21.2394C17.4576 21.4178 17.1421 21.3915 16.9637 21.1807L15.9336 19.9633C15.0445 20.701 14.1821 21.2883 13.515 21.7052C13.1316 21.9449 12.8114 22.129 12.5859 22.2539C12.4731 22.3163 12.3839 22.3639 12.3222 22.3963C12.2914 22.4125 12.2674 22.4249 12.2508 22.4334L12.2315 22.4432L12.2261 22.446L12.2245 22.4468L12.2239 22.447C12.2237 22.4471 12.2236 22.4472 12 22C11.7764 22.4472 11.7762 22.4471 11.776 22.447L11.7755 22.4468L11.7738 22.446L11.7684 22.4432L11.7491 22.4334C11.7325 22.4249 11.7085 22.4125 11.6777 22.3963C11.616 22.3639 11.5268 22.3163 11.414 22.2539C11.1885 22.129 10.8683 21.9449 10.485 21.7052C9.71923 21.2267 8.69615 20.5236 7.6707 19.6263C5.64083 17.8501 3.49996 15.2232 3.49996 12V5.26896ZM12 22L12.2236 22.4472C12.0828 22.5176 11.9171 22.5176 11.7764 22.4472L12 22ZM15.2876 19.1999C14.444 19.899 13.6229 20.4585 12.985 20.8573C12.6183 21.0864 12.3135 21.2616 12.1015 21.379C12.0648 21.3993 12.0309 21.4179 12 21.4347C11.969 21.4179 11.9351 21.3993 11.8984 21.379C11.6864 21.2616 11.3816 21.0864 11.015 20.8573C10.2807 20.3983 9.30377 19.7264 8.32921 18.8737C6.35908 17.1499 4.49996 14.7768 4.49996 12V6.45078L15.2876 19.1999ZM19.5 12C19.5 14.2221 18.3094 16.1857 16.8241 17.7649L17.4798 18.5267C19.0936 16.8332 20.5 14.6124 20.5 12V5C20.5 4.79158 20.3707 4.60502 20.1755 4.53184L12.1755 1.53184C12.0623 1.48939 11.9376 1.48939 11.8244 1.53184L5.0409 4.07565L5.73587 4.88303L12 2.534L19.5 5.3465V12Z"
    fill="black"
  />
</svg>
