<svg
	width="24"
	height="24"
	viewBox="0 0 24 24"
	fill="none"
	xmlns="http://www.w3.org/2000/svg"
>
	<path
		fill-rule="evenodd"
		clip-rule="evenodd"
		d="M3.15925 4.4585L2.81281 4.04907C2.45606 3.62746 2.50864 2.99649 2.93025 2.63974C3.35186 2.283 3.98284 2.33558 4.33958 2.75719L19.1088 20.2117C19.4656 20.6333 19.413 21.2643 18.9914 21.6211C18.5698 21.9778 17.9388 21.9252 17.582 21.5036L16.4582 20.1754C15.4757 21.0125 14.5118 21.6718 13.78 22.1292C13.3882 22.374 13.0603 22.5627 12.8281 22.6912C12.7119 22.7556 12.6194 22.805 12.5547 22.8389C12.5223 22.8559 12.4968 22.8691 12.4787 22.8784L12.4572 22.8893L12.4508 22.8926L12.4486 22.8937L12.4478 22.8941C12.4475 22.8942 12.4472 22.8944 12 21.9999C11.5528 22.8944 11.5525 22.8942 11.5522 22.8941L11.5514 22.8937L11.5492 22.8926L11.5427 22.8893L11.5212 22.8784C11.5032 22.8691 11.4777 22.8559 11.4453 22.8389C11.3806 22.805 11.2881 22.7556 11.1719 22.6912C10.9397 22.5627 10.6118 22.374 10.22 22.1292C9.43853 21.6408 8.39237 20.922 7.34148 20.0025C5.28173 18.2002 2.99999 15.4464 2.99999 11.9999V4.99994C2.99999 4.80333 3.05751 4.61645 3.15925 4.4585ZM12 21.9999L12.4472 22.8944C12.1657 23.0351 11.8343 23.0351 11.5528 22.8944L12 21.9999ZM15.1663 18.6487C14.2759 19.4078 13.3943 20.0117 12.72 20.4332C12.4367 20.6103 12.1916 20.7541 12 20.8627C11.8083 20.7541 11.5633 20.6103 11.28 20.4332C10.5614 19.9841 9.60761 19.3278 8.65849 18.4974C6.71824 16.7996 4.99999 14.5535 4.99999 11.9999V6.63392L15.1663 18.6487ZM19 11.9999C19 13.6136 18.3139 15.1044 17.3192 16.4117L18.6484 17.956C19.9589 16.3398 21 14.3279 21 11.9999V4.99994C21 4.58309 20.7414 4.20997 20.3511 4.06361L12.3511 1.06361C12.1247 0.978715 11.8752 0.978715 11.6489 1.06361L5.9482 3.20136L7.33814 4.81613L12 3.06794L19 5.69294V11.9999Z"
		fill="black"
	/>
</svg>
