<svg
  width="24"
  height="24"
  viewBox="0 0 24 24"
  fill="none"
  xmlns="http://www.w3.org/2000/svg"
>
  <path
    fill-rule="evenodd"
    clip-rule="evenodd"
    d="M3.95786 3.07938C3.77949 2.86858 3.464 2.84229 3.25319 3.02066C3.04239 3.19903 3.0161 3.51452 3.19447 3.72533L5.12231 6.00368C3.66848 6.67032 2.3081 7.5499 1.0893 8.62423C0.88215 8.80683 0.862246 9.12279 1.04485 9.32994C1.22744 9.53709 1.5434 9.557 1.75055 9.3744C2.96661 8.30248 4.3327 7.43695 5.79466 6.79828L8.54277 10.046C7.14096 10.4935 5.82748 11.2092 4.67988 12.1651C4.4677 12.3418 4.43897 12.6571 4.6157 12.8693C4.79243 13.0815 5.1077 13.1102 5.31988 12.9335C6.47644 11.9702 7.81753 11.274 9.24793 10.8794L12.3184 14.5081C12.2141 14.5031 12.1096 14.5006 12.0049 14.5006C10.6558 14.5006 9.34013 14.9203 8.24033 15.7017C8.01522 15.8616 7.96238 16.1738 8.12231 16.3989C8.28224 16.624 8.59438 16.6768 8.8195 16.5169C9.7501 15.8558 10.8634 15.5006 12.0049 15.5006C12.4389 15.5006 12.8688 15.5519 13.2862 15.6519L17.9637 21.1799C18.1421 21.3907 18.4576 21.417 18.6684 21.2386C18.8792 21.0602 18.9055 20.7447 18.7271 20.5339L15.4011 16.6032C15.4372 16.6089 15.4738 16.6106 15.51 16.6084L13.9527 14.7993C13.9178 14.7883 13.8827 14.7776 13.8476 14.7672L10.3534 10.6377C10.3584 10.6369 10.3635 10.6361 10.3685 10.6353L9.61506 9.75995C9.61382 9.76022 9.61257 9.76048 9.61133 9.76075L3.95786 3.07938ZM10.7723 9.57147L11.5813 10.5114C11.7338 10.5048 11.8867 10.5014 12.0399 10.5014C14.4954 10.5014 16.8732 11.362 18.7599 12.9335C18.9721 13.1102 19.2873 13.0815 19.4641 12.8693C19.6408 12.6571 19.6121 12.3418 19.3999 12.1651C17.3335 10.4439 14.7292 9.50142 12.0399 9.50142C11.6146 9.50142 11.1915 9.52498 10.7723 9.57147ZM7.06006 5.25878L7.77466 6.08897C9.13889 5.70242 10.56 5.50197 11.9999 5.50197C15.7739 5.50197 19.4182 6.87887 22.2493 9.3744C22.4565 9.557 22.7724 9.53709 22.955 9.32994C23.1376 9.12279 23.1177 8.80683 22.9106 8.62423C19.8968 5.9677 16.0174 4.50197 11.9999 4.50197C10.3109 4.50197 8.64624 4.76105 7.06006 5.25878ZM11.9999 19.4993C11.7237 19.4993 11.4999 19.7231 11.4999 19.9993C11.4999 20.2754 11.7237 20.4993 11.9999 20.4993H12.0099C12.286 20.4993 12.5099 20.2754 12.5099 19.9993C12.5099 19.7231 12.286 19.4993 12.0099 19.4993H11.9999Z"
    fill="black"
  />
</svg>
