<!-- ! This file is automatically generated, please don't edit it directly. -->

<svg
	width="24"
	height="24"
	viewBox="0 0 24 24"
	fill="none"
	xmlns="http://www.w3.org/2000/svg"
>
	<g class="oi-bank-fill">
		<path
			class="oi-fill"
			d="M20 19C20.5523 19 21 19.4477 21 20C21 20.5523 20.5523 21 20 21H4C3.44772 21 3.00001 20.5523 3 20C3 19.4477 3.44772 19 4 19H20ZM6 9.5C6.55228 9.5 7 9.94772 7 10.5V16.5C6.99998 17.0523 6.55227 17.5 6 17.5C5.44773 17.5 5.00002 17.0523 5 16.5V10.5C5 9.94772 5.44772 9.5 6 9.5ZM10 9.5C10.5523 9.5 11 9.94772 11 10.5V16.5C11 17.0523 10.5523 17.5 10 17.5C9.44773 17.5 9.00002 17.0523 9 16.5V10.5C9 9.94772 9.44772 9.5 10 9.5ZM14 9.5C14.5523 9.5 15 9.94772 15 10.5V16.5C15 17.0523 14.5523 17.5 14 17.5C13.4477 17.5 13 17.0523 13 16.5V10.5C13 9.94772 13.4477 9.5 14 9.5ZM18 9.5C18.5523 9.5 19 9.94772 19 10.5V16.5C19 17.0523 18.5523 17.5 18 17.5C17.4477 17.5 17 17.0523 17 16.5V10.5C17 9.94772 17.4477 9.5 18 9.5ZM12.0986 2.25391C12.4033 2.09567 12.7681 2.10512 13.0645 2.27832L20.4053 6.56836C20.8457 6.82576 20.6635 7.5 20.1533 7.5H4.04688C3.52389 7.49967 3.35255 6.79808 3.81641 6.55664L12.0986 2.25391Z"
			fill="black"
		/>
	</g>
</svg>