<!-- ! This file is automatically generated, please don't edit it directly. -->

<svg
	width="24"
	height="24"
	viewBox="0 0 24 24"
	fill="none"
	xmlns="http://www.w3.org/2000/svg"
>
	<g class="oi-bar-chart-box-fill">
		<path
			class="oi-fill"
			d="M19 3C20.1046 3 21 3.89543 21 5V19C21 20.1046 20.1046 21 19 21H5C3.89543 21 3 20.1046 3 19V5C3 3.89543 3.89543 3 5 3H19ZM8 11C7.44772 11 7 11.4477 7 12V16C7 16.5523 7.44772 17 8 17C8.55228 17 9 16.5523 9 16V12C9 11.4477 8.55228 11 8 11ZM12 7C11.4477 7 11 7.44772 11 8V16C11 16.5523 11.4477 17 12 17C12.5523 17 13 16.5523 13 16V8C13 7.44772 12.5523 7 12 7ZM16 9C15.4477 9 15 9.44772 15 10V16C15 16.5523 15.4477 17 16 17C16.5523 17 17 16.5523 17 16V10C17 9.44772 16.5523 9 16 9Z"
			fill="black"
		/>
	</g>
</svg>