<!-- ! This file is automatically generated, please don't edit it directly. -->

<svg
	width="24"
	height="24"
	viewBox="0 0 24 24"
	fill="none"
	xmlns="http://www.w3.org/2000/svg"
>
	<g class="oi-bezier-curve">
		<path
			class="oi-vector"
			d="M1.5 7.5H9.75"
			stroke="black"
			stroke-width="2"
			stroke-linecap="round"
			stroke-linejoin="round"
		/>
		<path
			class="oi-vector"
			d="M14.25 7.5H22.5"
			stroke="black"
			stroke-width="2"
			stroke-linecap="round"
			stroke-linejoin="round"
		/>
		<path
			class="oi-ellipse"
			d="M12 9.75C13.2426 9.75 14.25 8.74264 14.25 7.5C14.25 6.25736 13.2426 5.25 12 5.25C10.7574 5.25 9.75 6.25736 9.75 7.5C9.75 8.74264 10.7574 9.75 12 9.75Z"
			stroke="black"
			stroke-width="2"
			stroke-linecap="round"
			stroke-linejoin="round"
		/>
		<path
			class="oi-vector"
			d="M3.75 18.75C4.99264 18.75 6 17.7426 6 16.5C6 15.2574 4.99264 14.25 3.75 14.25C2.50736 14.25 1.5 15.2574 1.5 16.5C1.5 17.7426 2.50736 18.75 3.75 18.75Z"
			stroke="black"
			stroke-width="2"
			stroke-linecap="round"
			stroke-linejoin="round"
		/>
		<path
			class="oi-ellipse"
			d="M20.25 18.75C21.4926 18.75 22.5 17.7426 22.5 16.5C22.5 15.2574 21.4926 14.25 20.25 14.25C19.0074 14.25 18 15.2574 18 16.5C18 17.7426 19.0074 18.75 20.25 18.75Z"
			stroke="black"
			stroke-width="2"
			stroke-linecap="round"
			stroke-linejoin="round"
		/>
		<path
			class="oi-vector"
			d="M14.2294 7.80469C15.7149 8.22274 17.0537 9.04856 18.094 10.1886C19.1342 11.3286 19.8343 12.7371 20.115 14.2547"
			stroke="black"
			stroke-width="2"
			stroke-linecap="round"
			stroke-linejoin="round"
		/>
		<path
			class="oi-vector"
			d="M3.88501 14.2547C4.16577 12.7372 4.86593 11.3287 5.90616 10.1887C6.94639 9.04869 8.28511 8.22284 9.77064 7.80469"
			stroke="black"
			stroke-width="2"
			stroke-linecap="round"
			stroke-linejoin="round"
		/>
	</g>
</svg>