<!-- ! This file is automatically generated, please don't edit it directly. -->

<svg
	width="24"
	height="24"
	viewBox="0 0 24 24"
	fill="none"
	xmlns="http://www.w3.org/2000/svg"
>
	<g class="oi-brand-figma[figma]">
		<path
			class="oi-fill"
			d="M15.04 2C16.042 2 17.0035 2.39633 17.7129 3.10254C18.4224 3.80905 18.8223 4.76819 18.8223 5.76855C18.8222 6.7689 18.4224 7.72808 17.7129 8.43457C17.5441 8.60256 17.3605 8.75204 17.166 8.88379C17.3606 9.01561 17.544 9.16586 17.7129 9.33398C18.4224 10.0405 18.8223 10.9996 18.8223 12C18.8223 13.0004 18.4224 13.9595 17.7129 14.666C17.0035 15.3722 16.042 15.7686 15.04 15.7686C14.1274 15.7685 13.249 15.439 12.5635 14.8467L12.5635 18.2314C12.5635 19.2318 12.1646 20.191 11.4551 20.8975C10.7457 21.6037 9.78416 21.9999 8.78223 22C7.78012 22 6.81785 21.6039 6.1084 20.8975C5.55516 20.3466 5.19135 19.6416 5.05762 18.8838L5 18.8838L5 18.2314C5.00003 17.2311 5.39888 16.2719 6.1084 15.5654C6.27725 15.3973 6.46071 15.2471 6.65527 15.1152C6.46088 14.9835 6.27712 14.834 6.1084 14.666C5.55514 14.1151 5.19136 13.4101 5.05762 12.6523L5 12.6523L5 12C5 10.9996 5.39886 10.0405 6.1084 9.33398C6.27725 9.16586 6.46071 9.01563 6.65527 8.88379C6.46088 8.75203 6.27712 8.60256 6.1084 8.43457C5.55514 7.88367 5.19136 7.17869 5.05762 6.4209L5 6.4209L5 5.76855C5 4.7682 5.39887 3.80905 6.1084 3.10254C6.81785 2.39612 7.78012 2 8.78223 2L15.04 2ZM8.78223 15.7686C8.12454 15.7686 7.4935 16.029 7.0293 16.4912C6.56546 16.9533 6.30569 17.5793 6.30566 18.2314C6.30566 18.8838 6.56519 19.5105 7.0293 19.9727C7.4935 20.4349 8.12454 20.6943 8.78223 20.6943C9.43973 20.6942 10.0701 20.4347 10.5342 19.9727C10.9983 19.5105 11.2578 18.8838 11.2578 18.2314L11.2578 15.7686L8.78223 15.7686ZM8.78223 9.53711C8.12454 9.53711 7.4935 9.79754 7.0293 10.2598C6.56547 10.7219 6.30566 11.3479 6.30566 12C6.30567 12.6521 6.56547 13.2782 7.0293 13.7402C7.4935 14.2025 8.12454 14.4629 8.78223 14.4629L11.2578 14.4629L11.2578 9.53711L8.78223 9.53711ZM15.04 9.53711C14.3824 9.53713 13.7523 9.79756 13.2881 10.2598C12.8241 10.7219 12.5635 11.3478 12.5635 12C12.5635 12.6522 12.8241 13.2781 13.2881 13.7402C13.7523 14.2024 14.3824 14.4629 15.04 14.4629C15.6977 14.4629 16.3278 14.2025 16.792 13.7402C17.256 13.2781 17.5166 12.6523 17.5166 12C17.5166 11.3477 17.256 10.7219 16.792 10.2598C16.3278 9.79754 15.6977 9.53711 15.04 9.53711ZM8.78223 3.30566C8.12454 3.30566 7.4935 3.56512 7.0293 4.02734C6.56519 4.48947 6.30566 5.11622 6.30566 5.76855C6.30568 6.42067 6.56546 7.04672 7.0293 7.50879C7.4935 7.97101 8.12454 8.23145 8.78223 8.23145L11.2578 8.23145L11.2578 3.30566L8.78223 3.30566ZM12.5635 8.23145L15.04 8.23145C15.6977 8.23145 16.3278 7.97101 16.792 7.50879C17.256 7.04668 17.5166 6.42084 17.5166 5.76855C17.5166 5.11622 17.2561 4.48947 16.792 4.02734C16.3278 3.56534 15.6976 3.30566 15.04 3.30566L12.5635 3.30566L12.5635 8.23145Z"
			fill="black"
		/>
	</g>
</svg>