<!-- ! This file is automatically generated, please don't edit it directly. -->

<svg
	width="24"
	height="24"
	viewBox="0 0 24 24"
	fill="none"
	xmlns="http://www.w3.org/2000/svg"
>
	<g class="oi-budget">
		<path
			class="oi-box"
			d="M9 20.4444L9 11.5556C9 11.2487 8.66421 11 8.25 11L3.75 11C3.33579 11 3 11.2487 3 11.5556L3 20.4444C3 20.7513 3.33579 21 3.75 21L8.25 21C8.66421 21 9 20.7513 9 20.4444Z"
			stroke="black"
			stroke-width="2"
			stroke-linecap="round"
			stroke-linejoin="round"
		/>
		<path
			class="oi-box"
			d="M15 20.2222L15 7.77778C15 7.34822 14.6642 7 14.25 7L9.75 7C9.33579 7 9 7.34822 9 7.77778L9 20.2222C9 20.6518 9.33579 21 9.75 21L14.25 21C14.6642 21 15 20.6518 15 20.2222Z"
			stroke="black"
			stroke-width="2"
			stroke-linecap="round"
			stroke-linejoin="round"
		/>
		<path
			class="oi-vector"
			d="M15 20L15 4C15 3.44771 15.3358 3 15.75 3L20.25 3C20.6642 3 21 3.44772 21 4L21 11"
			stroke="black"
			stroke-width="2"
			stroke-linecap="round"
			stroke-linejoin="round"
		/>
		<path
			class="oi-fill"
			d="M22.5947 17.5C22.8506 17.9416 23 18.4529 23 19C23 20.6569 21.6569 22 20 22C18.3431 22 17 20.6569 17 19C17 18.453 17.1486 17.9415 17.4043 17.5C17.7616 18.117 18.3313 18.5933 19.0146 18.8311C19.0053 18.886 19 18.9424 19 19C19 19.5523 19.4477 20 20 20C20.5523 20 21 19.5523 21 19C21 18.9423 20.9937 18.886 20.9844 18.8311C21.6679 18.5934 22.2372 18.1171 22.5947 17.5Z"
			fill="black"
		/>
		<circle
			class="oi-ellipse"
			cx="20"
			cy="16"
			r="2"
			stroke="black"
			stroke-width="2"
			stroke-linecap="round"
			stroke-linejoin="round"
		/>
	</g>
</svg>