<!-- ! This file is automatically generated, please don't edit it directly. -->

<svg
	width="24"
	height="24"
	viewBox="0 0 24 24"
	fill="none"
	xmlns="http://www.w3.org/2000/svg"
>
	<g class="oi-calendar-end-of-month-fill">
		<path
			class="oi-fill"
			d="M8 6C8 6.55228 8.44772 7 9 7C9.55228 7 10 6.55228 10 6V3H14V6C14 6.55228 14.4477 7 15 7C15.5523 7 16 6.55228 16 6V3H19C20.6569 3 22 4.34315 22 6V19C22 20.6569 20.6569 22 19 22H5C3.34315 22 2 20.6569 2 19V6C2 4.34315 3.34315 3 5 3H8V6ZM16.9648 10.2988C16.9648 9.21765 15.6899 8.66868 14.9053 9.36523L14.8311 9.43652L13.3174 11.0039L14.0361 11.6982L14.7549 12.3936L14.9648 12.1758V16.2686C14.9652 16.8205 15.4128 17.2686 15.9648 17.2686C16.5166 17.2682 16.9644 16.8203 16.9648 16.2686V10.2988ZM9.73047 9C8.42052 9.00004 7.51843 9.68047 7.15332 10.0654L7.87891 10.7529L8.60449 11.4414C8.71577 11.3242 9.12649 11 9.73047 11C10.0161 11 10.2114 11.0728 10.3213 11.1533C10.4083 11.2172 10.4961 11.3216 10.5225 11.5547C10.5296 11.6178 10.5209 11.6113 10.5098 11.623C10.4637 11.6719 10.3381 11.7605 10.0781 11.8457C9.55804 12.0161 8.86751 12.0576 8.39551 12.0576C7.8475 12.0578 7.40128 12.4989 7.39551 13.0469C7.38993 13.5951 7.8278 14.0464 8.37598 14.0576C8.77151 14.0657 9.47331 14.1708 10.0107 14.4033C10.2791 14.5195 10.4279 14.6345 10.4932 14.7119C10.531 14.7569 10.5265 14.7618 10.5215 14.792C10.4997 14.9248 10.4296 15.0245 10.25 15.1201C10.0457 15.2288 9.80467 15.2658 9.71191 15.2676C9.61685 15.2694 9.39649 15.2441 9.10645 15.1475C8.8959 15.0773 8.67528 14.9783 8.46777 14.8506L8.26562 14.7139L8.18066 14.6562C7.74618 14.3955 7.1762 14.5014 6.86621 14.916C6.55639 15.3306 6.61621 15.9071 6.98926 16.25L7.06836 16.3154L7.23633 16.4355C8.08764 17.0144 9.0809 17.28 9.74902 17.2676C10.0968 17.261 10.6587 17.1682 11.1895 16.8857C11.7451 16.59 12.344 16.0364 12.4951 15.1162C12.6055 14.4436 12.3922 13.8617 12.0225 13.4229C11.9459 13.332 11.8628 13.2485 11.7764 13.1709C11.8412 13.116 11.9051 13.0584 11.9648 12.9951C12.368 12.5674 12.585 11.994 12.5098 11.3291C12.4233 10.5653 12.0598 9.9488 11.5039 9.54102C10.9709 9.15009 10.3301 9.00002 9.73047 9ZM13.3174 11.0039C12.9337 11.4011 12.9446 12.0342 13.3418 12.418C13.7389 12.8007 14.3714 12.7901 14.7549 12.3936L13.3174 11.0039ZM7.15332 10.0654C6.77343 10.4661 6.78993 11.0985 7.19043 11.4785C7.59116 11.8585 8.22446 11.8421 8.60449 11.4414L7.15332 10.0654Z"
			fill="black"
		/>
	</g>
</svg>