<!-- ! This file is automatically generated, please don't edit it directly. -->

<svg
	width="24"
	height="24"
	viewBox="0 0 24 24"
	fill="none"
	xmlns="http://www.w3.org/2000/svg"
>
	<g class="oi-car-alt-2-fill">
		<path
			class="oi-fill"
			d="M13.6455 5C14.8722 5 15.9761 5.74677 16.4316 6.88574L17.6768 10H19C20.6569 10 22 11.3431 22 13V16C22 16.5523 21.5523 17 21 17H18.8262C18.4141 18.1647 17.3059 19 16 19C14.6941 19 13.5859 18.1647 13.1738 17H9.82617C9.41406 18.1647 8.30585 19 7 19C5.69415 19 4.58594 18.1647 4.17383 17H3C2.44772 17 2 16.5523 2 16V13C2 11.589 2.97471 10.4081 4.28711 10.0879L5.56836 6.88574C6.02395 5.74677 7.12778 5 8.35449 5H13.6455ZM7 15C6.44772 15 6 15.4477 6 16C6 16.5523 6.44772 17 7 17C7.55228 17 8 16.5523 8 16C8 15.4477 7.55228 15 7 15ZM16 15C15.4477 15 15 15.4477 15 16C15 16.5523 15.4477 17 16 17C16.5523 17 17 16.5523 17 16C17 15.4477 16.5523 15 16 15ZM8.35449 7C7.94559 7 7.57764 7.24925 7.42578 7.62891L6.47754 10H10V7H8.35449ZM12 10H15.5225L14.5742 7.62891C14.4224 7.24925 14.0544 7 13.6455 7H12V10Z"
			fill="black"
		/>
	</g>
</svg>