<!-- ! This file is automatically generated, please don't edit it directly. -->

<svg
	width="24"
	height="24"
	viewBox="0 0 24 24"
	fill="none"
	xmlns="http://www.w3.org/2000/svg"
>
	<g class="oi-chat-ai-fill">
		<path
			class="oi-fill"
			d="M11.9998 2C16.9913 2 20.9997 6.13205 20.9998 11.1816C20.9998 16.2313 16.9914 20.3633 11.9998 20.3633C10.886 20.3632 9.81794 20.1567 8.83179 19.7783L4.43433 21.9004C4.07358 22.0744 3.64421 22.0164 3.34253 21.7529C3.04078 21.4893 2.92548 21.0714 3.04956 20.6904L4.49487 16.252C3.54937 14.7978 2.99976 13.053 2.99976 11.1816C2.99985 6.13215 7.00833 2.00017 11.9998 2ZM11.9998 6C11.0466 6.00012 10.2259 6.67285 10.0388 7.60742L9.93042 8.14648C9.85123 8.54232 9.54208 8.8515 9.14624 8.93066L8.60718 9.03906C7.67266 9.22627 6.99976 10.0469 6.99976 11L7.00757 11.1768C7.08477 12.0531 7.73097 12.7854 8.60718 12.9609L9.14624 13.0693C9.54209 13.1485 9.85123 13.4577 9.93042 13.8535L10.0388 14.3926C10.2259 15.3271 11.0466 15.9999 11.9998 16C12.953 16 13.7736 15.3272 13.9607 14.3926L14.0691 13.8535C14.1482 13.4577 14.4575 13.1486 14.8533 13.0693L15.3923 12.9609C16.327 12.7738 16.9998 11.9532 16.9998 11C16.9998 10.0468 16.327 9.22618 15.3923 9.03906L14.8533 8.93066C14.4575 8.85141 14.1482 8.54226 14.0691 8.14648L13.9607 7.60742C13.7736 6.6728 12.953 6 11.9998 6Z"
			fill="black"
		/>
	</g>
</svg>