<!-- ! This file is automatically generated, please don't edit it directly. -->

<svg
	width="24"
	height="24"
	viewBox="0 0 24 24"
	fill="none"
	xmlns="http://www.w3.org/2000/svg"
>
	<g class="oi-circle-euro-fill">
		<path
			class="oi-fill"
			d="M12 2C17.5228 2 22 6.47715 22 12C22 17.5228 17.5228 22 12 22C6.47715 22 2 17.5228 2 12C2 6.47715 6.47715 2 12 2ZM16.7275 7.37793C15.2701 5.92044 12.6634 5.40925 10.4658 6.05078C9.33413 6.38132 8.25477 7.03087 7.45996 8.07227C7.13785 8.49443 6.87119 8.97109 6.66699 9.5H6C5.44783 9.5 5.00019 9.94788 5 10.5C5.00023 11.0521 5.44786 11.5 6 11.5H6.22754C6.20996 11.7238 6.2002 11.9542 6.2002 12.1904C6.2002 12.2947 6.20156 12.3983 6.20508 12.5H6C5.44783 12.5 5.00019 12.9479 5 13.5C5.00023 14.0521 5.44786 14.5 6 14.5H6.54492C6.76571 15.1681 7.08817 15.7513 7.49805 16.248C8.32151 17.2456 9.43127 17.8131 10.5703 18.0635C11.7039 18.3126 12.8968 18.2569 13.96 17.9873C15.0145 17.7198 16.0183 17.2218 16.7275 16.5127C17.1176 16.1223 17.1174 15.4891 16.7275 15.0986C16.3371 14.7082 15.704 14.7084 15.3135 15.0986C14.9228 15.4892 14.2727 15.8447 13.4678 16.0488C12.6714 16.2507 11.796 16.2852 11 16.1104C10.2095 15.9366 9.52645 15.5639 9.04004 14.9746C8.92434 14.8344 8.81596 14.6764 8.71777 14.5H13L13.1025 14.4951C13.6065 14.4438 13.9998 14.0175 14 13.5C13.9998 12.9825 13.6065 12.5562 13.1025 12.5049L13 12.5H8.20703C8.20254 12.3998 8.2002 12.2962 8.2002 12.1904C8.20021 11.9475 8.21276 11.7173 8.23535 11.5H13L13.1025 11.4951C13.6065 11.4438 13.9998 11.0175 14 10.5C13.9998 9.9825 13.6065 9.55622 13.1025 9.50488L13 9.5H8.90039C8.9489 9.42569 8.99796 9.35312 9.0498 9.28516C9.54859 8.63178 10.2417 8.19992 11.0264 7.9707C12.6629 7.49299 14.4681 7.94664 15.3135 8.79199C15.704 9.18198 16.3372 9.18215 16.7275 8.79199C17.1175 8.40159 17.1175 7.76837 16.7275 7.37793Z"
			fill="black"
		/>
	</g>
</svg>