<!-- ! This file is automatically generated, please don't edit it directly. -->

<svg
	width="24"
	height="24"
	viewBox="0 0 24 24"
	fill="none"
	xmlns="http://www.w3.org/2000/svg"
>
	<g class="oi-circle-info-fill[i]">
		<path
			class="oi-fill"
			d="M12 2C17.5228 2 22 6.47715 22 12C22 17.5228 17.5228 22 12 22C6.47715 22 2 17.5228 2 12C2 6.47715 6.47715 2 12 2ZM11.9922 9.65137C11.4403 9.65156 10.9926 10.0996 10.9922 10.6514V16.6904C10.9922 17.2426 11.4401 17.6902 11.9922 17.6904C12.5445 17.6904 12.9922 17.2427 12.9922 16.6904V10.6514C12.9917 10.0995 12.5442 9.65137 11.9922 9.65137ZM11.9951 6.30859C11.4431 6.30878 10.9953 6.75657 10.9951 7.30859C10.9951 7.86076 11.443 8.3084 11.9951 8.30859H12.0068C12.5591 8.30859 13.0068 7.86088 13.0068 7.30859C13.0067 6.75646 12.559 6.30859 12.0068 6.30859H11.9951Z"
			fill="black"
		/>
	</g>
</svg>