<!-- ! This file is automatically generated, please don't edit it directly. -->

<svg
	width="24"
	height="24"
	viewBox="0 0 24 24"
	fill="none"
	xmlns="http://www.w3.org/2000/svg"
>
	<g class="oi-circle-dollar-fill">
		<path
			class="oi-fill"
			d="M12 1C18.0751 1 23 5.92487 23 12C23 18.0751 18.0751 23 12 23C5.92487 23 1 18.0751 1 12C1 5.92487 5.92487 1 12 1ZM12 5C11.4479 5.00025 11 5.44787 11 6V7.07812C9.75111 7.31198 8.65971 8.0908 8.25684 9.54004L8.24316 9.59082L8.23438 9.64258C8.14501 10.1755 8.22211 10.6901 8.4873 11.1455C8.74013 11.5793 9.11783 11.8792 9.49023 12.0938C9.92614 12.3448 10.4565 12.5318 11 12.6865V14.8408C10.54 14.7178 10.0344 14.516 9.49316 14.209C9.01296 13.9369 8.40237 14.105 8.12988 14.585C7.85761 15.0652 8.02679 15.6757 8.50684 15.9482C9.37088 16.4383 10.2116 16.7415 11 16.8896V18C11 18.5521 11.4479 18.9998 12 19C12.5521 18.9998 13 18.5522 13 18V16.9297C13.0727 16.9178 13.145 16.9055 13.2158 16.8906C14.4852 16.6236 15.5948 15.8311 15.8838 14.6816C16.0288 14.1048 16.1557 13.2311 15.4863 12.4385C14.9855 11.8458 14.1469 11.4449 13 11.1318V9.16211C13.417 9.27417 13.8539 9.44342 14.2871 9.67578C14.7737 9.93664 15.3805 9.75401 15.6416 9.26758C15.9023 8.78108 15.7187 8.17517 15.2324 7.91406C14.525 7.53459 13.7611 7.25282 13 7.1084V6C13 5.44783 12.5521 5.00019 12 5ZM13 13.2246C13.6248 13.44 13.8712 13.6269 13.958 13.7295C13.9818 13.7574 14.0463 13.7886 13.9443 14.1943C13.9095 14.3321 13.6708 14.6914 13 14.8838V13.2246ZM11 10.5889C10.8007 10.5165 10.6294 10.4426 10.4883 10.3613C10.2964 10.2507 10.2335 10.169 10.2158 10.1387C10.2112 10.1309 10.1932 10.1047 10.2021 10.0166C10.3367 9.58765 10.6005 9.30338 11 9.14648V10.5889Z"
			fill="black"
		/>
	</g>
</svg>