<!-- ! This file is automatically generated, please don't edit it directly. -->

<svg
	width="24"
	height="24"
	viewBox="0 0 24 24"
	fill="none"
	xmlns="http://www.w3.org/2000/svg"
>
	<g class="oi-circle-back-fill">
		<path
			class="oi-fill"
			d="M12 2C16.9706 2 22 7.02944 22 12C22 16.9706 16.9706 22 12 22C7.02944 22 2 16.9706 2 12C2 7.02944 7.02944 2 12 2ZM10.707 7.29297C10.3165 6.90247 9.6835 6.90252 9.29297 7.29297L7.29297 9.29297C6.92685 9.65908 6.90426 10.2381 7.22461 10.6309L7.29297 10.707L9.29297 12.707C9.68351 13.0974 10.3166 13.0975 10.707 12.707C11.0974 12.3166 11.0974 11.6835 10.707 11.293L10.4141 11H13C14.1045 11.0001 15 11.8955 15 13C15 14.0355 14.2126 14.8869 13.2041 14.9893L13 15H12C11.4477 15 11 15.4477 11 16C11 16.5522 11.4477 17 12 17H13L13.2061 16.9951C15.3193 16.8878 17 15.1399 17 13C17 10.7909 15.209 9.00013 13 9H10.4141L10.707 8.70703C11.0974 8.31655 11.0974 7.68348 10.707 7.29297Z"
			fill="black"
		/>
	</g>
</svg>