<!-- ! This file is automatically generated, please don't edit it directly. -->

<svg
	width="24"
	height="24"
	viewBox="0 0 24 24"
	fill="none"
	xmlns="http://www.w3.org/2000/svg"
>
	<g class="oi-clipboard-empty-fill">
		<path
			class="oi-fill"
			d="M8.26953 2C8.09906 2.29437 8 2.63536 8 3V5C8 6.10457 8.89543 7 10 7H14C15.1046 7 16 6.10457 16 5V3C16 2.63536 15.9009 2.29437 15.7305 2H18C19.6569 2 21 3.34315 21 5V20C21 21.6569 19.6569 23 18 23H6C4.34315 23 3 21.6569 3 20V5C3 3.34315 4.34315 2 6 2H8.26953ZM14 5H10V3H14V5Z"
			fill="black"
		/>
	</g>
</svg>