<!-- ! This file is automatically generated, please don't edit it directly. -->

<svg
	width="24"
	height="24"
	viewBox="0 0 24 24"
	fill="none"
	xmlns="http://www.w3.org/2000/svg"
>
	<g class="oi-clock-4-fill">
		<path
			class="oi-fill"
			d="M12 2C17.5228 2 22 6.47715 22 12C22 17.5228 17.5228 22 12 22C6.47715 22 2 17.5228 2 12C2 6.47715 6.47715 2 12 2ZM12 6C11.4477 6 11 6.44772 11 7V12C11 12.2652 11.1054 12.5195 11.293 12.707L14.293 15.707C14.6835 16.0976 15.3165 16.0976 15.707 15.707C16.0976 15.3165 16.0976 14.6835 15.707 14.293L13 11.5859V7C13 6.44772 12.5523 6 12 6Z"
			fill="black"
		/>
	</g>
</svg>