<!-- ! This file is automatically generated, please don't edit it directly. -->

<svg
	width="24"
	height="24"
	viewBox="0 0 24 24"
	fill="none"
	xmlns="http://www.w3.org/2000/svg"
>
	<g class="oi-clover">
		<path
			class="oi-vector"
			d="M12 11.25C12 11.25 20.4375 2.25 12 2.25C3.5625 2.25 12 11.25 12 11.25Z"
			stroke="black"
			stroke-width="2"
			stroke-linecap="round"
			stroke-linejoin="round"
		/>
		<path
			class="oi-vector"
			d="M12 11.25C12 11.25 3 2.8125 3 11.25C3 19.6875 12 11.25 12 11.25Z"
			stroke="black"
			stroke-width="2"
			stroke-linecap="round"
			stroke-linejoin="round"
		/>
		<path
			class="oi-vector"
			d="M12 11.25C12 11.25 3.5625 20.25 12 20.25C20.4375 20.25 12 11.25 12 11.25Z"
			stroke="black"
			stroke-width="2"
			stroke-linecap="round"
			stroke-linejoin="round"
		/>
		<path
			class="oi-vector"
			d="M12 11.25C12 11.25 21 19.6875 21 11.25C21 2.8125 12 11.25 12 11.25Z"
			stroke="black"
			stroke-width="2"
			stroke-linecap="round"
			stroke-linejoin="round"
		/>
		<path
			class="oi-vector"
			d="M12 11.25C12 11.25 18 16.5 19.5 22.5"
			stroke="black"
			stroke-width="2"
			stroke-linecap="round"
			stroke-linejoin="round"
		/>
	</g>
</svg>