<!-- ! This file is automatically generated, please don't edit it directly. -->

<svg
	width="24"
	height="24"
	viewBox="0 0 24 24"
	fill="none"
	xmlns="http://www.w3.org/2000/svg"
>
	<g class="oi-club[cards]">
		<path
			class="oi-vector"
			d="M15.7341 9.26157C16.5288 8.97752 17.3875 8.9227 18.2119 9.10338C19.0364 9.28406 19.7934 9.69295 20.3965 10.2834C20.9996 10.8738 21.4245 11.6219 21.6227 12.4423C21.8209 13.2627 21.7844 14.1223 21.5174 14.923C21.2503 15.7236 20.7634 16.433 20.1124 16.9701C19.4614 17.5073 18.6724 17.8505 17.8356 17.9606C16.9988 18.0707 16.1479 17.9433 15.3801 17.5928C14.6123 17.2424 13.9585 16.6831 13.4934 15.9788L15 21H9.00001L10.5066 15.9788C10.0415 16.6831 9.3877 17.2424 8.61989 17.5928C7.85207 17.9433 7.00118 18.0707 6.16438 17.9606C5.32759 17.8505 4.53863 17.5073 3.8876 16.9701C3.23657 16.433 2.74972 15.7236 2.48266 14.923C2.21559 14.1223 2.17907 13.2627 2.37727 12.4423C2.57547 11.6219 3.0004 10.8738 3.60352 10.2834C4.20665 9.69295 4.96366 9.28406 5.7881 9.10338C6.61254 8.9227 7.47118 8.97752 8.26595 9.26157C7.81053 8.58442 7.54782 7.79618 7.50594 6.98121C7.46406 6.16623 7.64457 5.35521 8.02817 4.63494C8.41177 3.91467 8.98401 3.31227 9.68364 2.89221C10.3833 2.47215 11.184 2.25024 12 2.25024C12.8161 2.25024 13.6167 2.47215 14.3164 2.89221C15.016 3.31227 15.5882 3.91467 15.9718 4.63494C16.3554 5.35521 16.536 6.16623 16.4941 6.98121C16.4522 7.79618 16.1895 8.58442 15.7341 9.26157Z"
			stroke="black"
			stroke-width="2"
			stroke-linecap="round"
			stroke-linejoin="round"
		/>
	</g>
</svg>