<!-- ! This file is automatically generated, please don't edit it directly. -->

<svg
	width="24"
	height="24"
	viewBox="0 0 24 24"
	fill="none"
	xmlns="http://www.w3.org/2000/svg"
>
	<g class="oi-coins">
		<path
			class="oi-ellipse"
			d="M9.45411 11.2149C13.0274 11.2149 15.9241 9.91143 15.9241 8.30346C15.9241 6.69549 13.0274 5.39197 9.45411 5.39197C5.88084 5.39197 2.98413 6.69549 2.98413 8.30346C2.98413 9.91143 5.88084 11.2149 9.45411 11.2149Z"
			stroke="black"
			stroke-width="2"
			stroke-linecap="round"
			stroke-linejoin="round"
		/>
		<path
			class="oi-vector"
			d="M2.98413 8.30359V11.5386C2.98413 13.1464 5.88106 14.4501 9.45411 14.4501C13.0272 14.4501 15.9241 13.1464 15.9241 11.5386V8.30359"
			stroke="black"
			stroke-width="2"
			stroke-linecap="round"
			stroke-linejoin="round"
		/>
		<path
			class="oi-line"
			d="M6.86609 10.9724V14.2074"
			stroke="black"
			stroke-width="2"
			stroke-linecap="round"
			stroke-linejoin="round"
		/>
		<path
			class="oi-vector"
			d="M15.9241 9.33228C18.8777 9.6024 21.1001 10.7767 21.1001 12.1855C21.1001 13.7933 18.2032 15.097 14.6302 15.097C13.045 15.097 11.5925 14.8407 10.4675 14.4144"
			stroke="black"
			stroke-width="2"
			stroke-linecap="round"
			stroke-linejoin="round"
		/>
		<path
			class="oi-vector"
			d="M8.16016 14.3916V15.4203C8.16016 17.0281 11.0571 18.3318 14.6301 18.3318C18.2032 18.3318 21.1001 17.0281 21.1001 15.4203V12.1853"
			stroke="black"
			stroke-width="2"
			stroke-linecap="round"
			stroke-linejoin="round"
		/>
		<path
			class="oi-line"
			d="M17.218 14.8542V18.0892"
			stroke="black"
			stroke-width="2"
			stroke-linecap="round"
			stroke-linejoin="round"
		/>
		<path
			class="oi-line"
			d="M12.0422 10.9724V18.0894"
			stroke="black"
			stroke-width="2"
			stroke-linecap="round"
			stroke-linejoin="round"
		/>
	</g>
</svg>