<!-- ! This file is automatically generated, please don't edit it directly. -->

<svg
	width="24"
	height="24"
	viewBox="0 0 24 24"
	fill="none"
	xmlns="http://www.w3.org/2000/svg"
>
	<g class="oi-cookie">
		<path
			class="oi-vector"
			d="M21 12C19.8065 12 18.6619 11.5259 17.818 10.682C16.9741 9.83807 16.5 8.69347 16.5 7.5C15.3065 7.5 14.1619 7.02589 13.318 6.18198C12.4741 5.33807 12 4.19347 12 3C10.22 3 8.47991 3.52784 6.99986 4.51677C5.51982 5.50571 4.36627 6.91131 3.68508 8.55585C3.00389 10.2004 2.82566 12.01 3.17293 13.7558C3.5202 15.5016 4.37736 17.1053 5.63604 18.364C6.89471 19.6226 8.49835 20.4798 10.2442 20.8271C11.99 21.1743 13.7996 20.9961 15.4441 20.3149C17.0887 19.6337 18.4943 18.4802 19.4832 17.0001C20.4722 15.5201 21 13.78 21 12Z"
			stroke="black"
			stroke-width="2"
			stroke-linecap="round"
			stroke-linejoin="round"
		/>
		<path
			class="oi-mini-dot"
			d="M12.5 11.5H12.512"
			stroke="black"
			stroke-width="2"
			stroke-linecap="round"
		/>
		<path
			class="oi-mini-dot"
			d="M8 10H8.012"
			stroke="black"
			stroke-width="2"
			stroke-linecap="round"
		/>
		<path
			class="oi-mini-dot"
			d="M8.75 15.25H8.762"
			stroke="black"
			stroke-width="2"
			stroke-linecap="round"
		/>
		<path
			class="oi-mini-dot"
			d="M14.75 16H14.762"
			stroke="black"
			stroke-width="2"
			stroke-linecap="round"
		/>
	</g>
</svg>