<!-- ! This file is automatically generated, please don't edit it directly. -->

<svg
	width="24"
	height="24"
	viewBox="0 0 24 24"
	fill="none"
	xmlns="http://www.w3.org/2000/svg"
>
	<g class="oi-couch">
		<path
			class="oi-vector"
			d="M2.24947 10.5001V6.75012C2.24947 6.55121 2.32849 6.36044 2.46914 6.21979C2.6098 6.07914 2.80056 6.00012 2.99947 6.00012H20.9995C21.1984 6.00012 21.3892 6.07914 21.5298 6.21979C21.6705 6.36044 21.7495 6.55121 21.7495 6.75012V10.5001"
			stroke="black"
			stroke-width="2"
			stroke-linecap="round"
			stroke-linejoin="round"
		/>
		<path
			class="oi-line"
			d="M20.2495 16.5001V18.7501"
			stroke="black"
			stroke-width="2"
			stroke-linecap="round"
			stroke-linejoin="round"
		/>
		<path
			class="oi-line"
			d="M3.74945 16.5001V18.7501"
			stroke="black"
			stroke-width="2"
			stroke-linecap="round"
			stroke-linejoin="round"
		/>
		<path
			class="oi-vector"
			d="M19.4995 13.5001V11.2501C19.4995 11.0512 19.5785 10.8604 19.7191 10.7198C19.8598 10.5791 20.0505 10.5001 20.2495 10.5001H21.7495C21.9484 10.5001 22.1391 10.5791 22.2798 10.7198C22.4204 10.8604 22.4995 11.0512 22.4995 11.2501V15.7501C22.4995 15.949 22.4204 16.1398 22.2798 16.2805C22.1391 16.4211 21.9484 16.5001 21.7495 16.5001H2.24945C2.05054 16.5001 1.85977 16.4211 1.71912 16.2805C1.57847 16.1398 1.49945 15.949 1.49945 15.7501V11.2501C1.49945 11.0512 1.57847 10.8604 1.71912 10.7198C1.85977 10.5791 2.05054 10.5001 2.24945 10.5001H3.74945C3.94836 10.5001 4.13913 10.5791 4.27978 10.7198C4.42043 10.8604 4.49945 11.0512 4.49945 11.2501V13.5001H19.4995Z"
			stroke="black"
			stroke-width="2"
			stroke-linecap="round"
			stroke-linejoin="round"
		/>
		<path
			class="oi-line"
			d="M11.9995 6.00012V13.5001"
			stroke="black"
			stroke-width="2"
			stroke-linecap="round"
			stroke-linejoin="round"
		/>
	</g>
</svg>