<!-- ! This file is automatically generated, please don't edit it directly. -->

<svg
	width="24"
	height="24"
	viewBox="0 0 24 24"
	fill="none"
	xmlns="http://www.w3.org/2000/svg"
>
	<g class="oi-crown-alt-fill">
		<path
			class="oi-fill"
			d="M12 2C12.3632 2 12.6977 2.19717 12.874 2.51465L15.5752 7.37598C15.7872 7.7572 16.0799 8.08814 16.4326 8.34473C16.7854 8.6013 17.1902 8.77806 17.6182 8.8623C18.0461 8.94648 18.4875 8.93579 18.9111 8.83203C19.3348 8.72822 19.7317 8.53322 20.0723 8.26074L21.376 7.21875C21.7042 6.95653 22.1617 6.92698 22.5205 7.14551C22.8794 7.36408 23.0629 7.78427 22.9805 8.19629L21.2266 16.9658C21.1201 17.4977 20.8936 17.9986 20.5645 18.4297C20.2352 18.8609 19.8114 19.2114 19.3262 19.4541C17.0515 20.5915 14.5432 21.1836 12 21.1836C9.45681 21.1836 6.9485 20.5915 4.67383 19.4541C4.18861 19.2114 3.76484 18.8609 3.43555 18.4297C3.10639 17.9986 2.87986 17.4977 2.77344 16.9658L1.01953 8.19629C0.937107 7.78417 1.12146 7.36403 1.48047 7.14551C1.83942 6.92724 2.2969 6.95632 2.625 7.21875L3.92871 8.26172C4.26932 8.53415 4.66523 8.72925 5.08887 8.83301C5.51265 8.93674 5.95475 8.94663 6.38281 8.8623C6.81065 8.77795 7.21477 8.6013 7.56738 8.34473C7.92014 8.08803 8.21291 7.75733 8.4248 7.37598L11.126 2.51465C11.3023 2.19719 11.6368 2.00002 12 2ZM16.8896 14.543C16.6373 14.0518 16.0342 13.8581 15.543 14.1104C13.2338 15.296 10.7662 15.296 8.45703 14.1104C7.96579 13.8581 7.36268 14.0518 7.11035 14.543C6.85811 15.0342 7.05179 15.6373 7.54297 15.8896C10.4257 17.3699 13.5743 17.3699 16.457 15.8896C16.9482 15.6373 17.1419 15.0342 16.8896 14.543Z"
			fill="black"
		/>
	</g>
</svg>