<!-- ! This file is automatically generated, please don't edit it directly. -->

<svg
	width="24"
	height="24"
	viewBox="0 0 24 24"
	fill="none"
	xmlns="http://www.w3.org/2000/svg"
>
	<g class="oi-delete-fill">
		<path
			class="oi-fill"
			d="M14.9377 2.61072C15.9463 2.71309 16.7336 3.56441 16.7336 4.59998V6.33337H18.2551C18.4534 6.11219 18.7475 5.98108 19.0667 6.00232C19.338 6.02048 19.5762 6.14554 19.7444 6.33337H21.2004C21.7525 6.33359 22.2004 6.78122 22.2004 7.33337C22.2004 7.88547 21.7525 8.33316 21.2004 8.33337H19.9133L19.0598 21.1332C18.9896 22.1835 18.1174 23.0002 17.0647 23.0004H6.93579C5.88299 23.0004 5.0109 22.1836 4.94067 21.1332L4.08716 8.33337H2.80005C2.2478 8.33337 1.80011 7.8856 1.80005 7.33337C1.80005 6.78109 2.24776 6.33337 2.80005 6.33337H4.25513C4.42339 6.14535 4.6623 6.02042 4.93384 6.00232C5.25283 5.98116 5.54619 6.11239 5.74438 6.33337H7.26685V4.59998C7.26685 3.49541 8.16228 2.59998 9.26685 2.59998H14.7336L14.9377 2.61072ZM6.87231 20.059L9.18091 17.5726C9.36173 17.8308 9.66112 18.0004 10.0002 18.0004C10.5523 18.0002 11 17.5524 11.0002 17.0004V15.6136L13.0002 13.4594V17.0004C13.0004 17.5525 13.4481 18.0004 14.0002 18.0004C14.5523 18.0002 15 17.5524 15.0002 17.0004V11.306L17.761 8.33337H6.09106L6.87231 20.059ZM9.26685 6.33337H14.7336V4.59998H9.26685V6.33337Z"
			fill="black"
		/>
	</g>
</svg>