<!-- ! This file is automatically generated, please don't edit it directly. -->

<svg
	width="24"
	height="24"
	viewBox="0 0 24 24"
	fill="none"
	xmlns="http://www.w3.org/2000/svg"
>
	<g class="oi-discount-alt-fill">
		<path
			class="oi-fill"
			d="M11.6021 6C13.5455 6 15.1155 6.5441 16.3022 7.52051C17.4809 8.49023 18.201 9.81974 18.5776 11.2549C19.3223 14.0929 18.7728 17.5158 17.5396 20.1475C17.2874 20.6851 16.7512 21 16.1909 21H7.01416C6.45644 21 5.91823 20.688 5.66553 20.1465C4.44165 17.5214 3.88817 14.0995 4.62842 11.2607C5.00284 9.82509 5.72179 8.49456 6.8999 7.52344C8.08615 6.54567 9.6559 6.00008 11.6021 6ZM14.0005 15C13.1721 15 12.5005 15.6716 12.5005 16.5C12.5005 17.3284 13.1721 18 14.0005 18H14.0122C14.8404 17.9997 15.5122 17.3283 15.5122 16.5C15.5122 15.6717 14.8404 15.0003 14.0122 15H14.0005ZM14.8032 10.9395C14.4373 10.5736 13.8581 10.5503 13.4653 10.8701L13.3892 10.9395L8.43994 15.8887C8.04942 16.2792 8.04942 16.9132 8.43994 17.3037C8.83047 17.6936 9.46367 17.6939 9.854 17.3037L14.8032 12.3535L14.8726 12.2773C15.1924 11.8847 15.1689 11.3054 14.8032 10.9395ZM9.00049 10C8.17206 10 7.50049 10.6716 7.50049 11.5C7.50049 12.3284 8.17206 13 9.00049 13H9.01221C9.84041 12.9997 10.5122 12.3283 10.5122 11.5C10.5122 10.6717 9.84041 10.0003 9.01221 10H9.00049Z"
			fill="black"
		/>
		<path
			class="oi-fill"
			d="M10.2676 6.5H13.7324C13.8996 6.5 14.0557 6.41645 14.1484 6.27735L15.4818 4.27735C15.7033 3.94507 15.4651 3.5 15.0657 3.5H8.93426C8.53491 3.5 8.29671 3.94507 8.51823 4.27735L9.85157 6.27735C9.9443 6.41645 10.1004 6.5 10.2676 6.5Z"
			fill="black"
		/>
	</g>
</svg>