<!-- ! This file is automatically generated, please don't edit it directly. -->

<svg
	width="24"
	height="24"
	viewBox="0 0 24 24"
	fill="none"
	xmlns="http://www.w3.org/2000/svg"
>
	<g class="oi-discount-fill" clip-path="url(#clip0_2603_9417)">
		<path
			class="oi-fill"
			d="M12 0C12.5587 0 13.092 0.233685 13.4707 0.644531L14.6875 1.96582L16.4033 1.43066C16.9368 1.26402 17.516 1.32803 18 1.60742C18.4839 1.88681 18.8287 2.3562 18.9512 2.90137L19.3438 4.65527L21.0986 5.04883C21.6438 5.17131 22.1132 5.51609 22.3926 6C22.672 6.484 22.736 7.06325 22.5693 7.59668L22.0332 9.31152L23.3555 10.5293C23.7663 10.908 24 11.4413 24 12C24 12.5587 23.7663 13.092 23.3555 13.4707L22.0332 14.6875L22.5693 16.4033C22.736 16.9368 22.672 17.516 22.3926 18C22.1132 18.4839 21.6438 18.8287 21.0986 18.9512L19.3438 19.3438L18.9512 21.0986C18.8287 21.6438 18.4839 22.1132 18 22.3926C17.516 22.672 16.9368 22.736 16.4033 22.5693L14.6875 22.0332L13.4707 23.3555C13.092 23.7663 12.5587 24 12 24C11.4413 24 10.908 23.7663 10.5293 23.3555L9.31152 22.0332L7.59668 22.5693C7.06325 22.736 6.484 22.672 6 22.3926C5.51609 22.1132 5.17131 21.6438 5.04883 21.0986L4.65527 19.3438L2.90137 18.9512C2.3562 18.8287 1.88681 18.4839 1.60742 18C1.32803 17.516 1.26402 16.9368 1.43066 16.4033L1.96582 14.6875L0.644531 13.4707C0.233685 13.092 0 12.5587 0 12C0 11.4413 0.233685 10.908 0.644531 10.5293L1.96582 9.31152L1.43066 7.59668C1.26402 7.06325 1.32803 6.484 1.60742 6C1.88681 5.51609 2.3562 5.17131 2.90137 5.04883L4.65527 4.65527L5.04883 2.90137C5.17131 2.3562 5.51609 1.88681 6 1.60742C6.484 1.32803 7.06325 1.26402 7.59668 1.43066L9.31152 1.96582L10.5293 0.644531C10.908 0.233685 11.4413 0 12 0ZM15.0049 13.4951C14.1765 13.4952 13.5049 14.1667 13.5049 14.9951V15.0049C13.5049 15.8333 14.1765 16.5048 15.0049 16.5049C15.8333 16.5049 16.5049 15.8333 16.5049 15.0049V14.9951C16.5049 14.1667 15.8333 13.4951 15.0049 13.4951ZM14.7119 9.28809C14.3214 8.89762 13.6884 8.89758 13.2979 9.28809L9.29785 13.2881C8.90767 13.6786 8.9075 14.3117 9.29785 14.7021C9.68827 15.0926 10.3214 15.0923 10.7119 14.7021L14.7119 10.7021C15.1024 10.3116 15.1024 9.67861 14.7119 9.28809ZM9.00488 7.49512C8.17651 7.49518 7.50488 8.16673 7.50488 8.99512V9.00488C7.50488 9.83327 8.17651 10.5048 9.00488 10.5049C9.83331 10.5049 10.5049 9.83331 10.5049 9.00488V8.99512C10.5049 8.16669 9.83331 7.49512 9.00488 7.49512Z"
			fill="black"
		/>
	</g>
	<defs>
		<clipPath class="clip0_2603_9417">
			<rect width="24" height="24" fill="white" />
		</clipPath>
	</defs>
</svg>