<!-- ! This file is automatically generated, please don't edit it directly. -->

<svg
	width="24"
	height="24"
	viewBox="0 0 24 24"
	fill="none"
	xmlns="http://www.w3.org/2000/svg"
>
	<g class="oi-disconnect-fill">
		<path
			class="oi-fill"
			d="M9.29297 10.293C9.68349 9.90244 10.3165 9.90244 10.707 10.293C11.0976 10.6835 11.0976 11.3165 10.707 11.707L10.1211 12.292L11.707 13.8779L12.293 13.293C12.6835 12.9024 13.3165 12.9024 13.707 13.293C14.0976 13.6835 14.0976 14.3165 13.707 14.707L13.1211 15.292L13.415 15.5859C14.1954 16.3669 14.1954 17.6331 13.415 18.4141L11.915 19.9141C9.99466 21.8344 7.01462 22.0472 4.85742 20.5557L3.70703 21.707C3.31651 22.0976 2.68349 22.0976 2.29297 21.707C1.90244 21.3165 1.90244 20.6835 2.29297 20.293L3.44336 19.1416C1.9526 16.9846 2.16601 14.006 4.08594 12.0859L5.58594 10.5859C6.367 9.80507 7.63405 9.80495 8.41504 10.5859L8.70703 10.8779L9.29297 10.293ZM20.293 2.29297C20.6835 1.90244 21.3165 1.90244 21.707 2.29297C22.0976 2.68349 22.0976 3.31651 21.707 3.70703L20.5557 4.85742C22.0471 7.01462 21.8344 9.99469 19.9141 11.915L18.4141 13.415C17.6332 14.1954 16.3668 14.1954 15.5859 13.415L10.5859 8.41504C9.80497 7.63407 9.80513 6.36701 10.5859 5.58594L12.0859 4.08594C14.0061 2.166 16.9846 1.95256 19.1416 3.44336L20.293 2.29297Z"
			fill="black"
		/>
	</g>
</svg>