<!-- ! This file is automatically generated, please don't edit it directly. -->

<svg
	width="24"
	height="24"
	viewBox="0 0 24 24"
	fill="none"
	xmlns="http://www.w3.org/2000/svg"
>
	<g class="oi-document-check-fill">
		<path
			class="oi-fill"
			d="M13 8C13 8.55228 13.4477 9 14 9H21V20C21 21.6569 19.6569 23 18 23H6C4.34315 23 3 21.6569 3 20V4C3 2.34315 4.34315 1 6 1H13V8ZM15.707 12.293C15.3165 11.9024 14.6835 11.9024 14.293 12.293L11 15.5859L9.70703 14.293C9.31651 13.9024 8.68349 13.9024 8.29297 14.293C7.90244 14.6835 7.90244 15.3165 8.29297 15.707L10.293 17.707C10.6835 18.0976 11.3165 18.0976 11.707 17.707L15.707 13.707C16.0976 13.3165 16.0976 12.6835 15.707 12.293ZM20.6973 6.83887C20.7478 6.88808 20.7924 6.94224 20.8311 7H15V1.30078L20.6973 6.83887Z"
			fill="black"
		/>
	</g>
</svg>