<!-- ! This file is automatically generated, please don't edit it directly. -->

<svg
	width="24"
	height="24"
	viewBox="0 0 24 24"
	fill="none"
	xmlns="http://www.w3.org/2000/svg"
>
	<g class="oi-film-slate">
		<path
			class="oi-box"
			d="M3.75 10.5H20.25V18.75C20.25 18.9489 20.171 19.1397 20.0303 19.2803C19.8897 19.421 19.6989 19.5 19.5 19.5H4.5C4.30109 19.5 4.11032 19.421 3.96967 19.2803C3.82902 19.1397 3.75 18.9489 3.75 18.75V10.5Z"
			stroke="black"
			stroke-width="2"
			stroke-linecap="round"
			stroke-linejoin="round"
		/>
		<path
			class="oi-vector"
			d="M3.79031 10.5L19.5 6.35344L18.735 3.54094C18.6822 3.3532 18.5575 3.19385 18.388 3.09749C18.2184 3.00113 18.0177 2.97553 17.8294 3.02626L3.54843 6.79407C3.4551 6.81784 3.36742 6.8599 3.29047 6.91782C3.21352 6.97574 3.14884 7.04836 3.10018 7.13148C3.05152 7.21459 3.01984 7.30653 3.00699 7.40198C2.99414 7.49743 3.00036 7.59448 3.02531 7.68751L3.79031 10.5Z"
			stroke="black"
			stroke-width="2"
			stroke-linecap="round"
			stroke-linejoin="round"
		/>
		<path
			class="oi-line"
			d="M6.34781 6.0553L10.8281 8.6428"
			stroke="black"
			stroke-width="2"
			stroke-linecap="round"
			stroke-linejoin="round"
		/>
		<path
			class="oi-line"
			d="M11.8697 4.59845L16.35 7.18501"
			stroke="black"
			stroke-width="2"
			stroke-linecap="round"
			stroke-linejoin="round"
		/>
	</g>
</svg>