<!-- ! This file is automatically generated, please don't edit it directly. -->

<svg
	width="24"
	height="24"
	viewBox="0 0 24 24"
	fill="none"
	xmlns="http://www.w3.org/2000/svg"
>
	<g class="oi-flower-fill">
		<path
			class="oi-fill"
			d="M12 1C13.4946 1.0001 14.7242 1.90886 15.6494 3.1875C17.2083 2.93723 18.721 3.16459 19.7783 4.22168C20.8352 5.27876 21.0623 6.79106 20.8125 8.34961C22.0914 9.27481 22.9999 10.5052 23 12C22.9999 13.4947 22.0911 14.7242 20.8125 15.6494C21.0626 17.2083 20.8356 18.721 19.7783 19.7783C18.7211 20.8356 17.2083 21.0626 15.6494 20.8125C14.7242 22.0911 13.4947 22.9999 12 23C10.505 22.9999 9.27417 22.0914 8.34863 20.8125C6.79042 21.0621 5.27854 20.835 4.22168 19.7783C3.16478 18.7213 2.93747 17.2089 3.1875 15.6504C1.90864 14.7251 1.0001 13.495 1 12C1.0001 10.5052 1.90862 9.27481 3.1875 8.34961C2.93739 6.79106 3.1646 5.27876 4.22168 4.22168C5.27832 3.16508 6.78979 2.9379 8.34766 3.1875C9.27322 1.90833 10.5048 1.00009 12 1ZM12 8C9.79082 8 8 9.79082 8 12C8 14.2092 9.79082 16 12 16C14.2092 16 16 14.2092 16 12C16 9.79082 14.2092 8 12 8ZM12 10C13.1046 10 14 10.8954 14 12C14 13.1046 13.1046 14 12 14C10.8954 14 10 13.1046 10 12C10 10.8954 10.8954 10 12 10Z"
			fill="black"
		/>
	</g>
</svg>