<!-- ! This file is automatically generated, please don't edit it directly. -->

<svg
	width="24"
	height="24"
	viewBox="0 0 24 24"
	fill="none"
	xmlns="http://www.w3.org/2000/svg"
>
	<g class="oi-folder-upload-fill">
		<path
			class="oi-fill"
			d="M9 4C9.26522 4 9.5195 4.10543 9.70703 4.29297L11.4141 6H20C21.1046 6 22 6.89543 22 8V18C22 19.1046 21.1046 20 20 20H4C2.89543 20 2 19.1046 2 18V6C2 4.89543 2.89543 4 4 4H9ZM12 9.5C11.7679 9.5 11.5442 9.58073 11.3662 9.72656L11.293 9.79297L9.29297 11.793C8.90244 12.1835 8.90244 12.8165 9.29297 13.207C9.68349 13.5976 10.3165 13.5976 10.707 13.207L11 12.9141V15.5C11 16.0523 11.4477 16.5 12 16.5C12.5523 16.5 13 16.0523 13 15.5V12.9141L13.293 13.207C13.6835 13.5976 14.3165 13.5976 14.707 13.207C15.0976 12.8165 15.0976 12.1835 14.707 11.793L12.707 9.79297C12.5195 9.60543 12.2652 9.5 12 9.5Z"
			fill="black"
		/>
	</g>
</svg>