<!-- ! This file is automatically generated, please don't edit it directly. -->

<svg
	width="24"
	height="24"
	viewBox="0 0 24 24"
	fill="none"
	xmlns="http://www.w3.org/2000/svg"
>
	<g class="oi-ghost">
		<path
			class="oi-fill"
			fill-rule="evenodd"
			clip-rule="evenodd"
			d="M9.76779 9.41425C10.3201 9.41425 10.7678 9.86196 10.7678 10.4142L10.7678 10.9952C10.8028 11.2892 10.7076 11.5958 10.482 11.8214L10.4749 11.8285C10.1889 12.1145 9.75878 12.2 9.3851 12.0452C9.01143 11.8905 8.76779 11.5258 8.76779 11.1214L8.76779 10.4142C8.76779 9.86196 9.2155 9.41425 9.76779 9.41425Z"
			fill="black"
		/>
		<path
			class="oi-fill"
			fill-rule="evenodd"
			clip-rule="evenodd"
			d="M13.7678 9.41425C14.3201 9.41425 14.7678 9.86196 14.7678 10.4142L14.7678 10.9952C14.8028 11.2892 14.7076 11.5958 14.482 11.8214L14.4749 11.8285C14.1889 12.1145 13.7588 12.2 13.3851 12.0452C13.0114 11.8905 12.7678 11.5258 12.7678 11.1214L12.7678 10.4142C12.7678 9.86196 13.2155 9.41425 13.7678 9.41425Z"
			fill="black"
		/>
		<path
			class="oi-vector"
			d="M12 3C16.4123 3 19.9998 6.55613 20 10.9561V18.1777C20 18.8659 19.6463 19.5062 19.0635 19.8721L17.9707 20.5576C17.0724 21.1214 15.9176 21.0727 15.0703 20.4346C14.7944 20.2268 14.6028 20.1797 14.4746 20.1787C14.3489 20.1779 14.1554 20.2205 13.8711 20.4346C13.0238 21.0727 11.869 21.1214 10.9707 20.5576C10.4269 20.2163 10.1429 20.147 9.93848 20.1504C9.72385 20.1541 9.41649 20.241 8.83105 20.6084C7.99951 21.1303 6.94191 21.1303 6.11035 20.6084L4.93652 19.8721C4.35372 19.5062 4 18.8659 4 18.1777V10.9561L4.01074 10.5469C4.22512 6.33776 7.72536 3 12 3Z"
			stroke="black"
			stroke-width="2"
		/>
	</g>
</svg>