<!-- ! This file is automatically generated, please don't edit it directly. -->

<svg
	width="24"
	height="24"
	viewBox="0 0 24 24"
	fill="none"
	xmlns="http://www.w3.org/2000/svg"
>
	<g class="oi-goblet">
		<path
			class="oi-vector"
			d="M7 10C4.6 10 4 8 4 7V4.5C4 4.22386 4.22386 4 4.5 4H7"
			stroke="black"
			stroke-width="2"
			stroke-linecap="round"
		/>
		<path
			class="oi-vector"
			d="M17 10C19.4 10 20 8 20 7V4.5C20 4.22386 19.7761 4 19.5 4H17"
			stroke="black"
			stroke-width="2"
			stroke-linecap="round"
		/>
		<path
			class="oi-vector"
			d="M7 3H17V9C17 11.7614 14.7614 14 12 14V14C9.23858 14 7 11.7614 7 9V3Z"
			stroke="black"
			stroke-width="2"
			stroke-linecap="round"
			stroke-linejoin="round"
		/>
		<path
			class="oi-vector"
			d="M12 14V18M12 18L8 19V21H16V19L12 18Z"
			stroke="black"
			stroke-width="2"
			stroke-linecap="round"
			stroke-linejoin="round"
		/>
	</g>
</svg>