<!-- ! This file is automatically generated, please don't edit it directly. -->

<svg
	width="24"
	height="24"
	viewBox="0 0 24 24"
	fill="none"
	xmlns="http://www.w3.org/2000/svg"
>
	<g class="oi-headphones">
		<path
			class="oi-vector"
			d="M20.0614 16.7897L19.8026 17.7556C19.3738 19.356 17.7288 20.3057 16.1284 19.8769L15.1624 19.6181L16.9742 12.8566L17.9401 13.1154C19.5405 13.5443 20.4902 15.1893 20.0614 16.7897ZM20.0614 16.7897C20.0614 16.7897 21.1667 15.0002 21 12.0002C20.8334 9.00017 18.9 3.00017 12.5 3.00017L11.4585 3.00017C5.05848 3.00017 3.12515 9.00017 2.95848 12.0002C2.79182 15.0002 3.89712 16.7897 3.89712 16.7897M3.89712 16.7897L4.15594 17.7556C4.58476 19.356 6.22977 20.3057 7.83017 19.8769L8.7961 19.6181L6.98436 12.8566L6.01844 13.1154C4.41804 13.5443 3.46829 15.1893 3.89712 16.7897Z"
			stroke="black"
			stroke-width="2"
			stroke-miterlimit="10"
			stroke-linecap="round"
			stroke-linejoin="round"
		/>
	</g>
</svg>