<!-- ! This file is automatically generated, please don't edit it directly. -->

<svg
	width="24"
	height="24"
	viewBox="0 0 24 24"
	fill="none"
	xmlns="http://www.w3.org/2000/svg"
>
	<g class="oi-heart-off[unlike,like]">
		<path
			class="oi-fill"
			d="M3.43992 4.25035C3.48523 4.30674 3.5331 4.36208 3.58542 4.41441L4.84617 5.67515C4.78351 5.72986 4.72168 5.78619 4.66159 5.84507C2.97919 7.49405 2.97933 10.1589 4.66159 11.808L11.9995 18.9994L15.1157 15.9447L16.5307 17.3597L12.6997 21.1146C12.311 21.4953 11.689 21.4952 11.3003 21.1146L3.26218 13.2367C0.779308 10.8034 0.779303 6.84964 3.26218 4.41636C3.32032 4.35939 3.38012 4.30464 3.43992 4.25035ZM11.9995 4.22593C14.4824 1.99662 18.333 2.05971 20.7378 4.41636C23.2206 6.84961 23.2205 10.8034 20.7378 13.2367L19.3872 14.5599L17.9721 13.1449L19.3374 11.808C21.0201 10.1589 21.0201 7.49417 19.3374 5.84507C17.6434 4.18517 14.8887 4.18502 13.1948 5.84507L12.6997 6.33043C12.3109 6.71146 11.6891 6.7114 11.3003 6.33043L10.8042 5.84507C10.5959 5.64098 10.3716 5.46188 10.1352 5.30797L7.43601 2.60875C9.06343 2.53434 10.7145 3.07239 11.9995 4.22593Z"
			fill="black"
		/>
		<path
			class="oi-vector"
			d="M5 3L20 18"
			stroke="black"
			stroke-width="2"
			stroke-miterlimit="10"
			stroke-linecap="round"
			stroke-linejoin="round"
		/>
	</g>
</svg>