<!-- ! This file is automatically generated, please don't edit it directly. -->

<svg
	width="24"
	height="24"
	viewBox="0 0 24 24"
	fill="none"
	xmlns="http://www.w3.org/2000/svg"
>
	<g class="oi-leaf-fill">
		<path
			class="oi-fill"
			fill-rule="evenodd"
			clip-rule="evenodd"
			d="M15.2929 15.293C15.6834 14.9025 16.3166 14.9025 16.7071 15.293L19.7071 18.293C20.0976 18.6836 20.0976 19.3167 19.7071 19.7073C19.3166 20.0978 18.6834 20.0978 18.2929 19.7073L15.2929 16.7073C14.9024 16.3167 14.9024 15.6836 15.2929 15.293Z"
			fill="black"
		/>
		<path
			class="oi-fill"
			d="M5.06934 4.04285L5.13574 4.04382C5.1921 4.0446 5.27308 4.04573 5.37598 4.04871C5.58244 4.05467 5.87818 4.06719 6.24023 4.0907C6.96282 4.13762 7.95945 4.23114 9.05371 4.4198C11.1796 4.78633 13.9207 5.5485 15.6064 7.23425C17.8818 9.50968 18.4817 12.9933 16.8164 15.4237C16.8032 15.4051 16.79 15.3859 16.7754 15.368L16.707 15.2928L11.707 10.2928C11.3165 9.9024 10.6835 9.9024 10.293 10.2928C9.90246 10.6834 9.90251 11.3164 10.293 11.7069L15.293 16.7069L15.3682 16.7753C15.3861 16.7899 15.4052 16.8031 15.4238 16.8163C12.9934 18.4816 9.5098 17.8817 7.23438 15.6063C5.54863 13.9206 4.78646 11.1795 4.41992 9.05359C4.23126 7.95933 4.13775 6.9627 4.09082 6.24011C4.06731 5.87806 4.0548 5.58232 4.04883 5.37585C4.04586 5.27296 4.04472 5.19198 4.04395 5.13562L4.04297 5.06921V5.04382L5.04297 5.04285C4.04297 5.04285 4.04297 5.04259 4.04297 5.04285L4.43848 4.44812C4.44038 4.44619 4.74124 4.25766 4.74316 4.25574C4.75211 4.25233 5.03393 5.046 5.04297 5.04285C5.04297 4.08387 5.04272 4.04446 5.04297 4.04285H5.06934Z"
			fill="black"
		/>
	</g>
</svg>