<!-- ! This file is automatically generated, please don't edit it directly. -->

<svg
	width="24"
	height="24"
	viewBox="0 0 24 24"
	fill="none"
	xmlns="http://www.w3.org/2000/svg"
>
	<g class="oi-line-chart-fill">
		<path
			class="oi-fill"
			d="M18.4131 13.1572C18.6005 13.3446 18.8551 13.4501 19.1201 13.4502C19.3852 13.4502 19.6396 13.3446 19.8271 13.1572L21.5 11.4844V16C21.5 17.6569 20.1569 19 18.5 19H5.5C4.04846 19 2.83735 17.9692 2.55957 16.5996C2.56745 16.5922 2.57629 16.5858 2.58398 16.5781L6.49512 12.667L9.00488 15.1758C9.39539 15.5659 10.0285 15.5661 10.4189 15.1758L15.4248 10.1689L18.4131 13.1572ZM18.5 5C20.1569 5 21.5 6.34315 21.5 8V8.65625L19.1201 11.0361L16.1318 8.04785C15.7413 7.65762 15.1082 7.65742 14.7178 8.04785L9.71094 13.0537L7.20312 10.5459C6.837 10.1799 6.25699 10.1562 5.86426 10.4766L5.78809 10.5459L2.5 13.834V8C2.5 6.34315 3.84315 5 5.5 5H18.5Z"
			fill="black"
		/>
	</g>
</svg>