<!-- ! This file is automatically generated, please don't edit it directly. -->

<svg
	width="24"
	height="24"
	viewBox="0 0 24 24"
	fill="none"
	xmlns="http://www.w3.org/2000/svg"
>
	<g class="oi-machine-learning">
		<rect
			class="oi-box"
			x="5"
			y="9"
			width="10"
			height="10"
			rx="2"
			stroke="black"
			stroke-width="2"
		/>
		<path
			class="oi-line"
			d="M5 12H3"
			stroke="black"
			stroke-width="2"
			stroke-linecap="round"
		/>
		<path
			class="oi-line"
			d="M8 9L8 7"
			stroke="black"
			stroke-width="2"
			stroke-linecap="round"
		/>
		<path
			class="oi-line"
			d="M8 21L8 19"
			stroke="black"
			stroke-width="2"
			stroke-linecap="round"
		/>
		<path
			class="oi-line"
			d="M12 9L12 7"
			stroke="black"
			stroke-width="2"
			stroke-linecap="round"
		/>
		<path
			class="oi-line"
			d="M12 21L12 19"
			stroke="black"
			stroke-width="2"
			stroke-linecap="round"
		/>
		<path
			class="oi-line"
			d="M17 12H15"
			stroke="black"
			stroke-width="2"
			stroke-linecap="round"
		/>
		<path
			class="oi-line"
			d="M5 16H3"
			stroke="black"
			stroke-width="2"
			stroke-linecap="round"
		/>
		<path
			class="oi-line"
			d="M17 16H15"
			stroke="black"
			stroke-width="2"
			stroke-linecap="round"
		/>
		<path
			class="oi-vector"
			d="M18.8922 3.53884L19 3L19.1078 3.53884C19.3453 4.72642 20.2736 5.65472 21.4612 5.89223L22 6L21.4612 6.10777C20.2736 6.34528 19.3453 7.27358 19.1078 8.46116L19 9L18.8922 8.46116C18.6547 7.27358 17.7264 6.34528 16.5388 6.10777L16 6L16.5388 5.89223C17.7264 5.65472 18.6547 4.72642 18.8922 3.53884Z"
			stroke="black"
			stroke-width="2"
			stroke-miterlimit="10"
			stroke-linecap="round"
			stroke-linejoin="round"
		/>
		<rect
			class="oi-fill"
			x="8"
			y="12"
			width="4"
			height="4"
			rx="1"
			fill="black"
		/>
	</g>
</svg>