<!-- ! This file is automatically generated, please don't edit it directly. -->

<svg
	width="24"
	height="24"
	viewBox="0 0 24 24"
	fill="none"
	xmlns="http://www.w3.org/2000/svg"
>
	<g class="oi-marquee-selection">
		<path
			class="oi-vector"
			d="M14.1519 12.5981L17.847 21.097L18.586 17.0323L22.6507 16.2933L14.1519 12.5981Z"
			stroke="black"
			stroke-width="2"
			stroke-linecap="round"
			stroke-linejoin="round"
		/>
		<path
			class="oi-vector"
			d="M3 19.25V19.75C3 21.1307 4.11929 22.25 5.5 22.25"
			stroke="black"
			stroke-width="2"
			stroke-linecap="round"
		/>
		<path
			class="oi-vector"
			d="M3 6.25V5.75C3 4.36929 4.11929 3.25 5.5 3.25"
			stroke="black"
			stroke-width="2"
			stroke-linecap="round"
		/>
		<path
			class="oi-vector"
			d="M20.75 6.25V5.75C20.75 4.36929 19.6307 3.25 18.25 3.25"
			stroke="black"
			stroke-width="2"
			stroke-linecap="round"
		/>
		<path
			class="oi-line"
			d="M3 15.75V14.25"
			stroke="black"
			stroke-width="2"
			stroke-linecap="round"
		/>
		<path
			class="oi-line"
			d="M8.75 3L10.25 3"
			stroke="black"
			stroke-width="2"
			stroke-linecap="round"
		/>
		<path
			class="oi-line"
			d="M8.75 22.5L10.25 22.5"
			stroke="black"
			stroke-width="2"
			stroke-linecap="round"
		/>
		<path
			class="oi-line"
			d="M3 11V9.5"
			stroke="black"
			stroke-width="2"
			stroke-linecap="round"
		/>
		<path
			class="oi-line"
			d="M21 11V9.5"
			stroke="black"
			stroke-width="2"
			stroke-linecap="round"
		/>
		<path
			class="oi-line"
			d="M13.5 3L15 3"
			stroke="black"
			stroke-width="2"
			stroke-linecap="round"
		/>
		<path
			class="oi-line"
			d="M13.5 22.5L15 22.5"
			stroke="black"
			stroke-width="2"
			stroke-linecap="round"
		/>
	</g>
</svg>