<!-- ! This file is automatically generated, please don't edit it directly. -->

<svg
	width="24"
	height="24"
	viewBox="0 0 24 24"
	fill="none"
	xmlns="http://www.w3.org/2000/svg"
>
	<g class="oi-meteor">
		<path
			class="oi-ellipse"
			d="M9 18C10.6569 18 12 16.6569 12 15C12 13.3431 10.6569 12 9 12C7.34315 12 6 13.3431 6 15C6 16.6569 7.34315 18 9 18Z"
			stroke="black"
			stroke-width="2"
			stroke-linecap="round"
			stroke-linejoin="round"
		/>
		<path
			class="oi-vector"
			d="M15.75 16.5L20.25 12"
			stroke="black"
			stroke-width="2"
			stroke-linecap="round"
			stroke-linejoin="round"
		/>
		<path
			class="oi-vector"
			d="M15 12L17.25 9.75"
			stroke="black"
			stroke-width="2"
			stroke-linecap="round"
			stroke-linejoin="round"
		/>
		<path
			class="oi-vector"
			d="M19.5 7.5L21 6"
			stroke="black"
			stroke-width="2"
			stroke-linecap="round"
			stroke-linejoin="round"
		/>
		<path
			class="oi-vector"
			d="M12 9L18.75 2.25"
			stroke="black"
			stroke-width="2"
			stroke-linecap="round"
			stroke-linejoin="round"
		/>
		<path
			class="oi-vector"
			d="M13.2422 19.2422C12.6881 19.8127 12.0261 20.2674 11.2947 20.5798C10.5633 20.8922 9.77713 21.056 8.98184 21.0618C8.18655 21.0677 7.39804 20.9153 6.66216 20.6136C5.92628 20.312 5.25772 19.867 4.69535 19.3047C4.13298 18.7423 3.68802 18.0737 3.38636 17.3378C3.08469 16.602 2.93234 15.8135 2.93815 15.0182C2.94396 14.2229 3.10783 13.4367 3.42021 12.7053C3.7326 11.9739 4.18728 11.3119 4.75781 10.7578L12.5147 3"
			stroke="black"
			stroke-width="2"
			stroke-linecap="round"
			stroke-linejoin="round"
		/>
	</g>
</svg>