<!-- ! This file is automatically generated, please don't edit it directly. -->

<svg
	width="24"
	height="24"
	viewBox="0 0 24 24"
	fill="none"
	xmlns="http://www.w3.org/2000/svg"
>
	<g class="oi-monitoring-fill">
		<path
			class="oi-fill"
			d="M20 2C21.6569 2 23 3.34315 23 5V15C23 16.6569 21.6569 18 20 18H13V20H16C16.5523 20 17 20.4477 17 21C17 21.5523 16.5523 22 16 22H8C7.44772 22 7 21.5523 7 21C7 20.4477 7.44772 20 8 20H11V18H4C2.34315 18 1 16.6569 1 15V5C1 3.34315 2.34315 2 4 2H20ZM8 6C7.44772 6 7 6.44772 7 7V13C7 13.5523 7.44772 14 8 14C8.55228 14 9 13.5523 9 13V7C9 6.44772 8.55228 6 8 6ZM12 9C11.4477 9 11 9.44772 11 10V13C11 13.5523 11.4477 14 12 14C12.5523 14 13 13.5523 13 13V10C13 9.44772 12.5523 9 12 9ZM16 7C15.4477 7 15 7.44772 15 8V13C15 13.5523 15.4477 14 16 14C16.5523 14 17 13.5523 17 13V8C17 7.44772 16.5523 7 16 7Z"
			fill="black"
		/>
	</g>
</svg>