<!-- ! This file is automatically generated, please don't edit it directly. -->

<svg
	width="24"
	height="24"
	viewBox="0 0 24 24"
	fill="none"
	xmlns="http://www.w3.org/2000/svg"
>
	<g id="oi-moon-star[dark, night]">
		<path
			class="oi-vector"
			d="M19 16.3463C17.8588 16.9211 16.5694 17.2448 15.2044 17.2448C10.5381 17.2448 6.75521 13.4619 6.75521 8.79556C6.75521 7.43059 7.07889 6.14121 7.65367 5C4.89346 6.3902 3 9.24937 3 12.5508C3 17.2172 6.78285 21 11.4492 21C14.7506 21 17.6098 19.1065 19 16.3463Z"
			stroke="black"
			stroke-width="2"
			stroke-miterlimit="10"
			stroke-linecap="round"
			stroke-linejoin="round"
		/>
		<path
			class="oi-vector"
			fill-rule="evenodd"
			clip-rule="evenodd"
			d="M14 4C14.3575 4 14.6653 4.25234 14.7354 4.60291L14.8163 5.00704C14.935 5.60083 15.3992 6.06498 15.993 6.18374L16.3971 6.26456C16.7477 6.33468 17 6.64249 17 7C17 7.35751 16.7477 7.66532 16.3971 7.73544L15.993 7.81626C15.3992 7.93502 14.935 8.39917 14.8163 8.99296L14.7354 9.39709C14.6653 9.74766 14.3575 10 14 10C13.6425 10 13.3347 9.74766 13.2646 9.39709L13.1837 8.99296C13.065 8.39917 12.6008 7.93502 12.007 7.81626L11.6029 7.73544C11.2523 7.66532 11 7.35751 11 7C11 6.64249 11.2523 6.33468 11.6029 6.26456L12.007 6.18374C12.6008 6.06498 13.065 5.60083 13.1837 5.00704L13.2646 4.60291C13.3347 4.25234 13.6425 4 14 4ZM14 6.65429C13.8944 6.77872 13.7787 6.89435 13.6543 7C13.7787 7.10565 13.8944 7.22128 14 7.34571C14.1056 7.22128 14.2213 7.10565 14.3457 7C14.2213 6.89435 14.1056 6.77872 14 6.65429Z"
			fill="#2EE0CB"
			stroke="black"
			stroke-width="2"
			stroke-miterlimit="10"
			stroke-linecap="round"
			stroke-linejoin="round"
		/>
	</g>
</svg>