<!-- ! This file is automatically generated, please don't edit it directly. -->

<svg
	width="24"
	height="24"
	viewBox="0 0 24 24"
	fill="none"
	xmlns="http://www.w3.org/2000/svg"
>
	<g class="oi-number-field">
		<path
			class="oi-box"
			d="M18 7H6C4.34315 7 3 8.34315 3 10V14C3 15.6569 4.34315 17 6 17H18C19.6569 17 21 15.6569 21 14V10C21 8.34315 19.6569 7 18 7Z"
			stroke="black"
			stroke-width="2"
			stroke-miterlimit="10"
			stroke-linecap="round"
			stroke-linejoin="round"
		/>
		<path
			class="oi-vector"
			d="M9.59695 10.5926C10.1013 9.88086 11.6315 9.72399 12.2121 10.6654C12.4108 11.2976 12.0659 11.6739 11.2294 12.5178L9.69239 13.8282C9.59664 13.9098 9.65437 14.0665 9.7802 14.0665H12.3312"
			stroke="black"
			stroke-width="1.5"
			stroke-linecap="round"
		/>
		<path
			class="oi-vector"
			d="M7.12427 14.0615V10.3219C7.12427 10.202 6.97993 10.1413 6.89426 10.2251L6 11.1004"
			stroke="black"
			stroke-width="1.5"
			stroke-linecap="round"
		/>
	</g>
</svg>