<!-- ! This file is automatically generated, please don't edit it directly. -->

<svg
	width="24"
	height="24"
	viewBox="0 0 24 24"
	fill="none"
	xmlns="http://www.w3.org/2000/svg"
>
	<g class="oi-paint-bucket-fill">
		<path
			class="oi-fill"
			d="M9 2C10.3838 2 11.5452 2.93785 11.8916 4.21191C12.0415 4.28677 12.1854 4.37968 12.3174 4.49512L20.3174 11.4951C20.7184 11.8462 20.9627 12.343 20.9961 12.875C21.0288 13.3975 20.8544 13.911 20.5127 14.3066C20.9471 15.4475 21.5 16.9972 21.5 17.5C21.5 18.3284 20.8284 19 20 19C19.1716 19 18.5 18.3284 18.5 17.5C18.5 17.2609 18.6269 16.7856 18.8047 16.2295L13.8135 21.8457C12.3539 23.4877 9.84282 23.6449 8.18945 22.1982L3.2002 17.832C1.52857 16.3692 1.36898 13.8253 2.84473 12.165L6 8.61426V5C6 3.34315 7.34315 2 9 2ZM11 11.5C10.1716 11.5 9.5 12.1716 9.5 13C9.5 13.8284 10.1716 14.5 11 14.5H11.0117C11.8401 14.5 12.5117 13.8284 12.5117 13C12.5117 12.1716 11.8401 11.5 11.0117 11.5H11ZM9 4C8.44772 4 8 4.44772 8 5V6.36328L9.50488 4.6709C9.59531 4.56918 9.69406 4.47919 9.79883 4.40039C9.61637 4.1577 9.32701 4 9 4Z"
			fill="black"
		/>
	</g>
</svg>