<!-- ! This file is automatically generated, please don't edit it directly. -->

<svg
	width="24"
	height="24"
	viewBox="0 0 24 24"
	fill="none"
	xmlns="http://www.w3.org/2000/svg"
>
	<g class="oi-pen-alt">
		<path
			class="oi-vector"
			d="M3.18856 4.31993C3.09428 3.65996 3.65997 3.09428 4.31993 3.18856L13.0062 4.42945C15.4211 4.77445 17.3868 6.54727 17.9785 8.91393L19 13L13 19L8.91393 17.9785C6.54727 17.3868 4.77445 15.4211 4.42945 13.0062L3.18856 4.31993Z"
			stroke="black"
			stroke-width="2"
			stroke-linejoin="round"
		/>
		<path
			class="oi-vector"
			d="M19 13L13 19L15.2929 21.2929C15.6834 21.6834 16.3166 21.6834 16.7071 21.2929L21.2929 16.7071C21.6834 16.3166 21.6834 15.6834 21.2929 15.2929L19 13Z"
			stroke="black"
			stroke-width="2"
			stroke-linecap="round"
			stroke-linejoin="round"
		/>
		<path
			class="oi-line"
			d="M4 4L11 11"
			stroke="black"
			stroke-width="2"
			stroke-linecap="round"
			stroke-linejoin="round"
		/>
		<path
			class="oi-dot"
			d="M11 11H11.012"
			stroke="black"
			stroke-width="4"
			stroke-linecap="round"
		/>
	</g>
</svg>