<!-- ! This file is automatically generated, please don't edit it directly. -->

<svg
	width="24"
	height="24"
	viewBox="0 0 24 24"
	fill="none"
	xmlns="http://www.w3.org/2000/svg"
>
	<g class="oi-pizza-slice" clip-path="url(#clip0_671_11568)">
		<path
			class="oi-vector"
			d="M8.97362 3.63478C12.0296 4.45363 14.7868 6.13152 16.9182 8.46956C19.0497 10.8076 20.4662 13.7077 20.9996 16.8262L4.69142 19.6162L8.97362 3.63478Z"
			stroke="black"
			stroke-width="2"
			stroke-linecap="round"
			stroke-linejoin="round"
		/>
		<path
			class="oi-vector"
			d="M8.4207 7.67998C10.6127 8.26732 12.5903 9.47083 14.1192 11.1478C15.648 12.8249 16.664 14.9051 17.0467 17.1419"
			stroke="black"
			stroke-width="2"
			stroke-linecap="round"
			stroke-linejoin="round"
		/>
		<path
			class="oi-vector"
			d="M9.75061 18.6662C9.53871 17.2945 10.5498 15.9998 12.0089 15.7743C13.468 15.5489 14.8227 16.4782 15.0346 17.8499"
			stroke="black"
			stroke-width="2"
			stroke-linecap="round"
			stroke-linejoin="round"
		/>
		<path
			class="oi-vector"
			d="M7.31319 9.80618C8.65389 10.1654 9.43097 11.6127 9.04884 13.0389C8.66671 14.465 7.27008 15.3299 5.92938 14.9706"
			stroke="black"
			stroke-width="2"
			stroke-linecap="round"
			stroke-linejoin="round"
		/>
	</g>
	<defs>
		<clipPath class="clip0_671_11568">
			<rect width="24" height="24" fill="white" />
		</clipPath>
	</defs>
</svg>