<!-- ! This file is automatically generated, please don't edit it directly. -->

<svg
	width="24"
	height="24"
	viewBox="0 0 24 24"
	fill="none"
	xmlns="http://www.w3.org/2000/svg"
>
	<g class="oi-quote-fill">
		<path
			class="oi-fill"
			d="M8 5C10.2091 5 12 6.79086 12 9C12 6.79086 13.7909 5 16 5H18C20.2091 5 22 6.79086 22 9V13C22 13.3625 21.9013 13.7185 21.7148 14.0293L18.7148 19.0293C18.1465 19.9762 16.9178 20.2831 15.9707 19.7148C15.0238 19.1465 14.7169 17.9178 15.2852 16.9707L16.4678 15H16C13.7909 15 12 13.2091 12 11V13C12 13.3625 11.9013 13.7185 11.7148 14.0293L8.71484 19.0293C8.14647 19.9762 6.91777 20.2831 5.9707 19.7148C5.02377 19.1465 4.71692 17.9178 5.28516 16.9707L6.46777 15H6C3.79086 15 2 13.2091 2 11V9C2 6.79086 3.79086 5 6 5H8Z"
			fill="black"
		/>
	</g>
</svg>