<!-- ! This file is automatically generated, please don't edit it directly. -->

<svg
	width="24"
	height="24"
	viewBox="0 0 24 24"
	fill="none"
	xmlns="http://www.w3.org/2000/svg"
>
	<g class="oi-rabbit[animal]">
		<path
			class="oi-vector"
			d="M12.9 16.0498C13.4215 16.0491 13.9321 16.1995 14.37 16.4827C14.8079 16.766 15.1544 17.17 15.3676 17.6459C15.5808 18.1219 15.6516 18.6494 15.5715 19.1647C15.4914 19.68 15.2637 20.1611 14.916 20.5498"
			stroke="black"
			stroke-width="2"
			stroke-linecap="round"
			stroke-linejoin="round"
		/>
		<path
			class="oi-mini-dot"
			d="M17.4 12.4498H17.409"
			stroke="black"
			stroke-width="2"
			stroke-linecap="round"
			stroke-linejoin="round"
		/>
		<path
			class="oi-vector"
			d="M17.4 20.5497H10.2C9.2452 20.5497 8.32952 20.1704 7.65439 19.4953C6.97926 18.8202 6.59998 17.9045 6.59998 16.9497C6.59998 15.2788 7.26372 13.6764 8.4452 12.4949C9.62668 11.3135 11.2291 10.6497 12.9 10.6497H13.08L9.83998 7.40971C9.67451 7.24424 9.54326 7.04781 9.45371 6.83161C9.36416 6.61542 9.31807 6.38371 9.31807 6.14971C9.31807 5.67712 9.5058 5.22388 9.83998 4.88971C10.1741 4.55553 10.6274 4.3678 11.1 4.3678C11.334 4.3678 11.5657 4.41389 11.7819 4.50344C11.9981 4.59299 12.1945 4.72424 12.36 4.88971L15.42 7.94971H15.6C18.57 7.94971 21 10.3797 21 13.3497V14.2497C21 14.7271 20.8103 15.1849 20.4728 15.5225C20.1352 15.8601 19.6774 16.0497 19.2 16.0497H18.3C17.5839 16.0497 16.8971 16.3342 16.3908 16.8405C15.8844 17.3469 15.6 18.0336 15.6 18.7497"
			stroke="black"
			stroke-width="2"
			stroke-linecap="round"
			stroke-linejoin="round"
		/>
		<path
			class="oi-vector"
			d="M19.2 9.33583V5.24983C19.2 4.77244 19.0103 4.3146 18.6728 3.97704C18.3352 3.63947 17.8774 3.44983 17.4 3.44983C16.9226 3.44983 16.4647 3.63947 16.1272 3.97704C15.7896 4.3146 15.6 4.77244 15.6 5.24983V7.94983"
			stroke="black"
			stroke-width="2"
			stroke-linecap="round"
			stroke-linejoin="round"
		/>
		<path
			class="oi-vector"
			d="M8.05071 12.9216C7.79763 12.4737 7.42186 12.1074 6.96764 11.8659C6.51341 11.6244 5.99964 11.5176 5.4868 11.5582C4.97396 11.5989 4.48339 11.7852 4.07286 12.0952C3.66232 12.4052 3.34891 12.8261 3.1695 13.3082C2.9901 13.7904 2.95217 14.3137 3.06019 14.8167C3.16821 15.3197 3.41768 15.7814 3.77923 16.1473C4.14078 16.5133 4.59936 16.7684 5.10098 16.8825C5.60261 16.9967 6.12641 16.9651 6.61071 16.7916"
			stroke="black"
			stroke-width="2"
			stroke-linecap="round"
			stroke-linejoin="round"
		/>
	</g>
</svg>