<!-- ! This file is automatically generated, please don't edit it directly. -->

<svg
	width="24"
	height="24"
	viewBox="0 0 24 24"
	fill="none"
	xmlns="http://www.w3.org/2000/svg"
>
	<g class="oi-rewind-start-fill">
		<path
			class="oi-fill"
			d="M17.751 6.43848C18.3513 5.95833 19.1734 5.86436 19.8662 6.19727C20.5591 6.5303 21 7.23119 21 8V16C21 16.7688 20.5591 17.4697 19.8662 17.8027C19.1734 18.1356 18.3513 18.0417 17.751 17.5615L14 14.5605V16C14 16.7688 13.5591 17.4697 12.8662 17.8027C12.1734 18.1356 11.3513 18.0417 10.751 17.5615L6 13.7607V16C6 16.5523 5.55228 17 5 17C4.44772 17 4 16.5523 4 16V8C4 7.44772 4.44772 7 5 7C5.55228 7 6 7.44772 6 8V10.2393L10.751 6.43848C11.3513 5.95833 12.1734 5.86436 12.8662 6.19727C13.5591 6.5303 14 7.23119 14 8V9.43848L17.751 6.43848Z"
			fill="black"
		/>
	</g>
</svg>