<!-- ! This file is automatically generated, please don't edit it directly. -->

<svg
	width="24"
	height="24"
	viewBox="0 0 24 24"
	fill="none"
	xmlns="http://www.w3.org/2000/svg"
>
	<g class="oi-road-sign-parking-fill">
		<path
			class="oi-fill"
			d="M19 3C20.1046 3 21 3.89543 21 5V19C21 20.1046 20.1046 21 19 21H5C3.89543 21 3 20.1046 3 19V5C3 3.89543 3.89543 3 5 3H19ZM9 7C8.48232 7 8.05621 7.39333 8.00488 7.89746L8 8V16C8 16.5523 8.44772 17 9 17C9.55228 17 10 16.5523 10 16V12.8125H11.9277V12.8115C12.2322 12.8219 12.8229 12.8125 13.0127 12.8125C13.7426 12.8124 14.4643 12.4813 14.9932 12.0215C15.5266 11.5576 16 10.8398 16 9.96094C15.9999 8.28464 14.6929 7.00023 12.9424 7H9ZM12.9424 9C13.6362 9.0002 13.9999 9.43647 14 9.96094C14 10.095 13.9204 10.3032 13.6807 10.5117C13.4367 10.7238 13.1652 10.8123 13.0127 10.8125C12.7064 10.8125 12.1995 10.8242 11.9746 10.8135L11.9277 10.8125H10V9H12.9424Z"
			fill="black"
		/>
	</g>
</svg>