<!-- ! This file is automatically generated, please don't edit it directly. -->

<svg
	width="24"
	height="24"
	viewBox="0 0 24 24"
	fill="none"
	xmlns="http://www.w3.org/2000/svg"
>
	<g class="oi-robot-fill">
		<path
			class="oi-fill"
			d="M12.0117 2C12.8401 2 13.5117 2.67157 13.5117 3.5C13.5117 3.9493 13.313 4.35107 13 4.62598V5H18C20.2091 5 22 6.79086 22 9V19C22 21.2091 20.2091 23 18 23H6C3.79086 23 2 21.2091 2 19V9C2 6.79086 3.79086 5 6 5H11V4.61523C10.6939 4.34061 10.5 3.94357 10.5 3.5C10.5 2.67157 11.1716 2 12 2H12.0117ZM9 16C8.44772 16 8 16.4477 8 17C8 17.5523 8.44772 18 9 18H15C15.5523 18 16 17.5523 16 17C16 16.4477 15.5523 16 15 16H9ZM9 10.5C8.17157 10.5 7.5 11.1716 7.5 12C7.5 12.8284 8.17157 13.5 9 13.5H9.01172C9.84015 13.5 10.5117 12.8284 10.5117 12C10.5117 11.1716 9.84015 10.5 9.01172 10.5H9ZM15 10.5C14.1716 10.5 13.5 11.1716 13.5 12C13.5 12.8284 14.1716 13.5 15 13.5H15.0117C15.8401 13.5 16.5117 12.8284 16.5117 12C16.5117 11.1716 15.8401 10.5 15.0117 10.5H15Z"
			fill="black"
		/>
	</g>
</svg>