<!-- ! This file is automatically generated, please don't edit it directly. -->

<svg
	width="24"
	height="24"
	viewBox="0 0 24 24"
	fill="none"
	xmlns="http://www.w3.org/2000/svg"
>
	<g class="oi-ruler-fill">
		<path
			class="oi-fill"
			d="M15.4619 1.57019C15.8524 1.17967 16.4864 1.17967 16.877 1.57019L22.1797 6.8739C22.5701 7.26444 22.5702 7.89749 22.1797 8.28796L19.9629 10.5038C19.9275 10.3707 19.8657 10.2427 19.7744 10.1307L19.7051 10.0546L16.5234 6.87292C16.1331 6.48264 15.4999 6.48295 15.1094 6.87292C14.7189 7.26343 14.7189 7.89646 15.1094 8.28699L18.291 11.4686L18.3672 11.538C18.4792 11.6292 18.6062 11.692 18.7393 11.7274L17.1338 13.3329C17.09 13.1687 17.0057 13.0125 16.877 12.8837L15.1094 11.1151C14.719 10.7248 14.0849 10.725 13.6943 11.1151C13.3038 11.5056 13.3039 12.1396 13.6943 12.5302L15.4629 14.2977C15.5917 14.4264 15.747 14.5117 15.9111 14.5555L14.3057 16.161C14.2702 16.028 14.2085 15.9 14.1172 15.788L14.0479 15.7118L10.8662 12.5302C10.4758 12.1398 9.84268 12.1401 9.45215 12.5302C9.06183 12.9207 9.06175 13.5537 9.45215 13.9442L12.6338 17.1259L12.71 17.1952C12.8219 17.2865 12.949 17.3492 13.082 17.3846L11.4775 18.9901C11.4338 18.8255 11.3489 18.6691 11.2197 18.5399L9.45215 16.7723C9.06177 16.3821 8.42861 16.3823 8.03809 16.7723C7.6476 17.1628 7.64768 17.7959 8.03809 18.1864L9.80566 19.954C9.93477 20.0831 10.0903 20.169 10.2549 20.2128L8.03809 22.4296C7.64761 22.82 7.01456 22.8199 6.62402 22.4296L1.32031 17.1268C0.929788 16.7363 0.929789 16.1023 1.32031 15.7118L15.4619 1.57019Z"
			fill="black"
		/>
	</g>
</svg>