<!-- ! This file is automatically generated, please don't edit it directly. -->

<svg
	width="24"
	height="24"
	viewBox="0 0 24 24"
	fill="none"
	xmlns="http://www.w3.org/2000/svg"
>
	<g class="oi-share-fill">
		<path
			class="oi-fill"
			d="M18.5 5C20.1569 5 21.5 6.34315 21.5 8V16C21.5 17.6569 20.1569 19 18.5 19H5.5C3.84315 19 2.5 17.6569 2.5 16V8C2.5 6.34315 3.84315 5 5.5 5H18.5ZM12.707 7.79297C12.3165 7.40244 11.6835 7.40244 11.293 7.79297L9.29297 9.79297C8.90244 10.1835 8.90244 10.8165 9.29297 11.207C9.68349 11.5976 10.3165 11.5976 10.707 11.207L11 10.9141V15.5L11.0049 15.6025C11.0562 16.1067 11.4823 16.5 12 16.5C12.5177 16.5 12.9438 16.1067 12.9951 15.6025L13 15.5V10.9141L13.293 11.207C13.6835 11.5976 14.3165 11.5976 14.707 11.207C15.0976 10.8165 15.0976 10.1835 14.707 9.79297L12.707 7.79297Z"
			fill="black"
		/>
	</g>
</svg>