<!-- ! This file is automatically generated, please don't edit it directly. -->

<svg
	width="24"
	height="24"
	viewBox="0 0 24 24"
	fill="none"
	xmlns="http://www.w3.org/2000/svg"
>
	<g class="oi-signal">
		<path
			class="oi-ellipse"
			d="M12 14C13.1046 14 14 13.1046 14 12C14 10.8954 13.1046 10 12 10C10.8954 10 10 10.8954 10 12C10 13.1046 10.8954 14 12 14Z"
			stroke="black"
			stroke-width="2"
			stroke-linecap="round"
			stroke-linejoin="round"
		/>
		<path
			class="oi-vector"
			d="M16.2399 7.75993C16.7978 8.31717 17.2404 8.9789 17.5423 9.70729C17.8442 10.4357 17.9997 11.2164 17.9997 12.0049C17.9997 12.7934 17.8442 13.5742 17.5423 14.3026C17.2404 15.031 16.7978 15.6927 16.2399 16.2499M7.75994 16.2399C7.20208 15.6827 6.75953 15.021 6.45758 14.2926C6.15564 13.5642 6.00022 12.7834 6.00022 11.9949C6.00022 11.2064 6.15564 10.4257 6.45758 9.69729C6.75953 8.9689 7.20208 8.30717 7.75994 7.74993M19.0699 4.92993C20.9446 6.80521 21.9978 9.34829 21.9978 11.9999C21.9978 14.6516 20.9446 17.1947 19.0699 19.0699M4.92994 19.0699C3.05523 17.1947 2.00208 14.6516 2.00208 11.9999C2.00208 9.34829 3.05523 6.80521 4.92994 4.92993"
			stroke="black"
			stroke-width="2"
			stroke-linecap="round"
			stroke-linejoin="round"
		/>
	</g>
</svg>