<!-- ! This file is automatically generated, please don't edit it directly. -->

<svg
	width="24"
	height="24"
	viewBox="0 0 24 24"
	fill="none"
	xmlns="http://www.w3.org/2000/svg"
>
	<g class="oi-signature">
		<path
			class="oi-vector"
			d="M8.52083 8.44581C8.63267 8.11031 8.78385 7.69308 8.95473 7.27278C9.59097 5.70782 11.7298 5.20968 12.4729 6.72679C12.6922 7.17444 12.7475 7.74248 12.5066 8.45071C12.363 8.87285 12.1655 9.2766 12.0695 9.71202C12 10.0269 11.9292 10.4001 11.8553 10.8108M11.8553 10.8108C11.3202 13.7864 10.626 18.7312 9.14051 17.7408C7.28149 16.5015 6.66182 10.9244 10.3799 10.9244C10.8865 10.9244 11.3812 10.8825 11.8553 10.8108ZM11.8553 10.8108C12.2537 10.7506 12.6377 10.6694 13.0019 10.5744C14.0015 10.314 15.8874 12.1704 16.9203 12.1704C18.4075 12.1704 19.262 11.7507 19.6751 11.5441"
			stroke="black"
			stroke-width="2"
			stroke-linecap="round"
		/>
		<path
			class="oi-line"
			d="M14.5 15.75H20.9467"
			stroke="black"
			stroke-width="2"
			stroke-linecap="round"
			stroke-linejoin="round"
		/>
		<path
			class="oi-line"
			d="M2.75 15.75H5"
			stroke="black"
			stroke-width="2"
			stroke-linecap="round"
			stroke-linejoin="round"
		/>
	</g>
</svg>