<!-- ! This file is automatically generated, please don't edit it directly. -->

<svg
	width="24"
	height="24"
	viewBox="0 0 24 24"
	fill="none"
	xmlns="http://www.w3.org/2000/svg"
>
	<g class="oi-store-fill[shop]">
		<path
			class="oi-fill"
			d="M15.333 11.0322C16.1104 12.0662 17.2865 12.75 18.667 12.75H21.5V20C21.5 21.6569 20.1569 23 18.5 23H14.5C15.0523 23 15.5 22.5523 15.5 22V16C15.5 14.8954 14.6046 14 13.5 14H10.5C9.39543 14 8.5 14.8954 8.5 16V22C8.5 22.5523 8.94772 23 9.5 23H5.5C3.84315 23 2.5 21.6569 2.5 20V12.75H5.33301C6.71336 12.75 7.88863 12.066 8.66602 11.0322C9.4434 12.0663 10.6194 12.75 12 12.75C13.3804 12.75 14.5556 12.066 15.333 11.0322ZM18 2C18.3512 2 18.6767 2.18423 18.8574 2.48535L21.8574 7.48535C21.9507 7.64077 22 7.81876 22 8C22 8.70266 21.8182 9.36266 21.5 9.93652V10.75H18.667C17.4858 10.75 16.333 9.63276 16.333 8C16.333 7.44772 15.8853 7 15.333 7C14.7808 7.00013 14.333 7.4478 14.333 8C14.333 9.63273 13.1812 10.7499 12 10.75C10.8188 10.75 9.66699 9.63276 9.66699 8C9.66699 7.44785 9.21909 7.00022 8.66699 7C8.11471 7 7.66699 7.44772 7.66699 8C7.66699 9.63276 6.5142 10.75 5.33301 10.75H2.5V9.93652C2.18181 9.36266 2 8.70266 2 8C2 7.81876 2.04933 7.64077 2.14258 7.48535L5.14258 2.48535C5.32332 2.18423 5.64879 2 6 2H18Z"
			fill="black"
		/>
	</g>
</svg>