<!-- ! This file is automatically generated, please don't edit it directly. -->

<svg
	width="24"
	height="24"
	viewBox="0 0 24 24"
	fill="none"
	xmlns="http://www.w3.org/2000/svg"
>
	<g class="oi-telescope">
		<path
			class="oi-vector"
			d="M7 21L13 13L21 21"
			stroke="black"
			stroke-width="2"
			stroke-linecap="round"
			stroke-linejoin="round"
		/>
		<path
			class="oi-vector"
			d="M5.22803 7.30306L18.76 2.24306C18.9517 2.17152 19.1607 2.16049 19.3588 2.21146C19.5569 2.26242 19.7347 2.37292 19.868 2.52806L20.058 2.74806C21.3108 4.20059 22 6.0549 22 7.97306V8.58906C22.0001 8.79287 21.9379 8.99183 21.8217 9.15929C21.7055 9.32676 21.5409 9.45473 21.35 9.52606L7.81403 14.5861L5.22803 7.30306Z"
			stroke="black"
			stroke-width="2"
			stroke-linecap="round"
			stroke-linejoin="round"
		/>
		<path
			class="oi-vector"
			d="M2.65996 11.371C2.4841 10.8752 2.51071 10.33 2.73401 9.85362C2.95732 9.37725 3.35934 9.00805 3.85296 8.82603L5.54696 8.20203L7.49096 13.675L5.85096 14.287C5.60228 14.3799 5.3376 14.4224 5.07234 14.412C4.80707 14.4016 4.54654 14.3384 4.30593 14.2263C4.06532 14.1141 3.84945 13.9552 3.6709 13.7587C3.49235 13.5623 3.35469 13.3322 3.26596 13.082L2.65996 11.371Z"
			stroke="black"
			stroke-width="2"
			stroke-linecap="round"
			stroke-linejoin="round"
		/>
		<path
			class="oi-vector"
			d="M13 13V22"
			stroke="black"
			stroke-width="2"
			stroke-linecap="round"
			stroke-linejoin="round"
		/>
	</g>
</svg>