<!-- ! This file is automatically generated, please don't edit it directly. -->

<svg
	width="24"
	height="24"
	viewBox="0 0 24 24"
	fill="none"
	xmlns="http://www.w3.org/2000/svg"
>
	<g class="oi-terminal-alt-fill">
		<path
			class="oi-fill"
			fill-rule="evenodd"
			clip-rule="evenodd"
			d="M6 2C3.79086 2 2 3.79086 2 6V18C2 20.2091 3.79086 22 6 22H18C20.2091 22 22 20.2091 22 18V6C22 3.79086 20.2091 2 18 2H6ZM12 16C12 15.4477 12.4477 15 13 15H17C17.5523 15 18 15.4477 18 16C18 16.5523 17.5523 17 17 17H13C12.4477 17 12 16.5523 12 16ZM7.70711 7.29289C7.31658 6.90237 6.68342 6.90237 6.29289 7.29289C5.90237 7.68342 5.90237 8.31658 6.29289 8.70711L9.58579 12L6.29289 15.2929C5.90237 15.6834 5.90237 16.3166 6.29289 16.7071C6.68342 17.0976 7.31658 17.0976 7.70711 16.7071L11.7071 12.7071C12.0976 12.3166 12.0976 11.6834 11.7071 11.2929L7.70711 7.29289Z"
			fill="black"
		/>
	</g>
</svg>