<!-- ! This file is automatically generated, please don't edit it directly. -->

<svg
	width="24"
	height="24"
	viewBox="0 0 24 24"
	fill="none"
	xmlns="http://www.w3.org/2000/svg"
>
	<g class="oi-tickets-two">
		<path
			class="oi-vector"
			d="M15 15C16.5 15 17.5 15.94 17.5 17H20.5V2H17.5C17.5 3 16.5 4 15 4C13.5 4 12.5 3 12.5 2H9.5V9"
			stroke="black"
			stroke-width="2"
			stroke-linecap="round"
			stroke-linejoin="round"
		/>
		<path
			class="oi-vector"
			d="M15 22H12C12 20.94 11 20 9.5 20C8 20 7 20.94 7 22H4V7H7C7 8 8 9 9.5 9C11 9 12 8 12 7H15V22Z"
			stroke="black"
			stroke-width="2"
			stroke-linecap="round"
			stroke-linejoin="round"
		/>
		<path
			class="oi-mini-dot"
			d="M12 11.99L12 12"
			stroke="black"
			stroke-width="2"
			stroke-linecap="round"
			stroke-linejoin="round"
		/>
		<path
			class="oi-mini-dot"
			d="M9.5 11.98L9.5 11.99"
			stroke="black"
			stroke-width="2"
			stroke-linecap="round"
			stroke-linejoin="round"
		/>
		<path
			class="oi-mini-dot"
			d="M7 11.97L7 11.98"
			stroke="black"
			stroke-width="2"
			stroke-linecap="round"
			stroke-linejoin="round"
		/>
	</g>
</svg>