<!-- ! This file is automatically generated, please don't edit it directly. -->

<svg
	width="24"
	height="24"
	viewBox="0 0 24 24"
	fill="none"
	xmlns="http://www.w3.org/2000/svg"
>
	<g class="oi-tire">
		<path
			class="oi-ellipse"
			d="M15.75 15.75C16.5784 15.75 17.25 14.0711 17.25 12C17.25 9.92893 16.5784 8.25 15.75 8.25C14.9216 8.25 14.25 9.92893 14.25 12C14.25 14.0711 14.9216 15.75 15.75 15.75Z"
			stroke="black"
			stroke-width="2"
			stroke-linecap="round"
			stroke-linejoin="round"
		/>
		<path
			class="oi-ellipse"
			d="M15.375 21C18.0674 21 20.25 16.9706 20.25 12C20.25 7.02944 18.0674 3 15.375 3C12.6826 3 10.5 7.02944 10.5 12C10.5 16.9706 12.6826 21 15.375 21Z"
			stroke="black"
			stroke-width="2"
			stroke-linecap="round"
			stroke-linejoin="round"
		/>
		<path
			class="oi-vector"
			d="M21.75 21H8.625C5.9325 21 3.75 16.9688 3.75 12C3.75 7.03125 5.9325 3 8.625 3H15.375"
			stroke="black"
			stroke-width="2"
			stroke-linecap="round"
			stroke-linejoin="round"
		/>
		<path
			class="oi-incomplete-triangle"
			d="M3.78563 10.9031L7.5 8.25L10.5722 10.4447"
			stroke="black"
			stroke-width="2"
			stroke-linecap="round"
			stroke-linejoin="round"
		/>
		<path
			class="oi-incomplete-triangle"
			d="M4.39218 16.47L7.49999 14.25L11.3109 16.9716"
			stroke="black"
			stroke-width="2"
			stroke-linecap="round"
			stroke-linejoin="round"
		/>
	</g>
</svg>