<!-- ! This file is automatically generated, please don't edit it directly. -->

<svg
	width="24"
	height="24"
	viewBox="0 0 24 24"
	fill="none"
	xmlns="http://www.w3.org/2000/svg"
>
	<g class="oi-tooth">
		<path
			class="oi-vector"
			d="M12 5.21602C9.33333 3.76117 4 2.42139 4 8.70731C4 13.6062 5.056 17.4097 6.67111 19.5371C7.24444 20.2926 8.64089 20.058 9.23822 19.3007C9.79674 18.5487 10.0092 17.379 10.3378 16.5105C10.9191 14.9763 13.0809 14.9763 13.6622 16.5105C13.9853 17.3645 14.1929 18.5741 14.7618 19.3007C15.3591 20.0589 16.7556 20.2926 17.3289 19.5371C18.944 17.4097 20 13.6071 20 8.70731C20 2.42228 14.6667 3.76117 12 5.21602ZM12 5.21602L14.6667 6.67623"
			stroke="black"
			stroke-width="2"
			stroke-miterlimit="10"
			stroke-linecap="round"
			stroke-linejoin="round"
		/>
	</g>
</svg>