<!-- ! This file is automatically generated, please don't edit it directly. -->

<svg
	width="24"
	height="24"
	viewBox="0 0 24 24"
	fill="none"
	xmlns="http://www.w3.org/2000/svg"
>
	<g class="oi-train-fill">
		<path
			class="oi-fill"
			fill-rule="evenodd"
			clip-rule="evenodd"
			d="M6.44722 18.1055C6.9412 18.3525 7.14142 18.9532 6.89443 19.4472L5.89443 21.4472C5.64744 21.9412 5.04677 22.1414 4.55279 21.8944C4.05881 21.6474 3.85859 21.0467 4.10558 20.5528L5.10558 18.5528C5.35257 18.0588 5.95324 17.8586 6.44722 18.1055Z"
			fill="black"
		/>
		<path
			class="oi-fill"
			fill-rule="evenodd"
			clip-rule="evenodd"
			d="M17.5528 18.1055C17.0588 18.3525 16.8586 18.9532 17.1056 19.4472L18.1056 21.4472C18.3526 21.9412 18.9532 22.1414 19.4472 21.8944C19.9412 21.6474 20.1414 21.0467 19.8944 20.5528L18.8944 18.5528C18.6474 18.0588 18.0468 17.8586 17.5528 18.1055Z"
			fill="black"
		/>
		<path
			class="oi-fill"
			d="M21.4302 14.3799C21.8032 17.364 19.4766 19.9998 16.4693 20H7.53082C4.5235 19.9998 2.19689 17.364 2.56989 14.3799L3.2818 8.68066C5.02645 11.3024 8.35207 12.9999 11.9996 13C15.6471 13 18.9726 11.3023 20.7173 8.68066L21.4302 14.3799ZM7.99957 13.5C7.17135 13.5002 6.49957 14.1717 6.49957 15C6.49957 15.8283 7.17135 16.4998 7.99957 16.5H8.01129C8.83972 16.5 9.51129 15.8284 9.51129 15C9.51129 14.1716 8.83972 13.5 8.01129 13.5H7.99957ZM15.9996 13.5C15.1713 13.5002 14.4996 14.1717 14.4996 15C14.4996 15.8283 15.1713 16.4998 15.9996 16.5H16.0113C16.8397 16.5 17.5113 15.8284 17.5113 15C17.5113 14.1716 16.8397 13.5 16.0113 13.5H15.9996ZM15.4693 2C17.4451 2.00016 19.1777 3.15357 19.9859 4.85645C19.7597 8.13704 16.4363 11 11.9996 11C7.56308 10.9998 4.23937 8.13696 4.01324 4.85645C4.82138 3.15335 6.55482 2.00012 8.53082 2H15.4693Z"
			fill="black"
		/>
	</g>
</svg>