<!-- ! This file is automatically generated, please don't edit it directly. -->

<svg
	width="24"
	height="24"
	viewBox="0 0 24 24"
	fill="none"
	xmlns="http://www.w3.org/2000/svg"
>
	<g class="oi-user-encircled-fill[people,person]">
		<path
			class="oi-fill"
			d="M12 2C17.5228 2 22 6.47715 22 12C22 17.5228 17.5228 22 12 22C6.47715 22 2 17.5228 2 12C2 6.47715 6.47715 2 12 2ZM12 12C9.01248 12 5.94428 13.2809 4.16797 15.9453C3.94404 16.2812 3.94404 16.7188 4.16797 17.0547C5.94428 19.7191 9.01248 21 12 21C14.9875 21 18.0557 19.7191 19.832 17.0547C20.056 16.7188 20.056 16.2812 19.832 15.9453C18.0557 13.2809 14.9875 12 12 12ZM12 4C9.79086 4 8 5.79086 8 8C8 10.2091 9.79086 12 12 12C14.2091 12 16 10.2091 16 8C16 5.79086 14.2091 4 12 4Z"
			fill="black"
		/>
	</g>
</svg>