<!-- ! This file is automatically generated, please don't edit it directly. -->

<svg
	width="24"
	height="24"
	viewBox="0 0 24 24"
	fill="none"
	xmlns="http://www.w3.org/2000/svg"
>
	<g class="oi-volume-off">
		<path
			class="oi-fill"
			fill-rule="evenodd"
			clip-rule="evenodd"
			d="M6.5 9.32844V15C6.5 15.5523 6.94772 16 7.5 16H11.1492L15.8753 19.7809C16.1755 20.021 16.5867 20.0678 16.9332 19.9013C16.9644 19.8863 16.9945 19.8699 17.0236 19.852L11.1716 14H8.5V11.3284L6.5 9.32844ZM15.5 12.6716V7.08063L12.3939 9.5655L10.8284 8.00001H11.1492L15.8753 4.21914C16.1755 3.979 16.5867 3.93219 16.9332 4.09871C17.2797 4.26523 17.5 4.6156 17.5 5.00001V14.6716L15.5 12.6716Z"
			fill="black"
		/>
		<path
			class="oi-vector"
			d="M5 5L19 19"
			stroke="black"
			stroke-width="2"
			stroke-miterlimit="10"
			stroke-linecap="round"
			stroke-linejoin="round"
		/>
	</g>
</svg>