<!-- ! This file is automatically generated, please don't edit it directly. -->

<svg
	width="24"
	height="24"
	viewBox="0 0 24 24"
	fill="none"
	xmlns="http://www.w3.org/2000/svg"
>
	<g class="oi-webcam-fill">
		<path
			class="oi-fill"
			d="M14 4C15.6569 4 17 5.34315 17 7V7.2627L19.8906 5.33594C20.5042 4.92688 21.2931 4.88853 21.9434 5.23633C22.5937 5.58437 23 6.26241 23 7V17C23 17.7376 22.5937 18.4156 21.9434 18.7637C21.2931 19.1115 20.5042 19.0731 19.8906 18.6641L17 16.7363V17C17 18.6569 15.6569 20 14 20H4C2.34315 20 1 18.6569 1 17V7C1 5.34315 2.34315 4 4 4H14Z"
			fill="black"
		/>
	</g>
</svg>