<svg
	width="24"
	height="24"
	viewBox="0 0 24 24"
	fill="none"
	xmlns="http://www.w3.org/2000/svg"
>
	<path
		fill-rule="evenodd"
		clip-rule="evenodd"
		d="M3.20007 3H20.8001C21.3524 3 21.8001 3.44772 21.8001 4V7C21.8001 7.55228 21.3524 8 20.8001 8H19.8V19.9999C19.8 20.5522 19.3523 20.9999 18.8 20.9999H5.20003C4.64774 20.9999 4.20003 20.5522 4.20003 19.9999V8H3.20007C2.64779 8 2.20007 7.55228 2.20007 7V4C2.20007 3.44772 2.64779 3 3.20007 3ZM9.00008 12C9.00008 11.4477 9.44779 11 10.0001 11H14.0001C14.5524 11 15.0001 11.4477 15.0001 12C15.0001 12.5523 14.5524 13 14.0001 13H10.0001C9.44779 13 9.00008 12.5523 9.00008 12ZM4.66454 4.46387C4.11225 4.46387 3.66454 4.91158 3.66454 5.46387C3.66454 6.01615 4.11225 6.46387 4.66454 6.46387H19.3635C19.9158 6.46387 20.3635 6.01615 20.3635 5.46387C20.3635 4.91158 19.9158 4.46387 19.3635 4.46387H4.66454Z"
		fill="black"
	/>
</svg>
