<svg
	width="24"
	height="24"
	viewBox="0 0 24 24"
	fill="none"
	xmlns="http://www.w3.org/2000/svg"
>
	<path
		d="M21.0001 16V7.99996C20.9997 7.64924 20.9071 7.30477 20.7316 7.00113C20.5561 6.69748 20.3038 6.44533 20.0001 6.26996L13.0001 2.26996C12.6961 2.09443 12.3512 2.00201 12.0001 2.00201C11.649 2.00201 11.3041 2.09443 11.0001 2.26996L4.00009 6.26996C3.69635 6.44533 3.44407 6.69748 3.26855 7.00113C3.09303 7.30477 3.00045 7.64924 3.00009 7.99996V16C3.00045 16.3507 3.09303 16.6952 3.26855 16.9988C3.44407 17.3024 3.69635 17.5546 4.00009 17.73L11.0001 21.73C11.3041 21.9055 11.649 21.9979 12.0001 21.9979C12.3512 21.9979 12.6961 21.9055 13.0001 21.73L20.0001 17.73C20.3038 17.5546 20.5561 17.3024 20.7316 16.9988C20.9071 16.6952 20.9997 16.3507 21.0001 16Z"
		stroke="black"
		stroke-width="2"
		stroke-linecap="round"
		stroke-linejoin="round"
	/>
	<path
		d="M3.27008 6.95996L12.0001 12.01L20.7301 6.95996"
		stroke="black"
		stroke-width="2"
		stroke-linecap="round"
		stroke-linejoin="round"
	/>
	<path
		d="M12.0001 22.08V12"
		stroke="black"
		stroke-width="2"
		stroke-linecap="round"
		stroke-linejoin="round"
	/>
</svg>
