<svg
	width="24"
	height="24"
	viewBox="0 0 24 24"
	fill="none"
	xmlns="http://www.w3.org/2000/svg"
>
	<path
		fill-rule="evenodd"
		clip-rule="evenodd"
		d="M6 3H18C18.5523 3 19 3.44772 19 4V20C19 20.5523 18.5523 21 18 21H6C5.44772 21 5 20.5523 5 20V4C5 3.44772 5.44772 3 6 3ZM16 6H8V10H16V6ZM9 13.25H8.25V14V14.1V14.85H9H9.1H9.85V14.1V14V13.25H9.1H9ZM12 13.25H11.25V14V14.1V14.85H12H12.1H12.85V14.1V14V13.25H12.1H12ZM14.25 13.25H15H15.1H15.85V14V14.1V14.85H15.1H15H14.25V14.1V14V13.25ZM9 16.25H8.25V17V17.1V17.85H9H9.1H9.85V17.1V17V16.25H9.1H9ZM11.25 16.25H12H12.1H12.85V17V17.1V17.85H12.1H12H11.25V17.1V17V16.25ZM15 16.25H14.25V17V17.1V17.85H15H15.1H15.85V17.1V17V16.25H15.1H15Z"
		fill="black"
	/>
</svg>
