<svg
	width="24"
	height="24"
	viewBox="0 0 24 24"
	fill="none"
	xmlns="http://www.w3.org/2000/svg"
>
	<path
		fill-rule="evenodd"
		clip-rule="evenodd"
		d="M12 22.2C17.6333 22.2 22.2 17.6333 22.2 12C22.2 6.36668 17.6333 1.79999 12 1.79999C6.3667 1.79999 1.8 6.36668 1.8 12C1.8 17.6333 6.3667 22.2 12 22.2ZM10.601 8.4913C10.3282 8.77294 10.1892 9.14486 10.124 9.47338C10.0166 10.0151 9.49032 10.3672 8.94859 10.2597C8.40686 10.1523 8.05481 9.62599 8.16226 9.08426C8.26917 8.54527 8.52567 7.7592 9.16454 7.09972C9.83023 6.41255 10.8144 5.96283 12.171 5.96283C13.0545 5.96283 13.9842 6.26072 14.7008 6.93944C15.4319 7.63175 15.8568 8.64011 15.8568 9.89099C15.8568 11.1779 15.3209 12.1024 14.5591 12.6977C13.9772 13.1524 13.3066 13.3838 12.7395 13.4971C12.7258 14.0374 12.2835 14.4712 11.7399 14.4712C11.1876 14.4712 10.7399 14.0234 10.7399 13.4712V13.099C10.7399 12.2478 11.413 11.6626 12.1127 11.5742C12.542 11.5199 12.9995 11.3782 13.3277 11.1218C13.6113 10.9002 13.8568 10.5537 13.8568 9.89099C13.8568 9.11148 13.6045 8.65575 13.3256 8.39159C13.0323 8.11382 12.6191 7.96283 12.171 7.96283C11.2908 7.96283 10.847 8.23735 10.601 8.4913ZM10.7283 16.5407C10.7283 15.9884 11.176 15.5407 11.7283 15.5407H11.7403C12.2926 15.5407 12.7403 15.9884 12.7403 16.5407C12.7403 17.093 12.2926 17.5407 11.7403 17.5407H11.7283C11.176 17.5407 10.7283 17.093 10.7283 16.5407Z"
		fill="black"
	/>
</svg>
