<svg
	width="24"
	height="24"
	viewBox="0 0 24 24"
	fill="none"
	xmlns="http://www.w3.org/2000/svg"
>
	<path
		d="M15 16H12"
		stroke="black"
		stroke-width="2"
		stroke-miterlimit="10"
		stroke-linecap="round"
		stroke-linejoin="round"
	/>
	<path
		d="M15 13H12"
		stroke="black"
		stroke-width="2"
		stroke-miterlimit="10"
		stroke-linecap="round"
		stroke-linejoin="round"
	/>
	<path
		d="M15 10H12"
		stroke="black"
		stroke-width="2"
		stroke-miterlimit="10"
		stroke-linecap="round"
		stroke-linejoin="round"
	/>
	<path
		d="M9 3H15V6H9V3Z"
		stroke="black"
		stroke-width="2"
		stroke-miterlimit="10"
		stroke-linecap="round"
		stroke-linejoin="round"
	/>
	<path
		fill-rule="evenodd"
		clip-rule="evenodd"
		d="M15 5V3L18 3C19.1046 3 20 3.89543 20 5V20C20 21.1046 19.1046 22 18 22H6C4.89543 22 4 21.1046 4 20V5C4 3.89543 4.89543 3 6 3L9 3V5H6V20H18V5H15Z"
		fill="black"
	/>
	<path
		d="M9 16L8.988 16"
		stroke="black"
		stroke-width="2"
		stroke-linecap="round"
	/>
	<path
		d="M9 13L8.988 13"
		stroke="black"
		stroke-width="2"
		stroke-linecap="round"
	/>
	<path
		d="M9 10L8.988 10"
		stroke="black"
		stroke-width="2"
		stroke-linecap="round"
	/>
</svg>
