<svg
	width="24"
	height="24"
	viewBox="0 0 24 24"
	fill="none"
	xmlns="http://www.w3.org/2000/svg"
>
	<path
		fill-rule="evenodd"
		clip-rule="evenodd"
		d="M9 2C8.44772 2 8 2.44772 8 3H6C4.89543 3 4 3.89543 4 5V20C4 21.1046 4.89543 22 6 22H18C19.1046 22 20 21.1046 20 20V5C20 3.89543 19.1046 3 18 3H16C16 2.44772 15.5523 2 15 2H9ZM16 5V6C16 6.55228 15.5523 7 15 7H9C8.44772 7 8 6.55228 8 6V5H6V20H18V5H16ZM10 5V4H14V5H10Z"
		fill="black"
	/>
	<path
		fill-rule="evenodd"
		clip-rule="evenodd"
		d="M15.7071 10.7929C16.0976 11.1834 16.0976 11.8166 15.7071 12.2071L11.7071 16.2071C11.3166 16.5976 10.6834 16.5976 10.2929 16.2071L8.29289 14.2071C7.90237 13.8166 7.90237 13.1834 8.29289 12.7929C8.68342 12.4024 9.31658 12.4024 9.70711 12.7929L11 14.0858L14.2929 10.7929C14.6834 10.4024 15.3166 10.4024 15.7071 10.7929Z"
		fill="black"
	/>
</svg>
