<svg
	width="24"
	height="24"
	viewBox="0 0 24 24"
	fill="none"
	xmlns="http://www.w3.org/2000/svg"
>
	<path
		fill-rule="evenodd"
		clip-rule="evenodd"
		d="M13.3529 6.58716C13.858 5.64261 14.854 5 16 5C17.6569 5 19 6.34315 19 8C19 8.95565 18.5532 9.80693 17.857 10.3563C18.5066 10.6163 19.089 11.0087 19.5707 11.5001C20.4548 10.5982 21 9.36275 21 8C21 5.23858 18.7614 3 16 3C13.9433 3 12.1766 4.24182 11.4089 6.01657C12.1073 6.07309 12.7651 6.27313 13.3529 6.58716Z"
		fill="black"
	/>
	<path
		d="M7.00001 20C4.79087 20 3.00001 18.2091 3.00001 16C3.00001 14.0929 4.33457 12.4976 6.12071 12.097C6.0417 11.7439 6.00001 11.3768 6.00001 11C6.00001 8.23858 8.23858 6 11 6C13.4193 6 15.4373 7.71825 15.9002 10.001C15.9334 10.0003 15.9667 10 16 10C18.7614 10 21 12.2386 21 15C21 17.7614 18.7614 20 16 20H7.00001Z"
		stroke="black"
		stroke-width="2"
		stroke-miterlimit="10"
		stroke-linecap="round"
		stroke-linejoin="round"
	/>
</svg>
