<svg
	width="24"
	height="24"
	viewBox="0 0 24 24"
	fill="none"
	xmlns="http://www.w3.org/2000/svg"
>
	<path
		fill-rule="evenodd"
		clip-rule="evenodd"
		d="M6.33379 19.4712L5.4668 7.33325H18.5335L17.6665 19.4712C17.6291 19.9945 17.1937 20.3999 16.669 20.3999H7.33125C6.80661 20.3999 6.37117 19.9945 6.33379 19.4712ZM10.3559 9.86658C10.9082 9.86658 11.3559 10.3143 11.3559 10.8666V16.8666C11.3559 17.4189 10.9082 17.8666 10.3559 17.8666C9.80361 17.8666 9.3559 17.4189 9.3559 16.8666V10.8666C9.3559 10.3143 9.80361 9.86658 10.3559 9.86658ZM13.6442 9.86658C14.1964 9.86658 14.6442 10.3143 14.6442 10.8666V16.8666C14.6442 17.4189 14.1964 17.8666 13.6442 17.8666C13.0919 17.8666 12.6442 17.4189 12.6442 16.8666V10.8666C12.6442 10.3143 13.0919 9.86658 13.6442 9.86658Z"
		fill="black"
	/>
	<path
		d="M4.79999 7.33325H19.2"
		stroke="black"
		stroke-width="2"
		stroke-miterlimit="10"
		stroke-linecap="round"
		stroke-linejoin="round"
	/>
	<path
		d="M8.26672 6.39998V4.59997C8.26672 4.04769 8.71444 3.59998 9.26672 3.59998H14.7334C15.2857 3.59998 15.7334 4.04769 15.7334 4.59998V6.39998"
		stroke="black"
		stroke-width="2"
		stroke-miterlimit="10"
		stroke-linecap="round"
		stroke-linejoin="round"
	/>
</svg>
