<svg
	width="24"
	height="24"
	viewBox="0 0 24 24"
	fill="none"
	xmlns="http://www.w3.org/2000/svg"
>
	<path
		fill-rule="evenodd"
		clip-rule="evenodd"
		d="M7.72184 8.32766L2.85606 9.03541C2.47943 9.0902 2.16655 9.35402 2.04894 9.71599C1.93133 10.078 2.02939 10.4753 2.3019 10.741L6.42903 14.7649L5.50062 20.4385C5.43927 20.8135 5.5957 21.1908 5.90437 21.4124C6.21303 21.6339 6.62059 21.6614 6.95621 21.4834L12 18.8071L17.0438 21.4834C17.3794 21.6614 17.787 21.6339 18.0956 21.4124C18.2946 21.2696 18.4303 21.062 18.4852 20.8321L16.0799 18.0378L16.2 18.7715L12.4687 16.7917C12.1756 16.6361 11.8244 16.6361 11.5313 16.7917L7.80001 18.7715L8.48687 14.574C8.53958 14.2519 8.43179 13.9243 8.1981 13.6965L5.14839 10.723L9.26791 10.1238L7.72184 8.32766ZM15.5058 14.305C15.5305 14.0766 15.6335 13.8607 15.8019 13.6965L18.8516 10.723L14.6686 10.1146C14.3447 10.0675 14.0644 9.86491 13.9181 9.57221L12 5.73607L10.578 8.58009L9.16354 6.93684L11.1056 3.05279C11.275 2.714 11.6212 2.5 12 2.5C12.3788 2.5 12.725 2.714 12.8944 3.05279L15.4733 8.2106L21.1439 9.03541C21.5206 9.0902 21.8335 9.35402 21.9511 9.71599C22.0687 10.078 21.9706 10.4753 21.6981 10.741L17.571 14.7649L17.9628 17.1595L15.5058 14.305Z"
		fill="black"
	/>
	<path
		d="M3.57617 3.40307L18.3454 20.8576"
		stroke="black"
		stroke-width="2"
		stroke-miterlimit="10"
		stroke-linecap="round"
		stroke-linejoin="round"
	/>
</svg>
