<svg
	width="24"
	height="24"
	viewBox="0 0 24 24"
	fill="none"
	xmlns="http://www.w3.org/2000/svg"
>
	<path
		fill-rule="evenodd"
		clip-rule="evenodd"
		d="M8.9558 11.3089V11.4235C8.9558 12.3525 9.32483 13.2434 9.9817 13.9003C10.5271 14.4457 11.2339 14.7927 11.9899 14.8947L13.1104 16.2189C12.8955 16.2482 12.6777 16.2631 12.4583 16.2631C11.1748 16.2631 9.94382 15.7532 9.03623 14.8456C8.12864 13.938 7.61876 12.707 7.61876 11.4235V9.75507C7.61876 9.74615 7.61865 9.73726 7.61841 9.72839L8.9558 11.3089ZM6.81034 8.7734C6.74833 8.76137 6.68428 8.75507 6.61876 8.75507C6.06648 8.75507 5.61876 9.20278 5.61876 9.75507V11.4235C5.61876 13.2375 6.33935 14.9771 7.62202 16.2598C8.66664 17.3044 10.0144 17.9762 11.4585 18.1896V19.6001H9.12145C8.56916 19.6001 8.12145 20.0478 8.12145 20.6001C8.12145 21.1524 8.56916 21.6001 9.12145 21.6001H15.7952C16.3475 21.6001 16.7952 21.1524 16.7952 20.6001C16.7952 20.5911 16.7951 20.5822 16.7949 20.5733L17.582 21.5036C17.9388 21.9252 18.5698 21.9778 18.9914 21.621C19.413 21.2643 19.4656 20.6333 19.1088 20.2117L4.33958 2.75716C3.98284 2.33555 3.35186 2.28297 2.93025 2.63971C2.50864 2.99646 2.45606 3.62743 2.81281 4.04904L6.81034 8.7734ZM15.9869 19.6185L14.56 17.9321C14.2018 18.0478 13.8334 18.1341 13.4585 18.1896V19.6001H15.7952C15.8608 19.6001 15.9249 19.6064 15.9869 19.6185ZM15.9288 14.7965L17.2372 16.3165C17.2564 16.2977 17.2756 16.2788 17.2946 16.2598C18.5773 14.9771 19.2979 13.2375 19.2979 11.4235V9.75507C19.2979 9.20278 18.8501 8.75507 18.2979 8.75507C17.7456 8.75507 17.2979 9.20278 17.2979 9.75507V11.4235C17.2979 12.684 16.8061 13.8938 15.9288 14.7965ZM13.7235 12.2345L15.0519 13.7778C15.6357 13.1348 15.9611 12.2959 15.9611 11.4235V4.74973C15.9611 3.82077 15.5921 2.92985 14.9352 2.27298C14.2783 1.6161 13.3874 1.24707 12.4585 1.24707C11.5295 1.24707 10.6386 1.6161 9.9817 2.27298C9.32483 2.92985 8.9558 3.82077 8.9558 4.74973V6.6955L10.9558 9.01902V4.74973C10.9558 4.3512 11.1141 3.96899 11.3959 3.68719C11.6777 3.40539 12.0599 3.24707 12.4585 3.24707C12.857 3.24707 13.2392 3.40539 13.521 3.68719C13.8028 3.96899 13.9611 4.3512 13.9611 4.74973V11.4235C13.9611 11.7132 13.8775 11.9943 13.7235 12.2345Z"
		fill="black"
	/>
</svg>
