<svg
	width="24"
	height="24"
	viewBox="0 0 24 24"
	fill="none"
	xmlns="http://www.w3.org/2000/svg"
>
	<path
		fill-rule="evenodd"
		clip-rule="evenodd"
		d="M5.25578 8.11797L1.81284 4.04905C1.45609 3.62744 1.50867 2.99646 1.93028 2.63972C2.35189 2.28297 2.98287 2.33555 3.33961 2.75716L18.1088 20.2117C18.4656 20.6333 18.413 21.2643 17.9914 21.621C17.5698 21.9778 16.9388 21.9252 16.5821 21.5036L15.2143 19.8871C14.6771 21.1301 13.4401 22 11.9999 22C10.2366 22 8.77794 20.6961 8.53532 19H3.99988C3.63108 19 3.29222 18.797 3.1182 18.4719C2.94418 18.1467 2.96326 17.7522 3.16783 17.4453L4.99988 14.6972V10C4.99988 9.348 5.08902 8.71681 5.25578 8.11797ZM12.7713 17H5.86839L6.83193 15.5547C6.94144 15.3904 6.99988 15.1974 6.99988 15V10.1792L12.7713 17ZM18.1314 17H16.8255L18.547 19H19.9999C20.3687 19 20.7075 18.797 20.8815 18.4719C21.0556 18.1467 21.0365 17.7522 20.8319 17.4453L18.9999 14.6972V10C18.9999 6.77579 16.82 4.06072 13.8537 3.24812C13.5566 2.51616 12.8385 2 11.9999 2C11.1612 2 10.4432 2.51616 10.146 3.24812C8.82938 3.6088 7.66769 4.3443 6.7828 5.33277L8.10317 6.86673C9.01965 5.72839 10.4247 5 11.9999 5C14.7613 5 16.9999 7.23858 16.9999 10V15C16.9999 15.1974 17.0583 15.3904 17.1678 15.5547L18.1314 17ZM11.9999 20C11.3468 20 10.7911 19.5826 10.5852 19H13.4145C13.2086 19.5826 12.653 20 11.9999 20Z"
		fill="black"
	/>
</svg>
