<svg
	width="24"
	height="24"
	viewBox="0 0 24 24"
	fill="none"
	xmlns="http://www.w3.org/2000/svg"
>
	<g class="oi-archive-fill">
		<path
			class="oi-fill"
			fill-rule="evenodd"
			clip-rule="evenodd"
			d="M3.20004 3H20.8C21.3523 3 21.8 3.44772 21.8 4V7C21.8 7.55228 21.3523 8 20.8 8H19.8V19.9999C19.8 20.5522 19.3523 20.9999 18.8 20.9999H5.2C4.64771 20.9999 4.2 20.5522 4.2 19.9999V8H3.20004C2.64776 8 2.20004 7.55228 2.20004 7V4C2.20004 3.44772 2.64776 3 3.20004 3ZM9.00005 12C9.00005 11.4477 9.44776 11 10 11H14C14.5523 11 15 11.4477 15 12C15 12.5523 14.5523 13 14 13H10C9.44776 13 9.00005 12.5523 9.00005 12ZM4.66451 4.46387C4.11222 4.46387 3.66451 4.91158 3.66451 5.46387C3.66451 6.01615 4.11222 6.46387 4.66451 6.46387H19.3635C19.9158 6.46387 20.3635 6.01615 20.3635 5.46387C20.3635 4.91158 19.9158 4.46387 19.3635 4.46387H4.66451Z"
			fill="black"
		/>
	</g>
</svg>
