<svg
	width="24"
	height="24"
	viewBox="0 0 24 24"
	fill="none"
	xmlns="http://www.w3.org/2000/svg"
>
	<g class="oi-box-3d">
		<path
			class="oi-vector"
			d="M21.0001 16V8.00002C20.9997 7.6493 20.9072 7.30483 20.7316 7.00119C20.5561 6.69754 20.3038 6.44539 20.0001 6.27002L13.0001 2.27002C12.6961 2.09449 12.3512 2.00208 12.0001 2.00208C11.649 2.00208 11.3041 2.09449 11.0001 2.27002L4.00009 6.27002C3.69636 6.44539 3.44407 6.69754 3.26856 7.00119C3.09304 7.30483 3.00045 7.6493 3.00009 8.00002V16C3.00045 16.3508 3.09304 16.6952 3.26856 16.9989C3.44407 17.3025 3.69636 17.5547 4.00009 17.73L11.0001 21.73C11.3041 21.9056 11.649 21.998 12.0001 21.998C12.3512 21.998 12.6961 21.9056 13.0001 21.73L20.0001 17.73C20.3038 17.5547 20.5561 17.3025 20.7316 16.9989C20.9072 16.6952 20.9997 16.3508 21.0001 16Z"
			stroke="black"
			stroke-width="2"
			stroke-linecap="round"
			stroke-linejoin="round"
		/>
		<path
			class="oi-vector"
			d="M3.27008 6.95996L12.0001 12.01L20.7301 6.95996"
			stroke="black"
			stroke-width="2"
			stroke-linecap="round"
			stroke-linejoin="round"
		/>
		<path
			class="oi-line"
			d="M12.0001 22.08V12"
			stroke="black"
			stroke-width="2"
			stroke-linecap="round"
			stroke-linejoin="round"
		/>
	</g>
</svg>
