<svg
	width="24"
	height="24"
	viewBox="0 0 24 24"
	fill="none"
	xmlns="http://www.w3.org/2000/svg"
>
	<path
		d="M21.4399 11.05L12.2499 20.24C11.1241 21.3658 9.59711 21.9983 8.00492 21.9983C6.41274 21.9983 4.88577 21.3658 3.75992 20.24C2.63408 19.1141 2.00159 17.5872 2.00159 15.995C2.00159 14.4028 2.63408 12.8758 3.75992 11.75L12.9499 2.55998C13.7005 1.80942 14.7185 1.38776 15.7799 1.38776C16.8414 1.38776 17.8594 1.80942 18.6099 2.55998C19.3605 3.31054 19.7821 4.32852 19.7821 5.38998C19.7821 6.45144 19.3605 7.46942 18.6099 8.21998L9.40992 17.41C9.03464 17.7853 8.52565 17.9961 7.99492 17.9961C7.4642 17.9961 6.9552 17.7853 6.57992 17.41C6.20464 17.0347 5.99381 16.5257 5.99381 15.995C5.99381 15.4643 6.20464 14.9553 6.57992 14.58L15.0699 6.09998"
		stroke="black"
		stroke-width="2"
		stroke-linecap="round"
		stroke-linejoin="round"
	/>
</svg>
