<svg
	width="24"
	height="24"
	viewBox="0 0 24 24"
	fill="none"
	xmlns="http://www.w3.org/2000/svg"
>
	<path
		d="M21.4399 11.05L12.2499 20.24C11.124 21.3658 9.59708 21.9983 8.00489 21.9983C6.41271 21.9983 4.88574 21.3658 3.75989 20.24C2.63405 19.1141 2.00156 17.5872 2.00156 15.995C2.00156 14.4028 2.63405 12.8758 3.75989 11.75L12.9499 2.55998C13.7005 1.80942 14.7184 1.38776 15.7799 1.38776C16.8413 1.38776 17.8593 1.80942 18.6099 2.55998C19.3605 3.31054 19.7821 4.32852 19.7821 5.38998C19.7821 6.45144 19.3605 7.46942 18.6099 8.21998L9.40989 17.41C9.03461 17.7853 8.52562 17.9961 7.99489 17.9961C7.46417 17.9961 6.95517 17.7853 6.57989 17.41C6.20461 17.0347 5.99378 16.5257 5.99378 15.995C5.99378 15.4643 6.20461 14.9553 6.57989 14.58L15.0699 6.09998"
		stroke="black"
		stroke-width="2"
		stroke-linecap="round"
		stroke-linejoin="round"
	/>
</svg>
