<svg
	width="24"
	height="24"
	viewBox="0 0 24 24"
	fill="none"
	xmlns="http://www.w3.org/2000/svg"
>
	<path
		d="M7.85038 3V2C7.29809 2 6.85038 2.44772 6.85038 3H7.85038ZM16.1496 3H17.1496C17.1496 2.44772 16.7019 2 16.1496 2V3ZM7.85038 10.9999L8.62267 11.6352C8.76989 11.4562 8.85038 11.2317 8.85038 10.9999H7.85038ZM7.85034 11L8.61986 11.6386L8.62263 11.6353L7.85034 11ZM6.19049 15H5.19049C5.19049 15.5523 5.63821 16 6.19049 16V15ZM17.8094 15V16C18.3617 16 18.8094 15.5523 18.8094 15H17.8094ZM16.1496 11V10C15.762 10 15.4092 10.224 15.2444 10.5749C15.0797 10.9258 15.1325 11.3403 15.3801 11.6386L16.1496 11ZM16.1496 11V12C16.7019 12 17.1496 11.5523 17.1496 11H16.1496ZM7.85038 4H16.1496V2H7.85038V4ZM8.85038 10.9999V3H6.85038V10.9999H8.85038ZM8.62263 11.6353C8.62049 11.6379 8.61874 11.64 8.61767 11.6412C8.6167 11.6424 8.61586 11.6434 8.616 11.6432C8.616 11.6432 8.616 11.6432 8.616 11.6432C8.616 11.6432 8.616 11.6432 8.616 11.6432C8.61601 11.6432 8.61601 11.6432 8.61601 11.6432C8.61601 11.6432 8.61602 11.6432 8.61603 11.6432C8.61605 11.6432 8.61608 11.6431 8.61611 11.6431C8.61618 11.643 8.61629 11.6429 8.61643 11.6427C8.6167 11.6424 8.61714 11.6419 8.61769 11.6412C8.61877 11.6399 8.62052 11.6378 8.62267 11.6352L7.07809 10.3647C7.08023 10.3621 7.08198 10.36 7.08305 10.3587C7.08402 10.3575 7.08486 10.3565 7.08472 10.3567C7.08472 10.3567 7.08472 10.3567 7.08472 10.3567C7.08472 10.3567 7.08472 10.3567 7.08472 10.3567C7.08471 10.3567 7.08471 10.3567 7.08471 10.3567C7.08471 10.3567 7.0847 10.3567 7.08469 10.3567C7.08467 10.3567 7.08464 10.3568 7.08461 10.3568C7.08454 10.3569 7.08443 10.357 7.08429 10.3572C7.08402 10.3575 7.08358 10.3581 7.08303 10.3587C7.08195 10.36 7.0802 10.3621 7.07805 10.3647L8.62263 11.6353ZM6.19049 15C7.19049 15 7.19049 15.0004 7.19049 15.0008C7.19049 15.0009 7.19049 15.0013 7.19049 15.0015C7.19049 15.002 7.19049 15.0025 7.19049 15.0029C7.19048 15.0037 7.19048 15.0044 7.19048 15.0051C7.19047 15.0063 7.19046 15.0071 7.19045 15.0074C7.19045 15.008 7.19046 15.0068 7.19054 15.0038C7.1907 14.9979 7.19113 14.9849 7.19221 14.9654C7.19437 14.9263 7.19912 14.8613 7.20947 14.774C7.23021 14.5991 7.27317 14.3369 7.36177 14.0166C7.53886 13.3765 7.89632 12.5104 8.61985 11.6386L7.08083 10.3613C6.14451 11.4895 5.67204 12.6235 5.43417 13.4834C5.3153 13.9131 5.25451 14.2759 5.22338 14.5385C5.2078 14.6699 5.19958 14.7768 5.19526 14.8549C5.1931 14.894 5.19191 14.9259 5.19125 14.9503C5.19093 14.9624 5.19074 14.9727 5.19063 14.981C5.19057 14.9852 5.19054 14.9888 5.19052 14.992C5.19051 14.9936 5.1905 14.995 5.1905 14.9964C5.19049 14.997 5.19049 14.9977 5.19049 14.9983C5.19049 14.9986 5.19049 14.999 5.19049 14.9992C5.19049 14.9996 5.19049 15 6.19049 15ZM17.8094 14H6.19049V16H17.8094V14ZM15.3801 11.6386C16.1036 12.5104 16.4611 13.3765 16.6382 14.0166C16.7268 14.3369 16.7697 14.5991 16.7905 14.774C16.8008 14.8613 16.8056 14.9263 16.8077 14.9654C16.8088 14.9849 16.8092 14.9979 16.8094 15.0038C16.8095 15.0068 16.8095 15.008 16.8095 15.0074C16.8095 15.0071 16.8095 15.0063 16.8095 15.0051C16.8095 15.0044 16.8095 15.0037 16.8095 15.0029C16.8095 15.0025 16.8095 15.002 16.8094 15.0015C16.8094 15.0013 16.8094 15.0009 16.8094 15.0008C16.8094 15.0004 16.8094 15 17.8094 15C18.8094 15 18.8094 14.9996 18.8094 14.9992C18.8094 14.999 18.8094 14.9986 18.8094 14.9983C18.8094 14.9977 18.8094 14.997 18.8094 14.9964C18.8094 14.995 18.8094 14.9936 18.8094 14.992C18.8094 14.9888 18.8094 14.9852 18.8093 14.981C18.8092 14.9727 18.809 14.9624 18.8087 14.9503C18.808 14.9259 18.8068 14.894 18.8047 14.8549C18.8004 14.7768 18.7921 14.6699 18.7766 14.5385C18.7454 14.2759 18.6846 13.9131 18.5658 13.4834C18.3279 12.6235 17.8554 11.4896 16.9191 10.3614L15.3801 11.6386ZM16.1496 10H16.1496V12H16.1496V10ZM15.1496 3V11H17.1496V3H15.1496Z"
		fill="black"
	/>
	<path
		d="M12 15V21"
		stroke="black"
		stroke-width="2"
		stroke-miterlimit="10"
		stroke-linecap="round"
		stroke-linejoin="round"
	/>
	<path
		d="M7 3H17"
		stroke="black"
		stroke-width="2"
		stroke-miterlimit="10"
		stroke-linecap="round"
		stroke-linejoin="round"
	/>
</svg>
