<svg
	width="24"
	height="24"
	viewBox="0 0 24 24"
	fill="none"
	xmlns="http://www.w3.org/2000/svg"
>
	<path
		d="M20.0004 1.99995H4.0004C2.89583 1.99995 2.0004 2.89538 2.0004 3.99995V7.99995C2.0004 9.10452 2.89583 9.99995 4.0004 9.99995H20.0004C21.105 9.99995 22.0004 9.10452 22.0004 7.99995V3.99995C22.0004 2.89538 21.105 1.99995 20.0004 1.99995Z"
		stroke="black"
		stroke-width="2"
		stroke-linecap="round"
		stroke-linejoin="round"
	/>
	<path
		d="M20.0004 14H4.0004C2.89583 14 2.0004 14.8954 2.0004 16V20C2.0004 21.1045 2.89583 22 4.0004 22H20.0004C21.105 22 22.0004 21.1045 22.0004 20V16C22.0004 14.8954 21.105 14 20.0004 14Z"
		stroke="black"
		stroke-width="2"
		stroke-linecap="round"
		stroke-linejoin="round"
	/>
	<path
		d="M6.00012 6H6.01012"
		stroke="black"
		stroke-width="2"
		stroke-linecap="round"
		stroke-linejoin="round"
	/>
	<path
		d="M6.00012 18H6.01012"
		stroke="black"
		stroke-width="2"
		stroke-linecap="round"
		stroke-linejoin="round"
	/>
</svg>
