<svg
	width="24"
	height="24"
	viewBox="0 0 24 24"
	fill="none"
	xmlns="http://www.w3.org/2000/svg"
>
	<path
		fill-rule="evenodd"
		clip-rule="evenodd"
		d="M9.86666 4.53336C9.86666 3.35515 10.8218 2.40002 12 2.40002C13.1782 2.40002 14.1333 3.35515 14.1333 4.53336V4.83782C14.1333 5.58024 15.0309 5.95205 15.5559 5.42708L15.7712 5.21181C16.6043 4.37869 17.9551 4.37869 18.7882 5.21181C19.6213 6.04493 19.6213 7.39568 18.7882 8.2288L18.5729 8.4441C18.0479 8.96907 18.4197 9.86669 19.1621 9.86669H19.4667C20.6449 9.86669 21.6 10.8218 21.6 12C21.6 13.1782 20.6449 14.1334 19.4667 14.1334H19.1622C18.4198 14.1334 18.048 15.031 18.5729 15.5559L18.7882 15.7713C19.6214 16.6044 19.6214 17.9551 18.7882 18.7882C17.9551 19.6214 16.6044 19.6214 15.7713 18.7882L15.5559 18.5729C15.0309 18.0479 14.1333 18.4197 14.1333 19.1622V19.4667C14.1333 20.6449 13.1782 21.6 12 21.6C10.8218 21.6 9.86666 20.6449 9.86666 19.4667V19.1622C9.86666 18.4197 8.96904 18.0479 8.44407 18.5729L8.22871 18.7883C7.3956 19.6214 6.04484 19.6214 5.21173 18.7883C4.37861 17.9551 4.37861 16.6044 5.21173 15.7713L5.42705 15.5559C5.95202 15.031 5.58021 14.1334 4.83779 14.1334H4.53333C3.35512 14.1334 2.39999 13.1782 2.39999 12C2.39999 10.8218 3.35512 9.86669 4.53333 9.86669H4.83786C5.58028 9.86669 5.95209 8.96907 5.42712 8.4441L5.21179 8.22878C4.37868 7.39566 4.37868 6.04491 5.21179 5.21179C6.04491 4.37867 7.39567 4.37867 8.22878 5.21179L8.44407 5.42708C8.96904 5.95205 9.86666 5.58024 9.86666 4.83782V4.53336ZM14.2626 14.2628C14.8628 13.6627 15.1999 12.8487 15.1999 12C15.1999 11.1513 14.8628 10.3374 14.2626 9.73729C13.6625 9.13718 12.8486 8.80003 11.9999 8.80003C11.1512 8.80003 10.3373 9.13718 9.73715 9.73729C9.13704 10.3374 8.7999 11.1513 8.7999 12C8.7999 12.8487 9.13704 13.6627 9.73715 14.2628C10.3373 14.8629 11.1512 15.2 11.9999 15.2C12.8486 15.2 13.6625 14.8629 14.2626 14.2628Z"
		fill="black"
	/>
</svg>
