<svg
	width="24"
	height="24"
	viewBox="0 0 24 24"
	fill="none"
	xmlns="http://www.w3.org/2000/svg"
>
	<path
		fill-rule="evenodd"
		clip-rule="evenodd"
		d="M1.99963 1C1.44735 1 0.999634 1.44772 0.999634 2C0.999634 2.55228 1.44735 3 1.99963 3H5.19281L6.09965 7.19245C6.10226 7.20582 6.10513 7.2191 6.10827 7.23228L7.70062 14.594C7.83928 15.2809 8.21408 15.8977 8.76011 16.3373C9.30584 16.7766 9.98801 17.011 10.6883 17H18.391C19.0913 17.011 19.7734 16.7766 20.3192 16.3373C20.8651 15.8978 21.2399 15.281 21.3786 14.5942L22.977 7.21161C23.041 6.91609 22.9678 6.60749 22.778 6.37215C22.5881 6.13681 22.302 6 21.9996 6H7.88797L6.97703 1.78859C6.87749 1.32841 6.47045 1 5.99963 1H1.99963ZM9.65703 14.1786L8.32058 8H20.76L19.4223 14.1784L19.4188 14.1952C19.3731 14.4254 19.2478 14.6322 19.065 14.7793C18.8822 14.9265 18.6534 15.0047 18.4188 15.0002L18.3996 15H10.6796L10.6605 15.0002C10.4258 15.0047 10.1971 14.9265 10.0142 14.7793C9.83143 14.6322 9.7062 14.4254 9.66047 14.1952L9.65703 14.1786ZM8.5 20C8.5 19.1716 9.17157 18.5 10 18.5H10.012C10.8404 18.5 11.512 19.1716 11.512 20C11.512 20.8284 10.8404 21.5 10.012 21.5H10C9.17157 21.5 8.5 20.8284 8.5 20ZM16.9902 20.0262C16.9902 19.1978 17.6618 18.5262 18.4902 18.5262H18.5022C19.3307 18.5262 20.0022 19.1978 20.0022 20.0262C20.0022 20.8547 19.3307 21.5262 18.5022 21.5262H18.4902C17.6618 21.5262 16.9902 20.8547 16.9902 20.0262Z"
		fill="black"
	/>
	<path
		d="M22 5H16"
		stroke="black"
		stroke-width="2"
		stroke-linecap="round"
		stroke-linejoin="round"
	/>
</svg>
