<svg
	width="24"
	height="24"
	viewBox="0 0 24 24"
	fill="none"
	xmlns="http://www.w3.org/2000/svg"
>
	<path
		d="M5 4C5 3.44772 5.44772 3 6 3H18C18.5523 3 19 3.44772 19 4V20C19 20.5523 18.5523 21 18 21H6C5.44772 21 5 20.5523 5 20V4Z"
		stroke="black"
		stroke-width="2"
		stroke-miterlimit="10"
		stroke-linecap="round"
		stroke-linejoin="round"
	/>
	<path
		d="M12 17C13.6568 17 15 15.6569 15 14C15 12.3431 13.6568 11 12 11C10.3431 11 8.99997 12.3431 8.99997 14C8.99997 15.6569 10.3431 17 12 17Z"
		stroke="black"
		stroke-width="2"
		stroke-miterlimit="10"
		stroke-linecap="round"
		stroke-linejoin="round"
	/>
	<circle cx="12" cy="7.5" r="1.5" fill="black" />
</svg>
