<svg
	width="24"
	height="24"
	viewBox="0 0 24 24"
	fill="none"
	xmlns="http://www.w3.org/2000/svg"
>
	<path
		fill-rule="evenodd"
		clip-rule="evenodd"
		d="M7.5 7C7.5 5.34315 8.84315 4 10.5 4C12.1569 4 13.5 5.34315 13.5 7C13.5 8.65685 12.1569 10 10.5 10C8.84315 10 7.5 8.65685 7.5 7ZM10.5 2C7.73858 2 5.5 4.23858 5.5 7C5.5 9.76142 7.73858 12 10.5 12C13.2614 12 15.5 9.76142 15.5 7C15.5 4.23858 13.2614 2 10.5 2ZM7 14C5.67392 14 4.40215 14.5268 3.46447 15.4645C2.52678 16.4021 2 17.6739 2 19V21C2 21.5523 2.44772 22 3 22C3.55228 22 4 21.5523 4 21V19C4 18.2044 4.31607 17.4413 4.87868 16.8787C5.44129 16.3161 6.20435 16 7 16H14C14.7956 16 15.5587 16.3161 16.1213 16.8787C16.6839 17.4413 17 18.2043 17 19V21C17 21.5523 17.4477 22 18 22C18.5523 22 19 21.5523 19 21V19C19 17.6739 18.4732 16.4021 17.5355 15.4645C16.5979 14.5268 15.3261 14 14 14H7Z"
		fill="black"
	/>
	<path
		fill-rule="evenodd"
		clip-rule="evenodd"
		d="M17.5858 16.1716C17.1952 15.781 16.5621 15.781 16.1716 16.1716C15.781 16.5621 15.781 17.1952 16.1716 17.5858L17.5858 19L16.1716 20.4142C15.7811 20.8047 15.7811 21.4379 16.1716 21.8284C16.5621 22.2189 17.1953 22.2189 17.5858 21.8284L19 20.4142L20.4142 21.8284C20.8047 22.2189 21.4379 22.2189 21.8284 21.8284C22.2189 21.4379 22.2189 20.8047 21.8284 20.4142L20.4142 19L21.8284 17.5858C22.219 17.1952 22.219 16.5621 21.8284 16.1716C21.4379 15.781 20.8048 15.781 20.4142 16.1716L19 17.5858L17.5858 16.1716Z"
		fill="black"
	/>
</svg>
