<svg
	width="24"
	height="24"
	viewBox="0 0 24 24"
	fill="none"
	xmlns="http://www.w3.org/2000/svg"
>
	<path
		fill-rule="evenodd"
		clip-rule="evenodd"
		d="M3.33961 2.75716C2.98287 2.33555 2.35189 2.28297 1.93028 2.63971C1.50867 2.99646 1.45609 3.62743 1.81284 4.04904L3.94198 6.5653C3.36734 7.03088 3 7.74229 3 8.5395V16.237C3 17.6395 4.13697 18.7765 5.5395 18.7765H14.0068C14.0935 18.7765 14.1792 18.7722 14.2637 18.7637L16.5821 21.5036C16.9388 21.9252 17.5698 21.9778 17.9914 21.621C18.413 21.2643 18.4656 20.6333 18.1088 20.2117L3.33961 2.75716ZM12.5822 16.7765L5.23536 8.09383C5.09325 8.191 5 8.35436 5 8.5395V16.237C5 16.535 5.24154 16.7765 5.5395 16.7765H12.5822ZM14.5463 12.3941V14.3521L16.5147 16.6389C16.5355 16.508 16.5463 16.3738 16.5463 16.237V14.3316L20.3533 17.0509C20.6581 17.2686 21.059 17.2977 21.3921 17.1263C21.7252 16.9549 21.9345 16.6117 21.9345 16.2371V8.53961C21.9345 8.16502 21.7252 7.82184 21.3921 7.65044C21.059 7.47903 20.6581 7.50815 20.3533 7.72587L16.5463 10.4452V8.5395C16.5463 7.13697 15.4093 5.99999 14.0068 5.99999H7.35712L9.07865 7.99999H14.0068C14.3047 7.99999 14.5463 8.24154 14.5463 8.5395V12.3827L14.5463 12.3884L14.5463 12.3941ZM19.9345 14.2939L17.2667 12.3884L19.9345 10.4828V14.2939Z"
		fill="black"
	/>
</svg>
