<svg
	width="24"
	height="24"
	viewBox="0 0 24 24"
	fill="none"
	xmlns="http://www.w3.org/2000/svg"
>
	<path
		fill-rule="evenodd"
		clip-rule="evenodd"
		d="M12.7586 4.08131C12.3837 3.36897 11.3637 3.36897 10.9888 4.08131L3.17144 18.9342C2.82096 19.6001 3.30384 20.4 4.05635 20.4H19.691C20.4435 20.4 20.9264 19.6001 20.5759 18.9342L12.7586 4.08131ZM11.7 14.3421C11.1477 14.3421 10.7 13.8944 10.7 13.3421V10.5C10.7 9.94769 11.1477 9.49997 11.7 9.49997C12.2522 9.49997 12.7 9.94769 12.7 10.5V13.3421C12.7 13.8944 12.2522 14.3421 11.7 14.3421ZM10.7 17.1314C10.7 16.5792 11.1477 16.1314 11.7 16.1314H11.7088C12.2611 16.1314 12.7088 16.5792 12.7088 17.1314C12.7088 17.6837 12.2611 18.1314 11.7088 18.1314H11.7C11.1477 18.1314 10.7 17.6837 10.7 17.1314Z"
		fill="black"
	/>
</svg>
